<svg width="22" height="25" viewBox="0 0 22 25" fill="none" xmlns="http://www.w3.org/2000/svg">
<path d="M6.27003 16.0948H19.3143C20.7934 16.0948 22 14.8489 22 13.3217V7.65476C22 7.64974 22 7.63969 22 7.63467C22 7.6196 22 7.60955 22 7.59448C22 7.58443 22 7.57438 21.9951 7.56434C21.9951 7.55429 21.9903 7.53922 21.9903 7.52917C21.9903 7.51912 21.9854 7.50907 21.9854 7.49903C21.9805 7.48898 21.9805 7.47893 21.9757 7.46386C21.9708 7.45381 21.9708 7.44376 21.9659 7.43372C21.9611 7.42367 21.9611 7.41362 21.9562 7.40357C21.9513 7.39352 21.9465 7.38348 21.9416 7.36841C21.9368 7.35836 21.9319 7.34831 21.927 7.34329C21.9222 7.33324 21.9173 7.32319 21.9124 7.31314C21.9076 7.3031 21.9027 7.29807 21.8978 7.28802C21.893 7.27798 21.8832 7.26793 21.8784 7.25788C21.8735 7.24783 21.8686 7.24281 21.8589 7.23276C21.854 7.22271 21.8443 7.21769 21.8394 7.20764C21.8346 7.1976 21.8248 7.19257 21.82 7.18252C21.8151 7.17248 21.8054 7.16745 21.8005 7.16243C21.7908 7.15238 21.7859 7.14736 21.7762 7.13731C21.7665 7.13229 21.7616 7.12224 21.7519 7.11721C21.7421 7.11219 21.7324 7.10214 21.7227 7.09712C21.7129 7.09209 21.7081 7.08707 21.6983 7.08205C21.6886 7.07702 21.6789 7.072 21.6692 7.06195C21.6594 7.05693 21.6497 7.0519 21.64 7.04688C21.6302 7.04186 21.6205 7.03683 21.6108 7.03181C21.601 7.02678 21.5913 7.02176 21.5816 7.01674C21.5718 7.01171 21.5621 7.01171 21.5524 7.00669C21.5426 7.00167 21.5281 6.99664 21.5183 6.99664C21.5086 6.99664 21.4989 6.99162 21.494 6.99162C21.4794 6.98659 21.4697 6.98659 21.4551 6.98659C21.4502 6.98659 21.4453 6.98157 21.4356 6.98157L4.90284 4.62539V2.24409C4.90284 2.21897 4.90284 2.19385 4.89798 2.17375C4.89798 2.16873 4.89798 2.16371 4.89311 2.15366C4.89311 2.13859 4.88825 2.12352 4.88825 2.10844C4.88338 2.09337 4.88338 2.08332 4.87852 2.06825C4.87852 2.05821 4.87365 2.05318 4.87365 2.04313C4.86878 2.02806 4.86392 2.01299 4.85905 1.99792C4.85905 1.9929 4.85419 1.98285 4.85419 1.97782C4.84932 1.96275 4.84446 1.9527 4.83473 1.93763C4.82986 1.93261 4.82986 1.92256 4.825 1.91754C4.82013 1.90749 4.81527 1.89744 4.80553 1.88739C4.80067 1.87735 4.7958 1.87232 4.79094 1.86228C4.78607 1.85223 4.78121 1.8472 4.77634 1.83716C4.77148 1.82711 4.76175 1.81706 4.75688 1.80701C4.75201 1.80199 4.74715 1.79697 4.74228 1.79194C4.73255 1.78189 4.72282 1.77185 4.71309 1.7618C4.70823 1.75677 4.70336 1.75175 4.69849 1.74673C4.68876 1.73668 4.67903 1.72663 4.66444 1.71658C4.65957 1.71156 4.64984 1.70654 4.64497 1.70151C4.63524 1.69146 4.62551 1.68644 4.61578 1.67639C4.60119 1.66635 4.58659 1.6563 4.57686 1.65127C4.57199 1.64625 4.56713 1.64625 4.56226 1.64123C4.5428 1.63118 4.51847 1.62113 4.49901 1.61108L0.913182 0.0536923C0.577467 -0.0919991 0.193097 0.0687639 0.0519994 0.415409C-0.0890984 0.762054 0.0665957 1.15894 0.402311 1.30463L3.58431 2.69121V5.7658V6.25311V9.99085V13.3317V17.5517C3.58431 18.9584 4.60605 20.1239 5.92459 20.2998C5.68618 20.7117 5.54508 21.194 5.54508 21.7065C5.54508 23.2186 6.73711 24.4444 8.19675 24.4444C9.65638 24.4444 10.8484 23.2136 10.8484 21.7065C10.8484 21.2041 10.717 20.7268 10.4835 20.3249H16.3901C16.1566 20.7318 16.0252 21.2041 16.0252 21.7065C16.0252 23.2186 17.2173 24.4444 18.6769 24.4444C20.1365 24.4444 21.3286 23.2136 21.3286 21.7065C21.3286 20.1993 20.1365 18.9685 18.6769 18.9685H6.27003C5.51102 18.9685 4.89798 18.3304 4.89798 17.5517V15.713C5.29694 15.9542 5.76889 16.0948 6.27003 16.0948ZM9.53961 21.7014C9.53961 22.465 8.93629 23.083 8.20161 23.083C7.46693 23.083 6.86362 22.46 6.86362 21.7014C6.86362 20.9428 7.46693 20.3199 8.20161 20.3199C8.93629 20.3199 9.53961 20.9378 9.53961 21.7014ZM20.0198 21.7014C20.0198 22.465 19.4165 23.083 18.6818 23.083C17.9471 23.083 17.3438 22.46 17.3438 21.7014C17.3438 20.9428 17.9471 20.3199 18.6818 20.3199C19.4165 20.3199 20.0198 20.9378 20.0198 21.7014ZM19.3143 14.7384H6.27003C5.51102 14.7384 4.89798 14.1004 4.89798 13.3217V9.9808V6.24307V5.99187L20.6863 8.23753V13.3166C20.6863 14.1054 20.0684 14.7384 19.3143 14.7384Z" fill="#585858"/>
</svg>
