<svg width="12" height="22" viewBox="0 0 12 22" fill="none" xmlns="http://www.w3.org/2000/svg">
<path fill-rule="evenodd" clip-rule="evenodd" d="M9.00361 4.04581C9.67365 4.02393 10.3437 4.04195 11.0151 4.03937C11.0965 4.03937 11.178 4.03937 11.291 4.03937V0.627094C10.9336 0.592354 10.5592 0.540887 10.1847 0.52416C9.4976 0.494566 8.80916 0.461113 8.12203 0.476553C7.07229 0.498427 6.07773 0.748042 5.2093 1.35793C4.21342 2.05917 3.66687 3.04348 3.45929 4.20664C3.37389 4.68658 3.35155 5.18323 3.33842 5.67089C3.31871 6.43775 3.33316 7.20204 3.33579 7.97019V8.25712H0V12.0696H3.31477V21.6528H7.36659V12.085H10.6722C10.8416 10.8176 11.0059 9.5631 11.1806 8.25454C10.9152 8.25454 10.6761 8.25454 10.4383 8.25454C9.4976 8.2584 7.34163 8.25454 7.34163 8.25454C7.34163 8.25454 7.35082 6.36441 7.37316 5.54479C7.40469 4.42023 8.08525 4.07798 9.00361 4.04581Z" fill="#333333"/>
</svg>
