<svg width="274" height="87" viewBox="0 0 274 87" fill="none" xmlns="http://www.w3.org/2000/svg">
<path fill-rule="evenodd" clip-rule="evenodd" d="M76.6975 29.5026C79.0685 27.8999 81.0079 27.5293 81.0079 27.5293C80.841 28.6967 80.6687 29.7868 80.4804 30.8066C80.2886 31.8265 80.0879 32.7817 79.8766 33.6684C79.4503 35.4492 79.0063 36.9655 78.541 38.2588C78.0792 39.5503 77.6263 40.6188 77.1983 41.5074C76.765 42.3905 76.3582 43.0903 75.9728 43.6497C74.4277 45.8801 73.5539 45.711 73.5539 45.711C75.0511 46.3442 76.5607 45.9287 77.9762 44.5454C78.6778 43.8547 79.3455 42.9302 79.9743 41.7772C80.603 40.626 81.1802 39.2392 81.6988 37.6149C81.9581 36.8037 82.2139 35.8791 82.4643 34.8826C82.7147 33.8951 82.9562 32.8338 83.1747 31.7492C83.3932 30.6555 83.6418 29.474 83.7679 28.4405C83.894 27.4069 84 26.0588 84 25.0642C84 22.9696 84 22.4918 83.7679 21.4124C83.6875 21.0387 83.6418 21.0219 83.6418 21.0219C83.6418 21.0219 83.7164 20.8018 81.6988 21.7569C80.6918 22.2336 79.5474 22.7075 78.2686 23.5943C76.9863 24.4721 75.7612 25.1721 74.3283 26.5342C73.1322 27.6712 72.5373 28.4794 71.8209 29.945C71.2188 31.6125 70.9771 32.7601 70.7462 34.2513C70.2773 37.2318 70 39.3399 70 39.3399C70.2913 38.0754 70.7086 36.9242 71.2113 35.8791C71.7139 34.8358 72.2964 33.9095 72.9127 33.1C74.1453 31.4704 75.5128 30.303 76.6975 29.5026Z" fill="#3E6E00"/>
<path fill-rule="evenodd" clip-rule="evenodd" d="M71.7726 23.4638C71.6381 22.5232 71.4457 21.5516 71.1834 20.5405C70.9314 19.5277 70.5875 18.3979 70.1856 17.1925C69.7803 15.9905 69.3053 14.7146 68.7859 13.4146C68.2598 12.1147 67.6842 10.794 67.0814 9.49576C66.4804 8.20093 65.8503 6.93189 65.2237 5.74024C64.592 4.54858 63.3017 2.46477 62.9582 2.11346C62.3827 1.11268 61.8931 0.708239 61.8931 0.708239L61.2411 0.00562905C61.2411 0.00562905 61.1626 -0.140758 60.6382 1.0595C60.2578 1.92991 59.8673 2.11349 59.5239 3.16741C59.1629 4.04094 58.8535 4.33848 58.4936 5.27524C58.0662 6.38779 57.5916 6.73754 57.1199 8.08568C56.6448 9.43554 55.531 11.4752 55.0593 13.0039C54.5893 14.5291 53.6398 15.6673 53.2447 17.2561C52.8548 18.8416 52.521 20.4253 52.2929 21.9488C52.0664 23.4741 51.9813 24.903 52.0034 26.2305C52.0272 27.5615 52.1652 28.7824 52.3831 29.9052C52.596 31.0144 52.8888 32.0134 53.2311 32.9042C53.5665 33.7932 53.9548 34.5738 54.3379 35.2428C55.8874 37.9115 57.6634 39 57.6634 39C57.1219 37.8376 56.8308 36.5307 56.7303 35.1293C56.6247 33.7209 56.7099 32.2301 56.9261 30.7169C57.139 29.2002 57.4744 27.6715 57.878 26.1944C58.2798 24.7139 58.7481 23.2918 59.2214 21.9746C59.6948 20.666 60.1784 19.4572 60.6382 18.3911C61.0962 17.3266 61.5253 16.4032 61.8931 15.6518C62.6236 14.1523 63.1344 13.2874 63.1344 13.2874C63.7866 14.608 64.3706 15.8633 64.8712 17.0515C65.3838 18.2363 65.818 19.3574 66.1892 20.4098C66.5604 21.4622 66.872 22.4492 67.1342 23.3761C67.3948 24.3063 67.6059 25.1747 67.7762 25.9812C68.1065 27.601 68.2938 29.0007 68.3722 30.2096C68.4471 31.4236 68.4198 32.4502 68.3228 33.3203C67.9362 36.7972 66.7171 37.9012 66.7171 37.9012C67.9107 37.0311 68.9017 35.9994 69.6901 34.8301C70.4785 33.6625 71.0728 32.3539 71.4593 30.9163C71.8458 29.4685 72.0314 27.8882 71.9957 26.1669C71.9769 25.3002 71.9071 24.4009 71.7726 23.4638Z" fill="#3E6E00"/>
<path fill-rule="evenodd" clip-rule="evenodd" d="M14.892 14.5422C14.9763 15.1261 15.121 16.0966 15.3358 17.3453C15.5442 18.5746 15.7891 19.875 16.0659 21.2078C16.392 22.793 16.7642 24.4331 17.1762 26.0846C17.3941 26.958 17.6248 27.8606 17.8825 28.7664C18.1386 29.6802 18.4106 30.6087 18.6969 31.5371C18.9928 32.4963 19.3029 33.4328 19.6052 34.3192C19.9249 35.2379 20.2605 36.1534 20.6073 37.0414C20.9477 37.9343 21.312 38.8109 21.6762 39.6456C22.0564 40.5093 22.4413 41.3245 22.8104 42.0653C23.6185 43.6585 24.4297 45.0334 25.2219 46.1511C26.0045 47.2591 26.8666 48.2263 27.786 49.0351C28.6164 49.7662 29.5103 50.3857 30.4409 50.8774C31.2792 51.3125 32.162 51.6635 33.0576 51.9126C33.8481 52.1309 34.6657 52.2765 35.4992 52.3493C36.6668 52.4496 37.8805 52.4091 39.0592 52.2377C38.4356 52.0161 37.8407 51.7233 37.2697 51.3545C36.2246 50.6817 35.24 49.7565 34.3396 48.6016C33.53 47.5648 32.768 46.295 32.0729 44.8345C31.4621 43.5453 30.8879 42.0734 30.3788 40.4689C29.9335 39.0746 29.5374 37.5865 29.189 36.0321C28.9027 34.743 28.6498 33.4296 28.4462 32.121C28.0803 29.8501 27.9658 28.3636 27.9594 28.3021L27.9085 27.6746L28.5066 27.846C30.1418 28.2989 31.6927 28.7664 33.1291 29.2419C34.513 29.6964 35.8285 30.1687 37.0486 30.6491C38.2018 31.0891 39.2962 31.5597 40.3047 32.0304C41.2591 32.4769 42.1499 32.9314 42.9484 33.3794C44.4182 34.2011 45.6923 35.0616 46.7326 35.9253C47.6409 36.6823 48.3885 37.462 48.9516 38.2335C49.7104 39.2752 50.0969 40.2181 50.291 40.9784C50.3467 40.7794 50.4023 40.5788 50.4564 40.3831C50.6791 39.5048 50.8286 38.6282 50.8923 37.7693C50.9575 36.9152 50.94 36.0677 50.8414 35.2589C50.7475 34.4389 50.5646 33.6301 50.2989 32.857C50.0349 32.0725 49.6833 31.301 49.2459 30.5666C48.8053 29.8226 48.2645 29.0882 47.6457 28.4008C47.019 27.6972 46.2825 27.013 45.4617 26.3692C44.617 25.7125 43.6722 25.085 42.6478 24.5091C41.6218 23.9349 40.3922 23.3154 38.9812 22.6668C37.6419 22.0538 36.1387 21.4197 34.521 20.7776C33.7336 20.467 32.9319 20.1565 32.1222 19.854C31.3078 19.5548 30.4902 19.2572 29.6758 18.9725C28.093 18.4144 26.4896 17.8871 24.9085 17.3873C23.4451 16.928 22.015 16.4945 20.655 16.1063C19.3697 15.7327 18.2276 15.414 17.2875 15.1617C16.2282 14.8835 15.4074 14.6716 14.892 14.5422ZM36.7877 53.2842C36.3312 53.2842 35.8746 53.2664 35.4277 53.2292C34.5417 53.1532 33.6668 52.9963 32.8253 52.765C31.8741 52.4949 30.9356 52.1245 30.0432 51.6618C29.049 51.1345 28.101 50.4779 27.2198 49.7031C26.2463 48.8507 25.338 47.8284 24.5172 46.6687C23.6996 45.5106 22.8661 44.0969 22.0405 42.4697C21.6587 41.7159 21.2738 40.8862 20.8825 40.0063C20.5119 39.1587 20.1428 38.2707 19.7945 37.3681C19.4477 36.4672 19.1089 35.5388 18.7891 34.6087C18.4774 33.7126 18.1688 32.7696 17.8681 31.8008C17.5786 30.8642 17.3034 29.9309 17.0458 29.0138C16.7928 28.0902 16.5511 27.178 16.3331 26.2981C15.9196 24.6385 15.5442 22.9838 15.2165 21.389C14.9397 20.0481 14.69 18.7379 14.4816 17.4989C14.1157 15.3542 13.9408 14.0278 13.9408 14.0149L13.8564 13.376L14.472 13.528C14.472 13.528 15.6157 13.8095 17.5071 14.3076C18.4551 14.5632 19.5988 14.8835 20.8968 15.2555C22.2552 15.6502 23.6932 16.0804 25.1662 16.5414C26.7569 17.0444 28.3682 17.5814 29.9589 18.1411C30.7797 18.4241 31.6037 18.7234 32.4165 19.0275C33.2341 19.3299 34.0454 19.6405 34.8391 19.9575C36.4712 20.6045 37.9839 21.2418 39.336 21.8629C40.7708 22.5212 42.0258 23.1521 43.0677 23.7392C44.1335 24.3361 45.1149 24.9863 45.9914 25.6721C46.8535 26.345 47.625 27.0648 48.2851 27.8023C48.9469 28.5383 49.5179 29.3179 49.9919 30.1137C50.458 30.8982 50.8382 31.728 51.1229 32.5691C51.4045 33.4004 51.5985 34.2723 51.7035 35.1506C51.8069 36.0208 51.8276 36.9249 51.7592 37.8404C51.686 38.7462 51.5333 39.6795 51.2947 40.6063C51.0609 41.5235 50.7348 42.4745 50.3308 43.4353L49.5179 43.1183C49.5179 43.1183 49.6515 42.6767 49.5815 41.9456C49.5068 41.2275 49.2252 40.0904 48.2517 38.7592C47.7332 38.0426 47.0349 37.3245 46.1823 36.6079C45.1801 35.7749 43.9521 34.9451 42.5301 34.1526C41.749 33.7126 40.8789 33.2678 39.942 32.8327C38.9478 32.3701 37.8725 31.9124 36.7416 31.4692C35.5358 31.0017 34.2315 30.5294 32.8619 30.0814C31.6196 29.6705 30.2866 29.2613 28.8884 28.8618C28.9536 29.5072 29.0824 30.607 29.3004 31.9803C29.504 33.2678 29.7505 34.5634 30.0368 35.8331C30.3757 37.3649 30.767 38.8303 31.2028 40.1971C31.7023 41.7645 32.259 43.1976 32.8555 44.4511C33.5236 45.8518 34.2537 47.065 35.0205 48.0565C35.8619 49.1289 36.7766 49.9878 37.7357 50.6105C38.7665 51.2656 39.8927 51.6764 41.0794 51.8284L41.1621 52.6857C41.1382 52.6906 40.5194 52.8944 39.503 53.0626C38.609 53.2098 37.6976 53.2842 36.7877 53.2842Z" fill="#706F6F"/>
<path fill-rule="evenodd" clip-rule="evenodd" d="M26.8659 70.9983C27.8638 71.0124 28.7805 70.9389 29.624 70.8153C31.311 70.5651 32.7131 70.0897 33.8446 69.5501C36.1125 68.4664 37.2695 67.2059 37.2695 67.2059C36.2207 67.6828 35.0971 67.9909 33.9337 68.1473C32.7751 68.3053 31.5688 68.3162 30.3433 68.213C29.1195 68.1051 27.8749 67.8877 26.6399 67.5781C25.4081 67.2747 24.1859 66.8774 23.0209 66.4317C21.8496 65.9876 20.7355 65.4934 19.717 65.0008C18.7032 64.5066 17.7833 64.014 17.0114 63.5698C15.4741 62.6831 14.5192 62.0341 14.5192 62.0341C15.6109 61.6635 16.6693 61.3194 17.6958 61.0004C18.7287 60.6813 19.7313 60.3858 20.7037 60.1168C21.6745 59.8431 22.6103 59.5991 23.5047 59.3849C24.4023 59.1612 25.2554 58.9673 26.0702 58.7937C27.6967 58.4559 29.1306 58.2323 30.3815 58.1072C31.634 57.9727 32.694 57.9367 33.5836 57.9617C37.139 58.0509 38 59.3333 38 59.3333C37.3666 58.0352 36.4897 56.9171 35.3693 55.985C34.2473 55.0498 32.877 54.3132 31.2982 53.8065C30.5057 53.5516 29.6606 53.3576 28.7678 53.2216C27.8797 53.084 26.9487 53.0152 25.9731 53.0011C24.9991 52.9917 23.9933 53.0433 22.962 53.1575C21.9291 53.2654 20.8724 53.4358 19.7997 53.6736C18.7287 53.9066 17.5685 54.199 16.3844 54.5087C15.194 54.8277 13.9749 55.1655 12.7781 55.5096C11.5813 55.8567 10.4115 56.2008 9.30703 56.5276C8.19617 56.8576 7.15534 57.1688 6.21954 57.4503C4.34318 58.0118 2.77397 58.495 1.69812 58.8297C0.622273 59.1659 0 59.3677 0 59.3677C0 59.3677 0.857813 60.0167 2.29652 61.0191C3.01746 61.5196 3.8896 62.1045 4.8811 62.7331C5.87419 63.3571 6.98027 64.0312 8.17548 64.7068C9.36592 65.3777 10.6407 66.047 11.9553 66.6804C13.2698 67.3153 14.6194 67.9096 15.969 68.4382C17.3186 68.9715 18.6586 69.4328 19.9493 69.8191C21.2416 70.1976 22.4862 70.4963 23.6448 70.6918C24.8034 70.8873 25.8744 70.9842 26.8659 70.9983Z" fill="#3E6E00"/>
<path fill-rule="evenodd" clip-rule="evenodd" d="M45.4446 75.5863C46.1782 74.2753 45.9738 73.3492 45.9738 73.3492C45.5853 73.9627 45.0091 74.5375 44.2939 75.0653C43.5905 75.593 42.7447 76.0771 41.8202 76.5107C40.9007 76.9494 39.8974 77.3292 38.859 77.6637C37.8239 77.9948 36.762 78.2738 35.7219 78.5024C34.6751 78.7225 33.6551 78.9108 32.7105 79.0503C31.7625 79.1881 30.8933 79.2906 30.1547 79.3629C28.6707 79.5007 27.7077 79.5377 27.7077 79.5377C28.3073 78.5225 28.942 77.6015 29.612 76.7544C30.2819 75.909 30.9871 75.1543 31.7022 74.4652C32.4191 73.7728 33.1326 73.1929 33.8293 72.7021C34.5194 72.2063 35.1927 71.7979 35.8208 71.4601C38.3414 70.1239 39.9912 70.2432 39.9912 70.2432C38.5073 70.0214 37.0049 69.9558 35.5277 70.0281C34.0471 70.1054 32.6017 70.3256 31.2433 70.6853C29.8833 71.0533 28.6272 71.5475 27.51 72.1794C26.3962 72.8064 25.4282 73.5526 24.6326 74.4165C23.8387 75.2753 23.0599 76.3023 22.3682 77.3141C21.6731 78.3292 21.0618 79.3242 20.5744 80.1478C19.5979 81.7966 19 82.9966 19 82.9966C19 82.9966 19.824 83.0101 21.169 82.9832C21.8423 82.9748 22.6529 82.9445 23.5557 82.8992C24.4601 82.8521 25.46 82.7882 26.5168 82.6958C27.577 82.5983 28.7025 82.4756 29.8448 82.3075C30.9887 82.1462 32.1545 81.9411 33.295 81.7058C34.4423 81.4705 35.5628 81.1983 36.623 80.8991C37.6782 80.605 38.6731 80.2738 39.5624 79.9243C41.3395 79.2268 42.6274 78.4738 43.562 77.7225C44.5033 76.9762 45.0862 76.2451 45.4446 75.5863Z" fill="#3E6E00"/>
<path fill-rule="evenodd" clip-rule="evenodd" d="M59.8173 71C60.2815 71.7788 59.8928 72.9398 59.0619 74.1892C58.2347 75.4421 56.9764 76.769 55.6813 77.93C54.388 79.091 53.0486 80.1204 52.028 80.8488C51.0147 81.5789 50.322 82.0224 50.322 82.0224C49.165 80.7893 48.5847 79.6247 48.3894 78.5484C48.1923 77.4775 48.4226 76.531 48.8352 75.7342C49.6606 74.1423 51.1934 73.3761 51.1934 73.3761C49.7067 74.0287 48.3894 74.7066 47.2674 75.3917C46.1473 76.0695 45.2243 76.7672 44.539 77.4559C43.1646 78.8278 42.693 80.1908 43.1959 81.4671C43.4483 82.1017 43.8831 82.7886 44.3787 83.4448C44.8761 84.1065 45.4251 84.7338 45.9207 85.2513C46.9027 86.2861 47.728 87 47.728 87C47.728 87 48.2881 86.6484 49.1963 86.0589C50.0991 85.4568 51.3445 84.604 52.7078 83.5927C53.3931 83.0897 54.1079 82.5272 54.8375 81.9359C55.5578 81.3518 56.2782 80.7298 56.9764 80.0916C58.371 78.8206 59.6422 77.5046 60.5413 76.3219C62.3357 73.9584 62.2031 72.6207 61.5785 71.8672C60.9558 71.1118 59.8173 71 59.8173 71Z" fill="#3E6E00"/>
<path fill-rule="evenodd" clip-rule="evenodd" d="M219.385 73.7612C219.317 73.7532 219.229 73.7452 219.124 73.7452C219.018 73.7452 218.937 73.7532 218.863 73.7612C218.796 73.7708 218.736 73.7853 218.689 73.8126C218.641 73.8383 218.604 73.8672 218.578 73.9041C218.549 73.9491 218.532 73.9989 218.513 74.0663L217.051 81.1114C217.038 81.1387 217.038 81.1676 217.046 81.1869C217.053 81.2126 217.076 81.2367 217.102 81.2527C217.128 81.2704 217.166 81.2816 217.218 81.2881C217.267 81.2977 217.335 81.3009 217.422 81.3009C217.502 81.3009 217.572 81.2977 217.627 81.2881C217.686 81.2816 217.738 81.2704 217.779 81.2527C217.813 81.2367 217.847 81.2126 217.87 81.1869C217.893 81.1676 217.906 81.1387 217.911 81.1114L219.582 74.0663C219.6 74.0021 219.602 73.9587 219.6 73.9122C219.591 73.8736 219.568 73.8415 219.535 73.8158C219.499 73.7853 219.449 73.7708 219.385 73.7612ZM217.696 82.3624C217.655 82.3303 217.588 82.3078 217.511 82.2885C217.438 82.2693 217.335 82.2661 217.211 82.2661C217.063 82.2661 216.944 82.2757 216.854 82.295C216.771 82.3191 216.686 82.3624 216.622 82.4218C216.57 82.462 216.531 82.5246 216.495 82.6033C216.456 82.6772 216.43 82.7607 216.407 82.8394C216.379 82.9293 216.365 83.0096 216.357 83.0851C216.342 83.1686 216.339 83.236 216.339 83.2874C216.339 83.3452 216.345 83.4062 216.363 83.448C216.378 83.4962 216.407 83.5283 216.448 83.5588C216.487 83.5909 216.544 83.6102 216.622 83.623C216.693 83.6391 216.786 83.6471 216.898 83.6471C217.047 83.6471 217.172 83.6311 217.272 83.607C217.365 83.5765 217.448 83.5379 217.51 83.4705C217.559 83.4352 217.596 83.3806 217.634 83.3051C217.666 83.236 217.7 83.1589 217.72 83.0738C217.748 82.9935 217.762 82.9116 217.779 82.8313C217.792 82.751 217.798 82.6852 217.798 82.6242C217.798 82.5712 217.792 82.5182 217.779 82.4748C217.762 82.4315 217.738 82.3913 217.696 82.3624ZM213.522 78.8021C213.418 78.9611 213.238 79.1008 212.984 79.2197C212.728 79.3417 212.39 79.4365 211.97 79.5023C211.546 79.5714 211.011 79.6051 210.373 79.6051H209.483C209.587 79.3144 209.719 79.0366 209.879 78.77C210.04 78.5018 210.236 78.2658 210.468 78.0634C210.696 77.8611 210.967 77.7037 211.267 77.5833C211.568 77.4628 211.913 77.4018 212.296 77.4018C212.738 77.4018 213.077 77.4869 213.315 77.6539C213.555 77.8161 213.676 78.0393 213.676 78.3139C213.676 78.4826 213.628 78.6464 213.522 78.8021ZM214.162 77.1882C213.977 77.0421 213.738 76.9152 213.444 76.8156C213.149 76.7177 212.792 76.6727 212.374 76.6727C211.862 76.6727 211.404 76.7434 210.994 76.8895C210.592 77.0356 210.231 77.23 209.923 77.4692C209.611 77.7165 209.344 77.9944 209.121 78.3204C208.896 78.6351 208.71 78.9643 208.573 79.3192C208.429 79.6629 208.326 80.0146 208.256 80.3679C208.191 80.7196 208.155 81.0456 208.155 81.3555C208.155 81.749 208.212 82.0942 208.326 82.3913C208.441 82.6852 208.61 82.9357 208.837 83.1268C209.062 83.3276 209.352 83.4705 209.691 83.5685C210.035 83.6664 210.437 83.7194 210.892 83.7194C211.135 83.7194 211.389 83.7033 211.639 83.676C211.89 83.6471 212.125 83.6102 212.34 83.5668C212.555 83.5219 212.738 83.4737 212.896 83.4191C213.054 83.3661 213.165 83.3051 213.227 83.2489C213.263 83.2184 213.297 83.1766 213.327 83.1252C213.353 83.0738 213.374 83.0241 213.389 82.9743C213.405 82.9261 213.418 82.8763 213.426 82.8297C213.431 82.7864 213.437 82.7462 213.437 82.7189C213.437 82.6707 213.429 82.629 213.408 82.6017C213.389 82.5712 213.361 82.5519 213.315 82.5519C213.279 82.5519 213.194 82.5776 213.069 82.6226C212.951 82.6659 212.795 82.7093 212.596 82.7687C212.404 82.8185 212.172 82.8715 211.906 82.9116C211.639 82.9566 211.335 82.9855 210.994 82.9855C210.35 82.9855 209.884 82.8378 209.597 82.5519C209.313 82.2661 209.166 81.8566 209.166 81.3298C209.166 81.1773 209.174 81.0199 209.192 80.8448C209.207 80.6714 209.235 80.4931 209.276 80.3117H210.19C210.993 80.3117 211.674 80.2635 212.244 80.1639C212.806 80.066 213.279 79.9279 213.636 79.7432C214 79.5649 214.269 79.3417 214.439 79.0864C214.603 78.8278 214.687 78.5388 214.687 78.2176C214.687 78.0506 214.648 77.8787 214.569 77.6909C214.484 77.5094 214.349 77.3392 214.162 77.1882ZM207.632 76.7819H205.626L205.981 75.1856C205.984 75.1535 205.981 75.131 205.978 75.107C205.963 75.0829 205.945 75.0636 205.914 75.0475C205.883 75.0299 205.836 75.017 205.777 75.0122C205.719 74.9994 205.64 74.9978 205.552 74.9978C205.451 74.9978 205.375 74.9994 205.317 75.0122C205.254 75.017 205.205 75.0299 205.164 75.0475C205.122 75.0636 205.094 75.0829 205.074 75.107C205.05 75.131 205.039 75.1535 205.03 75.1856L204.672 76.7819H203.589C203.528 76.7819 203.481 76.798 203.44 76.8285C203.393 76.8622 203.36 76.9024 203.329 76.9521C203.307 77.0067 203.282 77.0597 203.274 77.1208C203.264 77.1834 203.258 77.2492 203.258 77.3151C203.258 77.3922 203.272 77.4468 203.305 77.4692C203.329 77.5014 203.373 77.5142 203.424 77.5142H204.509L203.638 81.4374C203.62 81.5033 203.603 81.5723 203.594 81.6542C203.579 81.7281 203.569 81.8036 203.548 81.8806C203.538 81.9529 203.528 82.0284 203.525 82.0942C203.515 82.1633 203.515 82.2307 203.515 82.2853C203.515 82.531 203.548 82.7382 203.616 82.9197C203.682 83.0979 203.786 83.2441 203.923 83.3661C204.067 83.4817 204.236 83.5668 204.447 83.6214C204.655 83.676 204.902 83.7033 205.192 83.7033C205.288 83.7033 205.404 83.6985 205.513 83.6841C205.626 83.6664 205.735 83.6471 205.841 83.623C205.942 83.6006 206.035 83.5765 206.112 83.546C206.193 83.5155 206.252 83.4833 206.294 83.4512C206.322 83.4207 206.355 83.3886 206.374 83.3452C206.4 83.3051 206.42 83.2633 206.438 83.2119C206.449 83.1622 206.464 83.1108 206.475 83.0562C206.488 83.0032 206.492 82.9502 206.492 82.9036C206.492 82.8394 206.482 82.804 206.454 82.7719C206.431 82.751 206.397 82.7382 206.356 82.7382C206.314 82.7382 206.26 82.751 206.2 82.7719C206.136 82.804 206.064 82.8249 205.981 82.8538C205.892 82.8843 205.795 82.91 205.678 82.9357C205.56 82.9566 205.428 82.9711 205.282 82.9711C204.995 82.9711 204.797 82.9036 204.675 82.7767C204.556 82.6499 204.494 82.4523 204.494 82.1777C204.494 82.0878 204.507 81.9738 204.523 81.826C204.544 81.6879 204.562 81.5611 204.582 81.4519L205.461 77.5142H207.472C207.508 77.5142 207.548 77.5014 207.576 77.4933C207.606 77.4757 207.637 77.458 207.661 77.4371C207.682 77.4066 207.708 77.3761 207.731 77.344C207.746 77.3151 207.769 77.2765 207.783 77.2412C207.795 77.2059 207.801 77.1673 207.806 77.1288C207.814 77.0935 207.814 77.0517 207.814 77.0164C207.814 76.9666 207.803 76.9152 207.783 76.8622C207.756 76.8108 207.708 76.7819 207.632 76.7819ZM201.348 76.9602C201.235 76.9023 201.097 76.8542 200.947 76.8124C200.792 76.7675 200.627 76.7321 200.443 76.708C200.262 76.6807 200.078 76.6727 199.888 76.6727C199.494 76.6727 199.13 76.7177 198.796 76.8253C198.463 76.928 198.174 77.0726 197.936 77.2589C197.693 77.4468 197.506 77.67 197.377 77.9317C197.238 78.1871 197.17 78.4729 197.17 78.7797C197.17 79.08 197.246 79.3289 197.388 79.5248C197.53 79.7191 197.714 79.8797 197.936 80.0226C198.152 80.1559 198.385 80.2747 198.642 80.3791C198.898 80.4771 199.135 80.5847 199.353 80.6939C199.572 80.8047 199.755 80.93 199.9 81.0697C200.043 81.2078 200.117 81.3892 200.117 81.6076C200.117 81.7939 200.078 81.9625 200.004 82.1231C199.931 82.2885 199.812 82.4315 199.655 82.5599C199.5 82.6852 199.298 82.7864 199.053 82.857C198.817 82.9357 198.533 82.9711 198.199 82.9711C197.866 82.9711 197.589 82.9357 197.362 82.8683C197.134 82.804 196.953 82.7302 196.806 82.6483C196.663 82.5712 196.543 82.4973 196.452 82.4315C196.358 82.3624 196.279 82.3303 196.216 82.3303C196.191 82.3303 196.164 82.3351 196.137 82.3544C196.115 82.372 196.093 82.3961 196.072 82.4218C196.049 82.4604 196.033 82.4925 196.013 82.531C196.002 82.5712 195.984 82.6081 195.974 82.6563C195.958 82.6948 195.951 82.7382 195.94 82.7816C195.938 82.8249 195.93 82.8683 195.93 82.9036C195.93 82.9566 195.942 83.0032 195.963 83.0401C195.982 83.0787 196.01 83.1204 196.053 83.1573C196.126 83.2184 196.222 83.281 196.351 83.35C196.478 83.4191 196.635 83.4769 196.811 83.5283C196.989 83.5845 197.183 83.6279 197.398 83.6648C197.615 83.7001 197.85 83.7194 198.094 83.7194C198.549 83.7194 198.96 83.6648 199.337 83.5524C199.706 83.4384 200.022 83.2794 200.29 83.0738C200.554 82.8763 200.759 82.6402 200.899 82.3624C201.04 82.083 201.111 81.7859 201.111 81.4583C201.111 81.1628 201.04 80.9139 200.893 80.7196C200.749 80.5237 200.564 80.355 200.348 80.2185C200.13 80.0772 199.888 79.96 199.639 79.8604C199.384 79.7609 199.146 79.6533 198.926 79.5473C198.709 79.4365 198.527 79.3112 198.377 79.1699C198.238 79.0302 198.165 78.8551 198.165 78.6464C198.165 78.4826 198.199 78.33 198.272 78.1758C198.339 78.0265 198.445 77.8916 198.579 77.776C198.716 77.6603 198.882 77.5624 199.091 77.4933C199.291 77.4291 199.525 77.3922 199.786 77.3922C200.042 77.3922 200.252 77.413 200.431 77.458C200.608 77.5094 200.766 77.5624 200.893 77.6234C201.017 77.6828 201.118 77.739 201.206 77.784C201.286 77.8354 201.358 77.8563 201.423 77.8563C201.459 77.8563 201.496 77.8434 201.532 77.8017C201.567 77.7583 201.593 77.7165 201.625 77.6603C201.651 77.6025 201.669 77.5495 201.686 77.4869C201.7 77.4291 201.703 77.3761 201.703 77.3311C201.703 77.2412 201.676 77.1689 201.617 77.1208C201.555 77.0694 201.467 77.0164 201.348 76.9602ZM193.737 79.8138C193.626 80.2796 193.468 80.7051 193.251 81.0938C193.037 81.4776 192.788 81.8116 192.506 82.0942C192.223 82.3753 191.917 82.5953 191.594 82.751C191.269 82.9036 190.943 82.9855 190.622 82.9855C190.354 82.9855 190.139 82.9357 189.973 82.8313C189.808 82.7382 189.679 82.6081 189.585 82.4604C189.488 82.3078 189.426 82.136 189.395 81.9481C189.361 81.7602 189.343 81.5723 189.343 81.3941C189.343 81.1773 189.369 80.9283 189.41 80.6457C189.454 80.355 189.518 80.0708 189.609 79.7769C189.705 79.4814 189.818 79.194 189.961 78.9081C190.102 78.6223 190.275 78.3734 190.47 78.1501C190.668 77.9253 190.896 77.7454 191.157 77.6073C191.416 77.4692 191.705 77.4018 192.024 77.4018C192.427 77.4018 192.789 77.4965 193.117 77.6828C193.435 77.8643 193.745 78.1437 194.032 78.5131L193.737 79.8138ZM195.265 76.7915C195.236 76.7819 195.192 76.7658 195.141 76.7594C195.09 76.7546 195.019 76.7482 194.94 76.7482C194.785 76.7482 194.67 76.7642 194.59 76.7915C194.511 76.8188 194.463 76.867 194.446 76.9345L194.28 77.6443C194.008 77.3392 193.706 77.1079 193.37 76.9281C193.031 76.7594 192.61 76.6727 192.111 76.6727C191.638 76.6727 191.216 76.7546 190.84 76.9168C190.47 77.0806 190.146 77.2974 189.864 77.572C189.585 77.8434 189.343 78.1501 189.157 78.4906C188.96 78.8326 188.803 79.1779 188.678 79.5264C188.561 79.8797 188.472 80.2298 188.417 80.5606C188.365 80.8946 188.339 81.1853 188.339 81.4374C188.339 81.7088 188.366 81.9818 188.424 82.2532C188.482 82.5246 188.593 82.7687 188.75 82.9903C188.914 83.2055 189.131 83.3854 189.41 83.5154C189.689 83.6471 190.045 83.7194 190.482 83.7194C190.796 83.7194 191.113 83.6648 191.424 83.5572C191.736 83.448 192.018 83.3147 192.269 83.1509C192.523 82.9935 192.742 82.8169 192.921 82.637C193.109 82.4443 193.236 82.2693 193.3 82.1119L193.005 83.4512C192.992 83.4833 192.992 83.5154 193.005 83.5379C193.019 83.5604 193.037 83.5845 193.07 83.6006C193.102 83.6102 193.143 83.6214 193.192 83.6279C193.246 83.6391 193.306 83.6391 193.389 83.6391C193.557 83.6391 193.675 83.623 193.745 83.6006C193.818 83.5668 193.854 83.5203 193.872 83.4512L195.325 76.9345C195.327 76.9023 195.327 76.8799 195.317 76.8542C195.312 76.8349 195.294 76.8124 195.265 76.7915ZM187.76 76.7819H185.755L186.109 75.1856C186.116 75.1535 186.116 75.131 186.109 75.107C186.098 75.0829 186.078 75.0636 186.042 75.0475C186.013 75.0299 185.967 75.017 185.91 75.0122C185.852 74.9994 185.778 74.9978 185.687 74.9978C185.587 74.9978 185.511 74.9994 185.447 75.0122C185.384 75.017 185.336 75.0299 185.296 75.0475C185.25 75.0636 185.225 75.0829 185.203 75.107C185.18 75.131 185.17 75.1535 185.165 75.1856L184.8 76.7819H183.719C183.663 76.7819 183.611 76.798 183.567 76.8285C183.523 76.8622 183.49 76.9024 183.461 76.9521C183.435 77.0067 183.417 77.0597 183.405 77.1208C183.394 77.1834 183.387 77.2492 183.387 77.3151C183.387 77.3922 183.405 77.4468 183.435 77.4692C183.461 77.5014 183.503 77.5142 183.557 77.5142H184.643L183.766 81.4374C183.749 81.5033 183.738 81.5723 183.723 81.6542C183.709 81.7281 183.696 81.8036 183.684 81.8806C183.67 81.9529 183.663 82.0284 183.657 82.0942C183.647 82.1633 183.645 82.2307 183.645 82.2853C183.645 82.531 183.679 82.7382 183.748 82.9197C183.813 83.0979 183.921 83.2441 184.059 83.3661C184.196 83.4817 184.363 83.5668 184.575 83.6214C184.785 83.676 185.038 83.7033 185.322 83.7033C185.424 83.7033 185.534 83.6985 185.643 83.6841C185.755 83.6664 185.863 83.6471 185.972 83.623C186.073 83.6006 186.165 83.5765 186.246 83.546C186.329 83.5155 186.385 83.4833 186.422 83.4512C186.455 83.4207 186.483 83.3886 186.507 83.3452C186.532 83.3051 186.55 83.2633 186.569 83.2119C186.584 83.1622 186.595 83.1108 186.608 83.0562C186.617 83.0032 186.626 82.9502 186.626 82.9036C186.626 82.8394 186.61 82.804 186.586 82.7719C186.561 82.751 186.532 82.7382 186.484 82.7382C186.445 82.7382 186.393 82.751 186.334 82.7719C186.269 82.804 186.197 82.8249 186.109 82.8538C186.023 82.8843 185.922 82.91 185.808 82.9357C185.692 82.9566 185.56 82.9711 185.415 82.9711C185.129 82.9711 184.929 82.9036 184.81 82.7767C184.686 82.6499 184.622 82.4523 184.622 82.1777C184.622 82.0878 184.637 81.9738 184.651 81.826C184.674 81.6879 184.694 81.5611 184.715 81.4519L185.596 77.5142H187.605C187.642 77.5142 187.673 77.5014 187.703 77.4933C187.742 77.4757 187.768 77.458 187.789 77.4371C187.814 77.4066 187.835 77.3761 187.861 77.344C187.882 77.3151 187.898 77.2765 187.915 77.2412C187.923 77.2059 187.934 77.1673 187.939 77.1288C187.946 77.0935 187.947 77.0517 187.947 77.0164C187.947 76.9666 187.938 76.9152 187.915 76.8622C187.889 76.8108 187.835 76.7819 187.76 76.7819ZM180.165 73.7452C180.132 73.7179 180.072 73.6905 179.989 73.6584C179.904 73.6327 179.804 73.607 179.702 73.583C179.592 73.5621 179.48 73.5508 179.354 73.5332C179.23 73.5235 179.118 73.5155 179.017 73.5155C178.686 73.5155 178.381 73.5621 178.104 73.6488C177.825 73.7355 177.573 73.8736 177.358 74.0615C177.138 74.2462 176.952 74.4806 176.796 74.7633C176.642 75.0475 176.517 75.388 176.437 75.7766L176.21 76.7819H175.124C175.086 76.7819 175.047 76.7915 175.018 76.8092C174.985 76.8253 174.959 76.8494 174.932 76.8734C174.907 76.9024 174.886 76.9281 174.866 76.973C174.856 77.0067 174.842 77.0421 174.83 77.0806C174.819 77.1208 174.811 77.1657 174.804 77.2059C174.803 77.2492 174.796 77.2878 174.796 77.3279C174.796 77.397 174.811 77.4468 174.842 77.4692C174.861 77.5014 174.907 77.5142 174.959 77.5142H176.052L174.675 83.6648C174.607 83.9796 174.529 84.2526 174.439 84.4822C174.356 84.7102 174.243 84.9014 174.118 85.0475C173.989 85.2017 173.831 85.3108 173.648 85.3799C173.469 85.4522 173.255 85.4891 172.999 85.4891C172.913 85.4891 172.833 85.4827 172.776 85.4795C172.715 85.473 172.665 85.465 172.621 85.4554C172.581 85.449 172.539 85.4393 172.505 85.4345C172.469 85.4313 172.438 85.4265 172.397 85.4265C172.368 85.4265 172.342 85.4345 172.314 85.4522C172.296 85.4746 172.275 85.4955 172.259 85.5309C172.241 85.5662 172.223 85.6031 172.21 85.6433C172.195 85.6802 172.184 85.7171 172.182 85.7509C172.169 85.7894 172.164 85.8231 172.156 85.852C172.149 85.8826 172.146 85.9066 172.146 85.9211C172.146 85.9564 172.149 85.9918 172.164 86.0158C172.169 86.0431 172.184 86.0688 172.203 86.0929C172.241 86.1154 172.321 86.1491 172.449 86.1781C172.583 86.207 172.758 86.223 172.981 86.223C173.32 86.223 173.632 86.1781 173.907 86.0929C174.183 86.0014 174.432 85.8649 174.648 85.6802C174.861 85.4891 175.049 85.2498 175.202 84.9527C175.354 84.6653 175.478 84.312 175.569 83.9073L176.996 77.5142H178.784C178.811 77.5142 178.837 77.5046 178.867 77.4933C178.899 77.4837 178.924 77.4628 178.947 77.4419C178.974 77.4211 178.994 77.397 179.017 77.3665C179.04 77.3311 179.058 77.2942 179.072 77.2589C179.09 77.2235 179.103 77.1834 179.111 77.1336C179.118 77.0886 179.121 77.0356 179.121 76.9859C179.121 76.912 179.103 76.8622 179.072 76.8285C179.04 76.798 178.997 76.7819 178.947 76.7819H177.164L177.306 76.0817C177.379 75.767 177.456 75.4956 177.546 75.2643C177.632 75.0347 177.741 74.8452 177.874 74.6926C178.006 74.5417 178.162 74.4293 178.348 74.357C178.532 74.2896 178.759 74.251 179.017 74.251C179.157 74.251 179.279 74.2622 179.392 74.2831C179.5 74.304 179.596 74.3265 179.682 74.349C179.764 74.3731 179.832 74.3988 179.888 74.4196C179.951 74.4405 179.997 74.4485 180.038 74.4485C180.064 74.4485 180.085 74.4405 180.108 74.4196C180.139 74.3988 180.158 74.3731 180.175 74.3393C180.191 74.3088 180.204 74.2719 180.214 74.2366C180.219 74.2012 180.23 74.1579 180.237 74.1225C180.243 74.0856 180.25 74.0567 180.25 74.031C180.251 74.0021 180.251 73.9828 180.251 73.97C180.251 73.933 180.25 73.8881 180.233 73.8479C180.219 73.8062 180.197 73.7708 180.165 73.7452ZM172.038 80.0242C171.983 80.3293 171.903 80.62 171.792 80.9075C171.683 81.1917 171.541 81.4615 171.371 81.7088C171.207 81.9577 171.008 82.1777 170.784 82.3656C170.554 82.5519 170.3 82.7013 170.01 82.804C169.726 82.9116 169.408 82.9711 169.051 82.9711C168.72 82.9711 168.429 82.9357 168.191 82.849C167.96 82.7719 167.769 82.6579 167.619 82.5134C167.472 82.3656 167.368 82.1842 167.299 81.9786C167.234 81.7602 167.208 81.5257 167.208 81.264C167.208 80.9669 167.234 80.6634 167.284 80.355C167.338 80.0531 167.423 79.7609 167.534 79.4718C167.642 79.1875 167.78 78.9178 167.947 78.6721C168.119 78.4199 168.312 78.2047 168.537 78.0184C168.767 77.8354 169.025 77.6892 169.313 77.5768C169.6 77.4692 169.917 77.4195 170.272 77.4195C170.607 77.4195 170.895 77.458 171.13 77.5383C171.363 77.617 171.557 77.7262 171.706 77.8787C171.849 78.0233 171.957 78.2015 172.02 78.4135C172.084 78.6207 172.118 78.8599 172.118 79.1233C172.118 79.4268 172.092 79.7255 172.038 80.0242ZM173.014 80.1768C173.09 79.8058 173.128 79.4413 173.128 79.08C173.128 78.7074 173.077 78.3685 172.973 78.0731C172.868 77.776 172.702 77.5222 172.479 77.3167C172.255 77.1063 171.965 76.9441 171.613 76.8349C171.264 76.7225 170.841 76.6727 170.341 76.6727C169.878 76.6727 169.453 76.7321 169.069 76.8622C168.682 76.9955 168.336 77.1673 168.03 77.3922C167.718 77.6138 167.452 77.8707 167.226 78.1758C166.993 78.4745 166.802 78.7989 166.652 79.1394C166.494 79.4814 166.383 79.8347 166.308 80.2057C166.233 80.5734 166.197 80.938 166.197 81.3009C166.197 81.6719 166.246 82.0107 166.348 82.3142C166.454 82.6081 166.622 82.8635 166.847 83.0738C167.069 83.281 167.359 83.4416 167.708 83.5524C168.057 83.6648 168.483 83.7194 168.979 83.7194C169.444 83.7194 169.869 83.6536 170.254 83.5219C170.639 83.395 170.985 83.2184 171.291 82.9935C171.601 82.7719 171.87 82.5134 172.099 82.2082C172.33 81.9047 172.524 81.5868 172.678 81.2463C172.824 80.8978 172.94 80.5429 173.014 80.1768ZM160.125 78.8021C160.021 78.9611 159.84 79.1008 159.587 79.2197C159.331 79.3417 158.996 79.4365 158.572 79.5023C158.153 79.5714 157.618 79.6051 156.978 79.6051H156.089C156.19 79.3144 156.32 79.0366 156.485 78.77C156.646 78.5018 156.844 78.2658 157.072 78.0634C157.304 77.8611 157.568 77.7037 157.87 77.5833C158.173 77.4628 158.517 77.4018 158.899 77.4018C159.341 77.4018 159.678 77.4869 159.923 77.6539C160.159 77.8161 160.28 78.0393 160.28 78.3139C160.28 78.4826 160.231 78.6464 160.125 78.8021ZM160.771 77.1882C160.58 77.0421 160.344 76.9152 160.057 76.8156C159.755 76.7177 159.396 76.6727 158.972 76.6727C158.465 76.6727 158.008 76.7434 157.604 76.8895C157.198 77.0356 156.834 77.23 156.532 77.4692C156.218 77.7165 155.948 77.9944 155.73 78.3204C155.5 78.6351 155.317 78.9643 155.175 79.3192C155.032 79.6629 154.932 80.0146 154.862 80.3679C154.799 80.7196 154.763 81.0456 154.763 81.3555C154.763 81.749 154.817 82.0942 154.932 82.3913C155.043 82.6852 155.21 82.9357 155.441 83.1268C155.671 83.3276 155.955 83.4705 156.294 83.5685C156.635 83.6664 157.039 83.7194 157.494 83.7194C157.739 83.7194 157.99 83.7033 158.243 83.676C158.497 83.6471 158.731 83.6102 158.944 83.5668C159.155 83.5219 159.341 83.4737 159.499 83.4191C159.659 83.3661 159.766 83.3051 159.833 83.2489C159.876 83.2184 159.9 83.1766 159.929 83.1252C159.96 83.0738 159.975 83.0241 159.991 82.9743C160.011 82.9261 160.021 82.8763 160.03 82.8297C160.034 82.7864 160.04 82.7462 160.04 82.7189C160.04 82.6707 160.03 82.629 160.013 82.6017C159.993 82.5712 159.965 82.5519 159.923 82.5519C159.884 82.5519 159.801 82.5776 159.673 82.6226C159.556 82.6659 159.399 82.7093 159.204 82.7687C159.008 82.8185 158.775 82.8715 158.509 82.9116C158.243 82.9566 157.938 82.9855 157.604 82.9855C156.961 82.9855 156.49 82.8378 156.204 82.5519C155.914 82.2661 155.776 81.8566 155.776 81.3298C155.776 81.1773 155.785 81.0199 155.798 80.8448C155.813 80.6714 155.838 80.4931 155.878 80.3117H156.798C157.599 80.3117 158.281 80.2635 158.846 80.1639C159.414 80.066 159.884 79.9279 160.239 79.7432C160.608 79.5649 160.872 79.3417 161.04 79.0864C161.211 78.8278 161.293 78.5388 161.293 78.2176C161.293 78.0506 161.254 77.8787 161.169 77.6909C161.089 77.5094 160.954 77.3392 160.771 77.1882ZM153.284 76.9602C153.165 76.9023 153.031 76.8542 152.874 76.8124C152.724 76.7675 152.558 76.7321 152.372 76.708C152.193 76.6807 152.01 76.6727 151.819 76.6727C151.428 76.6727 151.058 76.7177 150.723 76.8253C150.392 76.928 150.105 77.0726 149.864 77.2589C149.626 77.4468 149.433 77.67 149.304 77.9317C149.169 78.1871 149.101 78.4729 149.101 78.7797C149.101 79.08 149.177 79.3289 149.317 79.5248C149.464 79.7191 149.645 79.8797 149.864 80.0226C150.082 80.1559 150.32 80.2747 150.575 80.3791C150.829 80.4771 151.067 80.5847 151.287 80.6939C151.506 80.8047 151.685 80.93 151.829 81.0697C151.974 81.2078 152.047 81.3892 152.047 81.6076C152.047 81.7939 152.01 81.9625 151.937 82.1231C151.86 82.2885 151.746 82.4315 151.584 82.5599C151.428 82.6852 151.232 82.7864 150.989 82.857C150.749 82.9357 150.457 82.9711 150.126 82.9711C149.799 82.9711 149.52 82.9357 149.295 82.8683C149.07 82.804 148.887 82.7302 148.74 82.6483C148.59 82.5712 148.469 82.4973 148.381 82.4315C148.29 82.3624 148.21 82.3303 148.148 82.3303C148.119 82.3303 148.094 82.3351 148.071 82.3544C148.047 82.372 148.026 82.3961 148.003 82.4218C147.982 82.4604 147.964 82.4925 147.946 82.531C147.933 82.5712 147.917 82.6081 147.905 82.6563C147.89 82.6948 147.876 82.7382 147.871 82.7816C147.868 82.8249 147.866 82.8683 147.866 82.9036C147.866 82.9566 147.872 83.0032 147.897 83.0401C147.915 83.0787 147.944 83.1204 147.987 83.1573C148.062 83.2184 148.156 83.281 148.282 83.35C148.409 83.4191 148.564 83.4769 148.747 83.5283C148.921 83.5845 149.114 83.6279 149.334 83.6648C149.549 83.7001 149.776 83.7194 150.028 83.7194C150.479 83.7194 150.894 83.6648 151.263 83.5524C151.636 83.4384 151.955 83.2794 152.222 83.0738C152.486 82.8763 152.687 82.6402 152.832 82.3624C152.971 82.083 153.044 81.7859 153.044 81.4583C153.044 81.1628 152.971 80.9139 152.825 80.7196C152.68 80.5237 152.494 80.355 152.281 80.2185C152.061 80.0772 151.819 79.96 151.57 79.8604C151.317 79.7609 151.079 79.6533 150.86 79.5473C150.638 79.4365 150.457 79.3112 150.312 79.1699C150.167 79.0302 150.099 78.8551 150.099 78.6464C150.099 78.4826 150.13 78.33 150.201 78.1758C150.271 78.0265 150.374 77.8916 150.51 77.776C150.648 77.6603 150.819 77.5624 151.02 77.4933C151.222 77.4291 151.459 77.3922 151.716 77.3922C151.971 77.3922 152.189 77.413 152.364 77.458C152.542 77.5094 152.693 77.5624 152.822 77.6234C152.944 77.6828 153.055 77.739 153.134 77.784C153.218 77.8354 153.289 77.8563 153.355 77.8563C153.391 77.8563 153.429 77.8434 153.463 77.8017C153.502 77.7583 153.527 77.7165 153.556 77.6603C153.582 77.6025 153.602 77.5495 153.613 77.4869C153.629 77.4291 153.636 77.3761 153.636 77.3311C153.636 77.2412 153.608 77.1689 153.548 77.1208C153.489 77.0694 153.399 77.0164 153.284 76.9602ZM147.946 77.36C147.961 77.3102 147.972 77.2589 147.982 77.2075C147.99 77.1625 148 77.1159 148 77.079C148.006 77.0421 148.008 77.0164 148.008 77.0003C148.008 76.9345 147.993 76.8943 147.961 76.8718C147.928 76.8429 147.876 76.8156 147.819 76.7915C147.75 76.7658 147.675 76.7482 147.592 76.7321C147.504 76.7096 147.414 76.6968 147.318 76.6856C147.212 76.6743 147.119 76.6727 147.024 76.6727C146.804 76.6727 146.582 76.7096 146.361 76.798C146.136 76.8863 145.925 76.9955 145.728 77.1416C145.526 77.2813 145.34 77.4467 145.169 77.6298C144.999 77.8161 144.855 78.0024 144.738 78.2047L145.015 76.9345C145.02 76.9023 145.019 76.8799 145.01 76.8542C145.004 76.8349 144.988 76.8124 144.957 76.7915C144.929 76.7819 144.883 76.7658 144.831 76.7594C144.78 76.7546 144.707 76.7482 144.629 76.7482C144.552 76.7482 144.484 76.7546 144.425 76.7594C144.361 76.7658 144.317 76.7819 144.275 76.7915C144.234 76.8124 144.203 76.8349 144.182 76.8542C144.162 76.8799 144.148 76.9023 144.146 76.9345L142.699 83.4512C142.69 83.4817 142.69 83.5042 142.699 83.5283C142.708 83.5572 142.729 83.5765 142.763 83.5909C142.792 83.6006 142.838 83.615 142.903 83.623C142.959 83.6375 143.032 83.6391 143.13 83.6391C143.22 83.6391 143.301 83.6375 143.365 83.623C143.427 83.615 143.479 83.6006 143.52 83.5909C143.559 83.5765 143.588 83.5572 143.606 83.5283C143.627 83.5042 143.642 83.4817 143.65 83.4512L144.283 80.5654C144.391 80.1158 144.541 79.6982 144.753 79.3224C144.965 78.9402 145.201 78.611 145.452 78.3396C145.707 78.0634 145.96 77.853 146.216 77.7005C146.472 77.5463 146.692 77.466 146.883 77.466C146.99 77.466 147.09 77.4773 147.178 77.4965C147.261 77.5158 147.333 77.5383 147.403 77.5624C147.471 77.5849 147.527 77.6073 147.585 77.6266C147.631 77.6459 147.675 77.6603 147.716 77.6603C147.749 77.6603 147.781 77.6443 147.811 77.6138C147.835 77.5833 147.861 77.5495 147.882 77.5014C147.912 77.458 147.928 77.413 147.946 77.36ZM140.504 78.8021C140.398 78.9611 140.217 79.1008 139.968 79.2197C139.71 79.3417 139.374 79.4365 138.949 79.5023C138.524 79.5714 137.999 79.6051 137.354 79.6051H136.463C136.563 79.3144 136.698 79.0366 136.861 78.77C137.024 78.5018 137.223 78.2658 137.448 78.0634C137.68 77.8611 137.947 77.7037 138.249 77.5833C138.552 77.4628 138.895 77.4018 139.28 77.4018C139.717 77.4018 140.061 77.4869 140.296 77.6539C140.542 77.8161 140.661 78.0393 140.661 78.3139C140.661 78.4826 140.607 78.6464 140.504 78.8021ZM141.144 77.1882C140.964 77.0421 140.721 76.9152 140.428 76.8156C140.131 76.7177 139.774 76.6727 139.351 76.6727C138.849 76.6727 138.386 76.7434 137.975 76.8895C137.574 77.0356 137.212 77.23 136.905 77.4692C136.595 77.7165 136.323 77.9944 136.103 78.3204C135.882 78.6351 135.695 78.9643 135.551 79.3192C135.411 79.6629 135.305 80.0146 135.24 80.3679C135.171 80.7196 135.14 81.0456 135.14 81.3555C135.14 81.749 135.198 82.0942 135.308 82.3913C135.421 82.6852 135.587 82.9357 135.812 83.1268C136.044 83.3276 136.328 83.4705 136.672 83.5685C137.014 83.6664 137.411 83.7194 137.872 83.7194C138.123 83.7194 138.371 83.7033 138.626 83.676C138.875 83.6471 139.105 83.6102 139.317 83.5668C139.532 83.5219 139.717 83.4737 139.88 83.4191C140.035 83.3661 140.146 83.3051 140.209 83.2489C140.25 83.2184 140.278 83.1766 140.305 83.1252C140.335 83.0738 140.359 83.0241 140.372 82.9743C140.385 82.9261 140.398 82.8763 140.408 82.8297C140.415 82.7864 140.418 82.7462 140.418 82.7189C140.418 82.6707 140.408 82.629 140.39 82.6017C140.372 82.5712 140.341 82.5519 140.296 82.5519C140.255 82.5519 140.172 82.5776 140.054 82.6226C139.935 82.6659 139.775 82.7093 139.58 82.7687C139.384 82.8185 139.156 82.8715 138.887 82.9116C138.619 82.9566 138.316 82.9855 137.975 82.9855C137.329 82.9855 136.864 82.8378 136.581 82.5519C136.295 82.2661 136.15 81.8566 136.15 81.3298C136.15 81.1773 136.155 81.0199 136.178 80.8448C136.189 80.6714 136.215 80.4931 136.251 80.3117H137.177C137.975 80.3117 138.652 80.2635 139.224 80.1639C139.787 80.066 140.255 79.9279 140.62 79.7432C140.981 79.5649 141.251 79.3417 141.419 79.0864C141.586 78.8278 141.672 78.5388 141.672 78.2176C141.672 78.0506 141.628 77.8787 141.548 77.6909C141.462 77.5094 141.333 77.3392 141.144 77.1882ZM134.491 76.7819C134.457 76.7739 134.413 76.7658 134.353 76.7594C134.296 76.7546 134.221 76.7482 134.128 76.7482C134.027 76.7482 133.942 76.7546 133.873 76.7594C133.808 76.7658 133.756 76.7787 133.712 76.7915C133.666 76.8028 133.638 76.8253 133.614 76.8494C133.598 76.8734 133.575 76.9023 133.57 76.9345C133.332 77.5543 133.104 78.1148 132.882 78.611C132.658 79.1137 132.427 79.581 132.184 80.029C131.937 80.4707 131.68 80.9059 131.394 81.325C131.119 81.7345 130.802 82.1681 130.452 82.6242L130.422 82.6611V82.6242L129.413 76.9345C129.406 76.9023 129.398 76.8734 129.38 76.8494C129.371 76.8253 129.346 76.8028 129.313 76.7915C129.279 76.7787 129.227 76.7658 129.168 76.7594C129.106 76.7546 129.025 76.7482 128.922 76.7482C128.839 76.7482 128.764 76.7546 128.71 76.7594C128.653 76.7594 128.609 76.7675 128.571 76.7819C128.537 76.7915 128.509 76.8108 128.492 76.8349C128.469 76.8574 128.452 76.8895 128.452 76.9345C128.452 76.9602 128.456 76.9826 128.456 77.0164C128.462 77.0356 128.469 77.0694 128.475 77.1079L129.669 83.4512C129.671 83.4833 129.685 83.5154 129.705 83.5379C129.724 83.5604 129.747 83.5845 129.788 83.6006C129.827 83.6102 129.874 83.6214 129.936 83.6279C130 83.6391 130.078 83.6391 130.173 83.6391C130.246 83.6391 130.316 83.6391 130.369 83.6311C130.427 83.6231 130.476 83.6198 130.519 83.6006C130.563 83.5909 130.6 83.5685 130.636 83.546C130.67 83.5219 130.701 83.4914 130.736 83.4512C131.187 82.963 131.597 82.4556 131.965 81.9336C132.337 81.4085 132.678 80.8786 132.988 80.339C133.301 79.793 133.578 79.2582 133.833 78.7138C134.085 78.1646 134.312 77.633 134.517 77.1079C134.532 77.0758 134.545 77.0356 134.555 77.0003C134.575 76.9634 134.576 76.92 134.576 76.8783C134.576 76.8574 134.575 76.8429 134.555 76.8253C134.545 76.806 134.522 76.7915 134.491 76.7819ZM126.735 76.7915C126.704 76.7819 126.655 76.7658 126.595 76.7594C126.538 76.7546 126.466 76.7482 126.371 76.7482C126.274 76.7482 126.197 76.7546 126.132 76.7594C126.066 76.7658 126.018 76.7819 125.975 76.7915C125.933 76.8124 125.905 76.8349 125.889 76.8542C125.871 76.8799 125.858 76.9023 125.851 76.9345L124.411 83.4512C124.398 83.4817 124.398 83.5042 124.411 83.5283C124.418 83.5572 124.437 83.5765 124.47 83.5909C124.502 83.6006 124.551 83.615 124.605 83.623C124.666 83.6375 124.745 83.6391 124.84 83.6391C124.93 83.6391 125.01 83.6375 125.073 83.623C125.14 83.615 125.187 83.6006 125.23 83.5909C125.271 83.5765 125.297 83.5572 125.316 83.5283C125.337 83.5042 125.35 83.4817 125.357 83.4512L126.795 76.9345C126.8 76.9023 126.8 76.8799 126.794 76.8542C126.782 76.8349 126.766 76.8124 126.735 76.7915ZM122.438 77.1962C122.296 77.0356 122.1 76.9104 121.869 76.8124C121.634 76.7177 121.344 76.6727 120.993 76.6727C120.657 76.6727 120.332 76.7225 120.024 76.8253C119.714 76.9345 119.429 77.0678 119.178 77.2267C118.92 77.3841 118.706 77.5624 118.524 77.7487C118.348 77.9349 118.222 78.1116 118.155 78.2658L118.447 76.9345C118.452 76.9023 118.452 76.8799 118.445 76.8542C118.437 76.8349 118.421 76.8124 118.392 76.7915C118.359 76.7819 118.317 76.7658 118.263 76.7594C118.214 76.7546 118.145 76.7482 118.065 76.7482C117.986 76.7482 117.915 76.7546 117.858 76.7594C117.798 76.7658 117.747 76.7819 117.71 76.7915C117.674 76.8124 117.646 76.8349 117.627 76.8542C117.61 76.8799 117.597 76.9023 117.593 76.9345L116.13 83.4512C116.12 83.4817 116.12 83.5042 116.13 83.5283C116.144 83.5572 116.161 83.5765 116.197 83.5909C116.228 83.6006 116.275 83.615 116.332 83.623C116.394 83.6375 116.467 83.6391 116.567 83.6391C116.658 83.6391 116.735 83.6375 116.798 83.623C116.862 83.615 116.916 83.6006 116.953 83.5909C116.994 83.5765 117.02 83.5572 117.041 83.5283C117.061 83.5042 117.074 83.4817 117.085 83.4512L117.721 80.5654C117.821 80.1045 117.982 79.6806 118.201 79.2887C118.421 78.9017 118.671 78.5645 118.951 78.2866C119.233 78.0024 119.535 77.784 119.866 77.6266C120.189 77.466 120.512 77.3922 120.835 77.3922C121.208 77.3922 121.477 77.4933 121.635 77.6909C121.795 77.8916 121.875 78.1598 121.875 78.5002C121.875 78.6062 121.869 78.7379 121.852 78.8888C121.838 79.0366 121.808 79.1956 121.771 79.3642L120.859 83.4512C120.849 83.4817 120.854 83.5042 120.866 83.5283C120.879 83.5572 120.9 83.5765 120.929 83.5909C120.96 83.6006 121.009 83.615 121.068 83.623C121.127 83.6375 121.2 83.6391 121.291 83.6391C121.386 83.6391 121.471 83.6375 121.528 83.623C121.588 83.615 121.639 83.6006 121.676 83.5909C121.719 83.5765 121.75 83.5572 121.768 83.5283C121.787 83.5042 121.802 83.4817 121.812 83.4512L122.723 79.3642C122.757 79.1956 122.784 79.0302 122.81 78.868C122.826 78.7074 122.839 78.5436 122.839 78.375C122.839 78.1566 122.811 77.9414 122.746 77.739C122.687 77.5319 122.583 77.3552 122.438 77.1962ZM114.84 76.7915C114.807 76.7819 114.763 76.7658 114.704 76.7594C114.644 76.7546 114.566 76.7482 114.473 76.7482C114.377 76.7482 114.302 76.7546 114.236 76.7594C114.173 76.7658 114.119 76.7819 114.081 76.7915C114.039 76.8124 114.008 76.8349 113.988 76.8542C113.966 76.8799 113.954 76.9023 113.951 76.9345L113.297 79.846C113.189 80.3085 113.029 80.7292 112.811 81.1162C112.597 81.5033 112.348 81.8325 112.071 82.1119C111.785 82.3913 111.482 82.6049 111.157 82.7655C110.829 82.9213 110.507 82.9984 110.184 82.9984C109.991 82.9984 109.831 82.9727 109.698 82.9197C109.567 82.8683 109.461 82.7944 109.38 82.6932C109.293 82.5953 109.233 82.478 109.202 82.3464C109.166 82.2131 109.146 82.0685 109.146 81.9128C109.146 81.7554 109.159 81.6076 109.179 81.4615C109.199 81.3154 109.223 81.1724 109.252 81.0359L110.162 76.9345C110.169 76.9023 110.162 76.8799 110.153 76.8542C110.141 76.8349 110.118 76.8124 110.092 76.7915C110.055 76.7819 110.011 76.7658 109.952 76.7594C109.893 76.7546 109.818 76.7482 109.734 76.7482C109.637 76.7482 109.559 76.7546 109.492 76.7594C109.43 76.7658 109.38 76.7819 109.339 76.7915C109.3 76.8124 109.269 76.8349 109.246 76.8542C109.225 76.8799 109.213 76.9023 109.207 76.9345L108.3 81.0359C108.261 81.1981 108.233 81.3684 108.21 81.5257C108.191 81.6944 108.179 81.8517 108.179 82.0043C108.179 82.2532 108.21 82.4845 108.277 82.6932C108.337 82.902 108.443 83.0786 108.59 83.2344C108.739 83.3854 108.933 83.4994 109.179 83.5909C109.42 83.676 109.72 83.7194 110.082 83.7194C110.392 83.7194 110.697 83.6664 111.002 83.5604C111.309 83.4608 111.586 83.3308 111.839 83.1686C112.088 83.0128 112.307 82.8394 112.486 82.6579C112.672 82.4748 112.798 82.2982 112.866 82.1392L112.586 83.4512C112.571 83.4817 112.571 83.5042 112.586 83.5283C112.594 83.5572 112.615 83.5765 112.645 83.5909C112.672 83.6006 112.715 83.615 112.77 83.623C112.822 83.6375 112.888 83.6391 112.972 83.6391C113.049 83.6391 113.119 83.6375 113.179 83.623C113.235 83.615 113.284 83.6006 113.323 83.5909C113.361 83.5765 113.387 83.5572 113.406 83.5283C113.426 83.5042 113.439 83.4817 113.444 83.4512L114.902 76.9345C114.908 76.9023 114.908 76.8799 114.902 76.8542C114.892 76.8349 114.869 76.8124 114.84 76.7915ZM103.646 76.7915C103.58 76.7658 103.505 76.7482 103.42 76.7321C103.337 76.7096 103.248 76.6968 103.147 76.6856C103.044 76.6743 102.951 76.6727 102.853 76.6727C102.633 76.6727 102.409 76.7096 102.191 76.798C101.966 76.8863 101.755 76.9955 101.555 77.1416C101.356 77.2813 101.168 77.4467 100.997 77.6298C100.827 77.8161 100.681 78.0024 100.567 78.2047L100.849 76.9345C100.849 76.9023 100.849 76.8799 100.844 76.8542C100.834 76.8349 100.813 76.8124 100.782 76.7915C100.759 76.7819 100.717 76.7658 100.661 76.7594C100.611 76.7546 100.54 76.7482 100.462 76.7482C100.381 76.7482 100.314 76.7546 100.252 76.7594C100.193 76.7658 100.146 76.7819 100.102 76.7915C100.064 76.8124 100.033 76.8349 100.014 76.8542C99.9892 76.8799 99.9794 76.9023 99.9729 76.9345L98.528 83.4512C98.5165 83.4817 98.5165 83.5042 98.528 83.5283C98.5361 83.5572 98.5606 83.5765 98.5948 83.5909C98.6225 83.6006 98.6698 83.615 98.7285 83.623C98.7873 83.6375 98.8655 83.6391 98.9569 83.6391C99.0498 83.6391 99.1297 83.6375 99.1933 83.623C99.2602 83.615 99.3108 83.6006 99.3466 83.5909C99.3907 83.5765 99.4217 83.5572 99.438 83.5283C99.4543 83.5042 99.4738 83.4817 99.4836 83.4512L100.115 80.5654C100.219 80.1158 100.374 79.6982 100.584 79.3224C100.798 78.9402 101.028 78.611 101.286 78.3396C101.537 78.0634 101.793 77.853 102.047 77.7005C102.3 77.5463 102.522 77.466 102.709 77.466C102.824 77.466 102.917 77.4773 103.006 77.4965C103.089 77.5158 103.169 77.5383 103.231 77.5624C103.3 77.5849 103.359 77.6073 103.407 77.6266C103.46 77.6459 103.504 77.6603 103.54 77.6603C103.575 77.6603 103.613 77.6443 103.639 77.6138C103.665 77.5833 103.688 77.5495 103.716 77.5014C103.739 77.458 103.76 77.413 103.773 77.36C103.792 77.3102 103.805 77.2589 103.812 77.2075C103.818 77.1625 103.822 77.1159 103.835 77.079C103.835 77.0421 103.84 77.0164 103.84 77.0003C103.84 76.9345 103.822 76.8943 103.792 76.8718C103.76 76.8429 103.709 76.8156 103.646 76.7915ZM97.238 76.7915C97.2021 76.7819 97.158 76.7658 97.0993 76.7594C97.0374 76.7546 96.964 76.7482 96.8678 76.7482C96.7764 76.7482 96.6965 76.7546 96.6329 76.7594C96.5677 76.7658 96.5171 76.7819 96.4764 76.7915C96.4372 76.8124 96.4062 76.8349 96.3834 76.8542C96.3622 76.8799 96.3508 76.9023 96.3426 76.9345L95.6935 79.846C95.5875 80.3085 95.4261 80.7292 95.2092 81.1162C94.9955 81.5033 94.7428 81.8325 94.4655 82.1119C94.1818 82.3913 93.88 82.6049 93.5506 82.7655C93.2277 82.9213 92.8999 82.9984 92.5819 82.9984C92.3894 82.9984 92.2264 82.9727 92.0959 82.9197C91.9654 82.8683 91.8611 82.7944 91.7746 82.6932C91.6914 82.5953 91.6327 82.478 91.6001 82.3464C91.5626 82.2131 91.5447 82.0685 91.5447 81.9128C91.5447 81.7554 91.5577 81.6076 91.5773 81.4615C91.5936 81.3154 91.6181 81.1724 91.649 81.0359L92.5558 76.9345C92.5607 76.9023 92.5558 76.8799 92.5509 76.8542C92.5395 76.8349 92.5167 76.8124 92.484 76.7915C92.453 76.7819 92.409 76.7658 92.347 76.7594C92.29 76.7546 92.2133 76.7482 92.1252 76.7482C92.0339 76.7482 91.9556 76.7546 91.8888 76.7594C91.8252 76.7658 91.7746 76.7819 91.7338 76.7915C91.6947 76.8124 91.6621 76.8349 91.6458 76.8542C91.6213 76.8799 91.6066 76.9023 91.6017 76.9345L90.6983 81.0359C90.6591 81.1981 90.6249 81.3684 90.6069 81.5257C90.5841 81.6944 90.5743 81.8517 90.5743 82.0043C90.5743 82.2532 90.6069 82.4845 90.6722 82.6932C90.7358 82.902 90.8418 83.0786 90.9886 83.2344C91.1337 83.3854 91.331 83.4994 91.5773 83.5909C91.8203 83.676 92.1187 83.7194 92.4759 83.7194C92.7874 83.7194 93.094 83.6664 93.3989 83.5604C93.7023 83.4608 93.9828 83.3308 94.2323 83.1686C94.4867 83.0128 94.7004 82.8394 94.8797 82.6579C95.0657 82.4748 95.1912 82.2982 95.2597 82.1392L94.9792 83.4512C94.9662 83.4817 94.9662 83.5042 94.9792 83.5283C94.9907 83.5572 95.007 83.5765 95.0412 83.5909C95.0689 83.6006 95.113 83.615 95.1668 83.623C95.2173 83.6375 95.2809 83.6391 95.3657 83.6391C95.4473 83.6391 95.5174 83.6375 95.5761 83.623C95.6332 83.615 95.6805 83.6006 95.7213 83.5909C95.7555 83.5765 95.7832 83.5572 95.7995 83.5283C95.8191 83.5042 95.8338 83.4817 95.8387 83.4512L97.2983 76.9345C97.3048 76.9023 97.3048 76.8799 97.2918 76.8542C97.2852 76.8349 97.2689 76.8124 97.238 76.7915ZM87.7758 80.0242C87.7187 80.3293 87.6372 80.62 87.5279 80.9075C87.417 81.1917 87.2816 81.4615 87.112 81.7088C86.9408 81.9577 86.7483 82.1777 86.5184 82.3656C86.2917 82.5519 86.0308 82.7013 85.747 82.804C85.4616 82.9116 85.1436 82.9711 84.793 82.9711C84.4521 82.9711 84.1651 82.9357 83.9319 82.849C83.6938 82.7719 83.5062 82.6579 83.3562 82.5134C83.2094 82.3656 83.105 82.1842 83.0382 81.9786C82.9746 81.7602 82.9419 81.5257 82.9419 81.264C82.9419 80.9669 82.9697 80.6634 83.0251 80.355C83.0757 80.0531 83.1589 79.7609 83.2697 79.4718C83.3774 79.1875 83.5176 78.9178 83.6856 78.6721C83.8569 78.4199 84.0542 78.2047 84.2792 78.0184C84.5076 77.8354 84.7636 77.6892 85.0506 77.5768C85.3344 77.4692 85.6573 77.4195 86.0096 77.4195C86.3472 77.4195 86.6309 77.458 86.8658 77.5383C87.1022 77.617 87.2947 77.7262 87.4398 77.8787C87.5882 78.0233 87.6926 78.2015 87.7578 78.4135C87.8214 78.6207 87.8541 78.8599 87.8541 79.1233C87.8541 79.4268 87.8247 79.7255 87.7758 80.0242ZM88.2129 77.3167C87.9911 77.1063 87.7008 76.9441 87.3534 76.8349C87.0028 76.7225 86.5755 76.6727 86.0813 76.6727C85.6182 76.6727 85.1893 76.7321 84.8076 76.8622C84.4211 76.9955 84.0721 77.1673 83.7672 77.3922C83.454 77.6138 83.1915 77.8707 82.9615 78.1758C82.7283 78.4745 82.5391 78.7989 82.3842 79.1394C82.2325 79.4814 82.12 79.8347 82.045 80.2057C81.97 80.5734 81.9357 80.938 81.9357 81.3009C81.9357 81.6719 81.9863 82.0107 82.089 82.3142C82.1934 82.6081 82.3581 82.8635 82.5815 83.0738C82.8099 83.281 83.0953 83.4416 83.4443 83.5524C83.7949 83.6648 84.2205 83.7194 84.7196 83.7194C85.1811 83.7194 85.6116 83.6536 85.99 83.5219C86.3749 83.395 86.7239 83.2184 87.0321 82.9935C87.3403 82.7719 87.6045 82.5134 87.841 82.2082C88.0693 81.9047 88.2585 81.5868 88.4102 81.2463C88.5602 80.8978 88.6809 80.5429 88.751 80.1768C88.8277 79.8058 88.8636 79.4413 88.8636 79.08C88.8636 78.7074 88.8114 78.3685 88.7086 78.0731C88.6026 77.776 88.4395 77.5222 88.2129 77.3167ZM81.272 76.7819C81.2149 76.7594 81.0942 76.7482 80.9115 76.7482C80.8137 76.7482 80.7273 76.7546 80.6588 76.7594C80.5952 76.7658 80.5397 76.7787 80.4957 76.7915C80.4533 76.8028 80.4174 76.8253 80.3946 76.8494C80.3717 76.8734 80.3538 76.9023 80.3424 76.9345C80.1581 77.4387 79.9575 77.9269 79.7504 78.4135C79.54 78.9033 79.3101 79.3851 79.0654 79.8604C78.8224 80.3438 78.5501 80.8127 78.2533 81.2784C77.9564 81.7425 77.6221 82.205 77.2536 82.6611H77.2372L76.1951 76.9345C76.1919 76.9023 76.1756 76.8799 76.1609 76.851C76.1446 76.8253 76.1217 76.8028 76.0842 76.7915C76.0549 76.7787 76.0043 76.7658 75.9456 76.7594C75.8869 76.7546 75.807 76.7482 75.7026 76.7482C75.6146 76.7482 75.5395 76.7546 75.4759 76.7594C75.4172 76.7658 75.3634 76.7787 75.3324 76.7915C75.2965 76.8028 75.2721 76.8253 75.2623 76.851C75.246 76.8799 75.2362 76.912 75.2362 76.9505C75.2362 76.9746 75.2395 77.0067 75.2492 77.0421C75.2541 77.0806 75.2623 77.1288 75.2721 77.1882L76.4756 83.6006L74.4387 85.9066C74.3865 85.9677 74.3572 86.0142 74.3506 86.0544C74.3506 86.0977 74.367 86.1299 74.4061 86.1588C74.4436 86.1829 74.4958 86.1989 74.5675 86.207C74.6344 86.2182 74.7176 86.223 74.8154 86.223C74.9019 86.223 74.9851 86.2182 75.0552 86.207C75.122 86.1989 75.1824 86.1845 75.2297 86.1684C75.2835 86.154 75.321 86.1331 75.352 86.1106C75.3862 86.0929 75.414 86.0656 75.4401 86.0383L77.5879 83.4705C78.1375 82.8249 78.6006 82.2115 78.9855 81.6349C79.3704 81.0568 79.7063 80.5108 79.9852 79.9857C80.2657 79.459 80.512 78.9563 80.7191 78.4826C80.923 78.0104 81.1154 77.5544 81.2981 77.1208C81.3144 77.0935 81.329 77.0517 81.3372 77.0116C81.3486 76.9634 81.3519 76.92 81.3519 76.8783C81.3519 76.8429 81.329 76.8092 81.272 76.7819ZM272.696 65.918C272.595 66.3355 272.446 66.6117 272.256 66.7498C272.062 66.8896 271.729 66.9634 271.267 66.9634H259.755V60.164H267.021C267.476 60.164 267.803 60.2331 267.994 60.3728C268.191 60.5125 268.342 60.7952 268.451 61.2143H268.899V57.328H268.451C268.342 57.7488 268.193 58.0234 268.006 58.1663C267.81 58.3108 267.49 58.3799 267.021 58.3799H259.755V52.1843H271.163C271.631 52.1843 271.956 52.2582 272.146 52.3979C272.331 52.536 272.486 52.8187 272.595 53.2394H273.042V49.3547H272.595C272.486 49.7723 272.331 50.0437 272.146 50.1866C271.956 50.3327 271.631 50.4034 271.163 50.4034H256.311V50.8434C256.732 50.9558 257.014 51.1036 257.157 51.2834C257.302 51.4761 257.372 51.7973 257.372 52.2518V66.896C257.372 67.3456 257.306 67.6636 257.164 67.8547C257.025 68.0474 256.741 68.1984 256.311 68.3044V68.746H271.282C271.745 68.746 272.075 68.8199 272.264 68.9596C272.45 69.1025 272.595 69.3819 272.696 69.7994H273.161V65.918H272.696ZM250.67 63.1237C250.857 63.4915 250.952 63.7741 250.952 63.954C250.952 64.2077 250.604 64.6076 249.902 65.1472C248.117 66.5427 246.018 67.2413 243.6 67.2413C241.455 67.2413 239.619 66.6455 238.076 65.4555C236.118 63.9588 235.131 61.9562 235.131 59.443C235.131 57.1321 236.02 55.258 237.794 53.8256C239.379 52.5521 241.348 51.9097 243.701 51.9097C246.105 51.9097 248.202 52.4766 249.99 53.6136C250.43 53.8978 250.65 54.1548 250.65 54.3828C250.65 54.5322 250.611 54.7586 250.539 55.0364L250.916 55.2837L252.997 51.762L252.596 51.55C252.312 51.921 252.051 52.104 251.816 52.104C251.707 52.104 251.544 52.0542 251.333 51.9434C248.91 50.6555 246.359 50.0099 243.701 50.0099C240.695 50.0099 238.199 50.7663 236.214 52.2887C233.828 54.121 232.639 56.5379 232.639 59.5458C232.639 61.126 233.004 62.605 233.735 63.9813C234.312 65.062 235.084 65.9967 236.047 66.7868C237.97 68.359 240.405 69.1394 243.365 69.1394C245.061 69.1394 246.599 68.9066 247.964 68.4328C249.337 67.9639 250.702 67.2043 252.071 66.1492C252.242 66.0079 252.376 65.9357 252.464 65.9357C252.632 65.9357 252.907 66.1075 253.297 66.4463L253.649 66.1492L251.053 62.8732L250.67 63.1237ZM224.932 50.8434C225.352 50.9558 225.633 51.1036 225.78 51.2834C225.922 51.4761 225.997 51.7973 225.997 52.2518V66.896C225.997 67.3456 225.922 67.6636 225.78 67.8547C225.633 68.0474 225.352 68.1984 224.932 68.3044V68.746H229.441V68.3044C229.02 68.1984 228.735 68.0474 228.593 67.8547C228.448 67.6636 228.374 67.3456 228.374 66.896V52.2518C228.374 51.7973 228.448 51.4761 228.593 51.2834C228.735 51.1036 229.02 50.9558 229.441 50.8434V50.4034H224.932V50.8434ZM219.132 58.0539C218.731 58.3173 218.248 58.4923 217.681 58.5838C217.115 58.6754 216.241 58.7236 215.052 58.7236H208.499V52.1843H215.052C216.252 52.1843 217.128 52.2325 217.691 52.3272C218.248 52.422 218.731 52.5986 219.132 52.8604C219.905 53.3743 220.297 54.2351 220.297 55.4443C220.297 56.6808 219.905 57.5512 219.132 58.0539ZM220.39 51.2722C219.829 50.9365 219.191 50.7021 218.488 50.5816C217.787 50.466 216.743 50.4034 215.37 50.4034H205.06V50.8948C205.446 50.9911 205.719 51.1244 205.883 51.277C206.04 51.4376 206.121 51.6736 206.121 51.9932V67.0437C206.121 67.3729 206.045 67.6218 205.892 67.8001C205.735 67.9735 205.451 68.1133 205.06 68.2209V68.746H209.514V68.2209C209.142 68.1133 208.873 67.9735 208.726 67.8001C208.574 67.6218 208.499 67.3729 208.499 67.0437V60.5109H215.37C216.733 60.5109 217.762 60.4467 218.464 60.3278C219.16 60.2106 219.803 59.9778 220.378 59.6196C221.075 59.2214 221.618 58.6513 221.998 57.9238C222.381 57.1899 222.572 56.3709 222.572 55.4668C222.572 54.5611 222.378 53.7308 221.993 52.9792C221.601 52.2325 221.07 51.6656 220.39 51.2722ZM199.88 59.5104C199.272 59.17 198.536 58.9227 197.677 58.7701C196.817 58.6208 195.549 58.5148 193.874 58.4602C191.871 58.3831 190.562 58.3189 189.948 58.2643C189.34 58.2097 188.774 58.0956 188.256 57.9238C187.734 57.7488 187.318 57.4501 187.01 57.0277C186.693 56.6086 186.54 56.138 186.54 55.6129C186.54 54.4406 187.15 53.5301 188.388 52.8797C189.617 52.2293 191.113 51.9097 192.877 51.9097C195.074 51.9097 196.935 52.3128 198.465 53.119C199.182 53.4963 199.548 53.8111 199.548 54.0697C199.548 54.1901 199.52 54.4085 199.463 54.7281L199.861 54.924L201.692 51.3557L201.279 51.1549C201.033 51.5596 200.823 51.762 200.643 51.762C200.593 51.762 200.386 51.6929 200.03 51.55C197.677 50.5238 195.343 50.0099 193.006 50.0099C190.462 50.0099 188.357 50.5238 186.708 51.55C185.087 52.5553 184.275 53.9396 184.275 55.6948C184.275 56.6937 184.553 57.5512 185.092 58.2803C185.638 58.9917 186.351 59.5072 187.24 59.822C187.939 60.0709 188.678 60.2492 189.469 60.3487C190.255 60.4547 191.563 60.5511 193.391 60.6233C194.945 60.6795 196.002 60.7341 196.56 60.8016C197.122 60.869 197.63 60.9831 198.086 61.1292C198.572 61.3091 198.969 61.6013 199.264 62.0173C199.565 62.43 199.715 62.8973 199.715 63.424C199.715 63.9925 199.538 64.5321 199.179 65.054C198.828 65.5743 198.352 65.9838 197.754 66.289C196.513 66.9265 194.952 67.2413 193.076 67.2413C191.025 67.2413 189.046 66.745 187.143 65.7526C186.007 65.16 185.444 64.712 185.444 64.4117C185.444 64.3008 185.467 64.1579 185.524 63.9813C185.539 63.9379 185.556 63.848 185.594 63.7211L185.194 63.4883L183.081 66.9795L183.461 67.2268C183.797 66.8414 184.048 66.6503 184.214 66.6503C184.299 66.6503 184.434 66.7049 184.612 66.8157C185.909 67.5351 187.316 68.102 188.831 68.5212C190.341 68.9355 191.788 69.1394 193.159 69.1394C195.958 69.1394 198.196 68.5485 199.88 67.3585C201.289 66.35 201.994 65.0058 201.994 63.31C201.994 62.5022 201.805 61.7555 201.428 61.0746C201.05 60.3921 200.536 59.8686 199.88 59.5104ZM176.173 64.7826C174.516 66.4206 172.327 67.2413 169.6 67.2413C166.873 67.2413 164.683 66.4206 163.026 64.7826C161.588 63.363 160.865 61.627 160.865 59.5747C160.865 57.5207 161.588 55.7848 163.026 54.3667C164.683 52.7271 166.857 51.9097 169.561 51.9097C172.304 51.9338 174.504 52.7544 176.173 54.3667C177.609 55.7558 178.332 57.5207 178.332 59.6726C178.332 61.6607 177.609 63.363 176.173 64.7826ZM177.585 52.5649C175.553 50.8611 172.885 50.0099 169.561 50.0099C167.681 50.0308 166.045 50.299 164.656 50.8129C162.637 51.5564 161.073 52.7351 159.949 54.3667C158.897 55.9052 158.369 57.6444 158.369 59.5747C158.369 62.438 159.453 64.7714 161.612 66.5893C163.643 68.2867 166.308 69.1394 169.6 69.1394C174.012 69.1394 177.22 67.6861 179.23 64.7826C180.294 63.2426 180.825 61.5499 180.825 59.7064C180.825 56.7483 179.747 54.3667 177.585 52.5649ZM140.842 52.1843H148.194C150.001 52.1843 151.287 52.4525 152.041 52.9873C152.856 53.567 153.272 54.4278 153.272 55.576C153.272 56.766 152.832 57.601 151.955 58.0812C151.555 58.306 151.071 58.4586 150.501 58.5357C149.926 58.6144 149.07 58.6577 147.933 58.6577H140.842V52.1843ZM141.057 67.8547C140.915 67.6636 140.842 67.3456 140.842 66.896V60.4435H147.615L151.904 67.1112C152.155 67.5046 152.284 67.7648 152.284 67.8932C152.284 68.0811 152.065 68.2208 151.636 68.3044V68.746H156.245V68.3044C155.836 68.2514 155.554 68.1823 155.394 68.0956C155.231 68.0057 155.066 67.8322 154.898 67.5881L150.226 60.2797C151.968 60.1143 153.285 59.6277 154.186 58.8135C155.081 57.9945 155.536 56.8896 155.536 55.4812C155.536 53.7549 154.887 52.4445 153.602 51.55C153.016 51.1373 152.321 50.8418 151.529 50.6619C150.736 50.4869 149.72 50.4034 148.463 50.4034H137.396V50.8434C137.823 50.9558 138.104 51.1036 138.249 51.2834C138.394 51.4761 138.464 51.7973 138.464 52.2518V66.896C138.464 67.3456 138.396 67.6636 138.257 67.8547C138.118 68.0474 137.836 68.1984 137.396 68.3044V68.746H141.908V68.3044C141.483 68.1984 141.206 68.0474 141.057 67.8547ZM133.919 50.2862C133.733 50.4307 133.405 50.5013 132.939 50.5013H118.418C117.955 50.5013 117.624 50.4307 117.434 50.2862C117.247 50.1464 117.098 49.867 116.989 49.4495H116.539V53.3358H116.989C117.098 52.9134 117.247 52.6356 117.434 52.4991C117.624 52.3562 117.955 52.2887 118.418 52.2887H124.491V66.896C124.491 67.3456 124.418 67.6636 124.274 67.8547C124.127 68.0474 123.848 68.1984 123.421 68.3044V68.746H127.935V68.3044C127.5 68.1984 127.211 68.0474 127.074 67.8547C126.939 67.6636 126.87 67.3456 126.87 66.896V52.2887H132.939C133.392 52.2887 133.72 52.3562 133.912 52.4991C134.105 52.6356 134.261 52.9134 134.369 53.3358H134.818V49.4495H134.369C134.261 49.867 134.11 50.1464 133.919 50.2862ZM97.3489 67.8547C97.2151 67.6636 97.1483 67.3456 97.1483 66.896V53.2683L109.153 66.4094C109.688 66.9923 109.952 67.4051 109.952 67.6363C109.952 67.9414 109.667 68.1614 109.086 68.3044V68.746H113.962V68.3044C113.527 68.1984 113.24 68.0474 113.103 67.8547C112.966 67.6636 112.896 67.3456 112.896 66.896V52.2518C112.896 51.7973 112.969 51.4761 113.113 51.2834C113.259 51.1036 113.542 50.9558 113.962 50.8434V50.4034H109.854V50.8434C110.275 50.9558 110.559 51.1036 110.701 51.2834C110.844 51.4761 110.916 51.7973 110.916 52.2518V64.9978L99.9223 52.8797C99.4983 52.4188 99.2912 52.0237 99.2912 51.6945C99.2912 51.3139 99.5782 51.0297 100.159 50.8434V50.4034H94.1002V50.8434C94.5242 50.9558 94.8064 51.1036 94.9515 51.2834C95.0934 51.4761 95.1668 51.7973 95.1668 52.2518V66.896C95.1668 67.3456 95.0966 67.6636 94.9564 67.8547C94.8161 68.0474 94.5291 68.1984 94.1002 68.3044V68.746H98.2083V68.3044C97.7761 68.1984 97.494 68.0474 97.3489 67.8547ZM90.9331 65.918H90.4683C90.3672 66.3355 90.2204 66.6117 90.0296 66.7498C89.8323 66.8896 89.5012 66.9634 89.0364 66.9634H77.5275V60.164H84.7962C85.248 60.164 85.5741 60.2331 85.7666 60.3728C85.9607 60.5125 86.1139 60.7952 86.2265 61.2143H86.6782V57.328H86.2265C86.1139 57.7488 85.9655 58.0234 85.7747 58.1663C85.5888 58.3108 85.261 58.3799 84.7962 58.3799H77.5275V52.1843H88.9402C89.405 52.1843 89.7279 52.2582 89.9187 52.3979C90.1063 52.536 90.2547 52.8187 90.3672 53.2394H90.8189V49.3547H90.3672C90.2547 49.7723 90.1063 50.0437 89.9187 50.1866C89.7279 50.3327 89.405 50.4034 88.9402 50.4034H74.0848V50.8434C74.5023 50.9558 74.791 51.1036 74.9312 51.2834C75.078 51.4761 75.1465 51.7973 75.1465 52.2518V66.896C75.1465 67.3456 75.0813 67.6636 74.9378 67.8547C74.8008 68.0474 74.517 68.1984 74.0848 68.3044V68.746H89.0544C89.5175 68.746 89.8453 68.8199 90.0378 68.9596C90.2253 69.1025 90.3672 69.3819 90.4683 69.7994H90.9331V65.918ZM67.7539 62.1522C67.9447 62.5022 68.0376 62.7576 68.0376 62.9069C68.0376 63.212 67.55 63.7324 66.5764 64.4679C64.4139 66.0866 61.9154 66.896 59.0908 66.896C56.1961 66.896 53.7628 66.0192 51.7862 64.2639C49.7444 62.4621 48.7268 60.1946 48.7268 57.4693C48.7268 54.7313 49.7102 52.5007 51.6688 50.7792C53.5981 49.0849 56.1194 48.2418 59.2213 48.2418C61.5306 48.2418 63.6556 48.714 65.6093 49.6486C67.0281 50.3231 67.7392 50.8884 67.7392 51.338C67.7392 51.5227 67.6903 51.778 67.5859 52.104L68.0376 52.3674L70.497 48.3221L70.055 48.0748C69.675 48.4891 69.4108 48.7011 69.2673 48.7011C69.1906 48.7011 69.0537 48.6417 68.8563 48.5357C65.8148 46.8415 62.6689 46 59.4219 46C54.5081 46 50.8224 47.5368 48.3598 50.617C46.7828 52.5826 46 54.9047 46 57.5914C46 61.0023 47.2574 63.803 49.7738 65.9967C52.1679 68.0892 55.2779 69.1394 59.1055 69.1394C61.0902 69.1394 62.9086 68.86 64.5607 68.3044C65.3565 68.0394 66.0953 67.7214 66.7672 67.344C67.4391 66.9634 68.2839 66.4014 69.3015 65.6466C69.6016 65.4105 69.812 65.3013 69.9359 65.3013C70.1333 65.3013 70.3893 65.4362 70.7008 65.7076L71.115 65.3848L68.1551 61.8438L67.7539 62.1522ZM127.249 74.1852C127.169 74.1659 127.071 74.1563 126.947 74.1563C126.826 74.1563 126.72 74.1659 126.639 74.1852C126.552 74.2012 126.481 74.2366 126.425 74.2896C126.368 74.3329 126.319 74.3955 126.282 74.471C126.246 74.5433 126.213 74.638 126.189 74.7488C126.168 74.8548 126.156 74.9512 126.159 75.0283C126.163 75.0989 126.181 75.1583 126.215 75.2033C126.254 75.2467 126.305 75.282 126.384 75.3029C126.463 75.3173 126.562 75.3302 126.688 75.3302C126.808 75.3302 126.913 75.3173 126.999 75.3029C127.082 75.282 127.156 75.2467 127.211 75.2033C127.273 75.1583 127.321 75.0989 127.352 75.0283C127.386 74.9512 127.418 74.8548 127.438 74.7488C127.462 74.638 127.479 74.5433 127.479 74.471C127.474 74.3955 127.454 74.3329 127.414 74.2896C127.379 74.2366 127.321 74.2012 127.249 74.1852Z" fill="#333333"/>
</svg>
