<svg aria-hidden="true" style="position: absolute; width: 0; height: 0; overflow: hidden;" version="1.1" xmlns="http://www.w3.org/2000/svg" xmlns:xlink="http://www.w3.org/1999/xlink">
<defs>
<symbol id="Like" viewBox="0 0 36 32">
<path d="M18.133 32c-0.516 0-1.014-0.186-1.402-0.522-1.465-1.271-2.878-2.465-4.124-3.518l-0.006-0.006c-3.654-3.088-6.809-5.755-9.004-8.382-2.454-2.937-3.597-5.721-3.597-8.763 0-2.955 1.022-5.682 2.877-7.678 1.877-2.019 4.453-3.132 7.254-3.132 2.093 0 4.011 0.656 5.698 1.951 0.852 0.653 1.624 1.453 2.304 2.386 0.68-0.933 1.452-1.732 2.304-2.386 1.687-1.294 3.605-1.951 5.698-1.951 2.801 0 5.377 1.112 7.254 3.132 1.855 1.996 2.877 4.722 2.877 7.678 0 3.042-1.143 5.826-3.597 8.763-2.195 2.627-5.35 5.294-9.003 8.381-1.248 1.055-2.663 2.251-4.131 3.524-0.388 0.336-0.886 0.522-1.402 0.522zM10.131 2.107c-2.201 0-4.222 0.871-5.693 2.453-1.492 1.606-2.315 3.825-2.315 6.25 0 2.558 0.959 4.846 3.108 7.419 2.078 2.486 5.168 5.098 8.746 8.123l0.007 0.006c1.251 1.057 2.669 2.256 4.145 3.536 1.485-1.282 2.905-2.483 4.158-3.542 3.578-3.024 6.668-5.636 8.746-8.122 2.149-2.572 3.108-4.86 3.108-7.419 0-2.425-0.822-4.644-2.314-6.25-1.471-1.582-3.492-2.453-5.693-2.453-1.612 0-3.092 0.508-4.399 1.51-1.165 0.894-1.976 2.023-2.452 2.813-0.245 0.406-0.675 0.649-1.152 0.649s-0.907-0.243-1.152-0.649c-0.475-0.79-1.287-1.92-2.451-2.813-1.307-1.002-2.787-1.51-4.399-1.51z"></path>
</symbol>
<symbol id="row-left" viewBox="0 0 8 32">
<path stroke-linejoin="miter" stroke-linecap="butt" stroke-miterlimit="4" stroke-width="0.4211" d="M8 31.579l-7.579-16 7.579-15.158"></path>
</symbol>
<symbol id="row-right" viewBox="0 0 8 32">
<path stroke-linejoin="miter" stroke-linecap="butt" stroke-miterlimit="4" stroke-width="0.4211" d="M0.421 0.421l7.579 16-7.579 15.158"></path>
</symbol>
<symbol id="telephone-call" viewBox="0 0 32 32">
<path fill="#fff" style="fill: var(--color1, #fff)" d="M24.329 21.169c-1.045-1.032-2.351-1.032-3.389 0-0.792 0.786-1.585 1.571-2.364 2.371-0.213 0.22-0.393 0.266-0.653 0.12-0.513-0.28-1.059-0.506-1.552-0.812-2.297-1.445-4.222-3.303-5.926-5.394-0.846-1.039-1.598-2.151-2.124-3.403-0.107-0.253-0.087-0.42 0.12-0.626 0.792-0.766 1.565-1.552 2.344-2.337 1.085-1.092 1.085-2.371-0.007-3.469-0.619-0.626-1.239-1.239-1.858-1.864-0.639-0.639-1.272-1.285-1.918-1.918-1.045-1.019-2.351-1.019-3.389 0.007-0.799 0.786-1.565 1.591-2.377 2.364-0.752 0.713-1.132 1.585-1.212 2.604-0.127 1.658 0.28 3.223 0.852 4.748 1.172 3.156 2.957 5.96 5.121 8.53 2.923 3.476 6.413 6.226 10.494 8.21 1.838 0.892 3.742 1.578 5.813 1.691 1.425 0.080 2.664-0.28 3.656-1.392 0.679-0.759 1.445-1.452 2.164-2.177 1.065-1.079 1.072-2.384 0.013-3.449-1.265-1.272-2.537-2.537-3.809-3.802z"></path>
<path fill="#fff" style="fill: var(--color1, #fff)" d="M23.057 15.861l2.457-0.42c-0.386-2.257-1.452-4.302-3.070-5.926-1.711-1.711-3.875-2.79-6.259-3.123l-0.346 2.47c1.844 0.26 3.523 1.092 4.848 2.417 1.252 1.252 2.071 2.837 2.371 4.581z"></path>
<path fill="#fff" style="fill: var(--color1, #fff)" d="M26.899 5.181c-2.837-2.837-6.426-4.628-10.388-5.181l-0.346 2.47c3.423 0.479 6.526 2.031 8.976 4.475 2.324 2.324 3.849 5.261 4.401 8.49l2.457-0.419c-0.646-3.742-2.411-7.138-5.101-9.835z"></path>
</symbol>
</defs>
</svg>
