<svg aria-hidden="true" style="position: absolute; width: 0; height: 0; overflow: hidden;" version="1.1" xmlns="http://www.w3.org/2000/svg" xmlns:xlink="http://www.w3.org/1999/xlink">
<defs>
<symbol id="icon-basket" viewBox="0 0 28 32">
<path fill="#585858" style="fill: var(--color1, #585858)" d="M8.026 20.601h16.697c1.893 0 3.438-1.595 3.438-3.55v-7.254c0-0.006 0-0.019 0-0.026 0-0.019 0-0.032 0-0.051 0-0.013 0-0.026-0.006-0.039 0-0.013-0.006-0.032-0.006-0.045s-0.006-0.026-0.006-0.039c-0.006-0.013-0.006-0.026-0.012-0.045-0.006-0.013-0.006-0.026-0.013-0.039s-0.006-0.026-0.012-0.039-0.012-0.026-0.019-0.045c-0.006-0.013-0.012-0.026-0.019-0.032-0.006-0.013-0.012-0.026-0.019-0.039s-0.012-0.019-0.019-0.032c-0.006-0.013-0.019-0.026-0.025-0.039s-0.013-0.019-0.025-0.032c-0.006-0.013-0.019-0.019-0.025-0.032s-0.019-0.019-0.025-0.032c-0.006-0.013-0.019-0.019-0.025-0.026-0.012-0.013-0.019-0.019-0.031-0.032-0.012-0.006-0.019-0.019-0.031-0.026s-0.025-0.019-0.037-0.026c-0.013-0.006-0.019-0.013-0.031-0.019s-0.025-0.013-0.037-0.026c-0.013-0.006-0.025-0.013-0.037-0.019s-0.025-0.013-0.037-0.019c-0.013-0.006-0.025-0.013-0.037-0.019s-0.025-0.006-0.037-0.013c-0.013-0.006-0.031-0.013-0.044-0.013s-0.025-0.006-0.031-0.006-0.031-0.006-0.050-0.006c-0.006 0-0.013-0.006-0.025-0.006l-21.162-3.016v-3.048c0-0.032 0-0.064-0.006-0.090 0-0.006 0-0.013-0.006-0.026 0-0.019-0.006-0.039-0.006-0.058-0.006-0.019-0.006-0.032-0.012-0.051 0-0.013-0.006-0.019-0.006-0.032-0.006-0.019-0.012-0.039-0.019-0.058 0-0.006-0.006-0.019-0.006-0.026-0.006-0.019-0.012-0.032-0.025-0.051-0.006-0.006-0.006-0.019-0.012-0.026-0.006-0.013-0.012-0.026-0.025-0.039-0.006-0.013-0.012-0.019-0.019-0.032s-0.012-0.019-0.019-0.032c-0.006-0.013-0.019-0.026-0.025-0.039-0.006-0.006-0.012-0.013-0.019-0.019-0.012-0.013-0.025-0.026-0.037-0.039-0.006-0.006-0.012-0.013-0.019-0.019-0.012-0.013-0.025-0.026-0.044-0.039-0.006-0.006-0.019-0.013-0.025-0.019-0.012-0.013-0.025-0.019-0.037-0.032-0.019-0.013-0.037-0.026-0.050-0.032-0.006-0.006-0.012-0.006-0.019-0.013-0.025-0.013-0.056-0.026-0.081-0.039l-4.59-1.993c-0.43-0.186-0.922 0.019-1.102 0.463s0.019 0.952 0.448 1.138l4.073 1.775v19.021c0 1.801 1.308 3.292 2.996 3.518-0.305 0.527-0.486 1.145-0.486 1.801 0 1.936 1.526 3.505 3.394 3.505s3.394-1.575 3.394-3.505c0-0.643-0.168-1.254-0.467-1.768h7.56c-0.299 0.521-0.467 1.125-0.467 1.768 0 1.936 1.526 3.505 3.394 3.505s3.394-1.575 3.394-3.505c0-1.929-1.526-3.505-3.394-3.505h-15.881c-0.972 0-1.756-0.817-1.756-1.814v-2.354c0.511 0.309 1.115 0.489 1.756 0.489zM12.211 27.778c0 0.977-0.772 1.768-1.713 1.768s-1.713-0.797-1.713-1.768c0-0.971 0.772-1.768 1.713-1.768s1.713 0.791 1.713 1.768zM25.625 27.778c0 0.977-0.772 1.768-1.713 1.768s-1.713-0.797-1.713-1.768c0-0.971 0.772-1.768 1.713-1.768s1.713 0.791 1.713 1.768zM24.722 18.865h-16.697c-0.972 0-1.756-0.817-1.756-1.813v-9.382l20.209 2.874v6.501c0 1.010-0.791 1.82-1.756 1.82z"></path>
</symbol>
<symbol id="icon-heart" viewBox="0 0 36 32">
<path fill="#585858" style="fill: var(--color1, #585858)" d="M18.182 32c-0.518 0-1.017-0.185-1.406-0.522-1.469-1.271-2.885-2.465-4.135-3.518l-0.006-0.006c-3.664-3.088-6.827-5.755-9.028-8.382-2.461-2.937-3.607-5.721-3.607-8.763 0-2.955 1.025-5.682 2.885-7.678 1.882-2.019 4.465-3.132 7.274-3.132 2.099 0 4.021 0.656 5.713 1.951 0.854 0.653 1.628 1.453 2.31 2.386 0.682-0.933 1.456-1.732 2.31-2.386 1.692-1.294 3.614-1.951 5.713-1.951 2.808 0 5.391 1.112 7.274 3.132 1.86 1.996 2.885 4.722 2.885 7.678 0 3.042-1.146 5.826-3.606 8.763-2.201 2.627-5.364 5.294-9.027 8.381-1.252 1.055-2.67 2.251-4.143 3.524-0.389 0.336-0.888 0.522-1.406 0.522zM10.158 2.107c-2.206 0-4.233 0.871-5.708 2.453-1.496 1.606-2.321 3.825-2.321 6.25 0 2.558 0.961 4.846 3.117 7.419 2.083 2.487 5.182 5.098 8.77 8.123l0.007 0.006c1.254 1.057 2.676 2.256 4.156 3.536 1.489-1.282 2.913-2.483 4.17-3.542 3.587-3.024 6.686-5.636 8.769-8.122 2.155-2.572 3.116-4.86 3.116-7.419 0-2.425-0.824-4.644-2.321-6.25-1.474-1.582-3.501-2.453-5.708-2.453-1.616 0-3.1 0.508-4.411 1.51-1.168 0.894-1.981 2.023-2.458 2.813-0.245 0.406-0.677 0.649-1.155 0.649s-0.91-0.243-1.155-0.649c-0.477-0.79-1.29-1.92-2.458-2.813-1.31-1.002-2.794-1.51-4.41-1.51z"></path>
</symbol>
<symbol id="icon-logo" viewBox="0 0 101 32">
<path fill="#3e6e00" style="fill: var(--color2, #3e6e00)" d="M28.211 10.852c0.872-0.589 1.585-0.726 1.585-0.726-0.061 0.429-0.125 0.83-0.194 1.205-0.071 0.375-0.144 0.726-0.222 1.053-0.157 0.655-0.32 1.213-0.491 1.688-0.17 0.475-0.336 0.868-0.494 1.195-0.159 0.325-0.309 0.582-0.451 0.788-0.568 0.82-0.89 0.758-0.89 0.758 0.551 0.233 1.106 0.080 1.627-0.429 0.258-0.254 0.504-0.594 0.735-1.018s0.444-0.934 0.634-1.531c0.095-0.298 0.189-0.638 0.282-1.005 0.092-0.363 0.181-0.754 0.261-1.152 0.080-0.402 0.172-0.837 0.218-1.217s0.085-0.876 0.085-1.242c0-0.77 0-0.946-0.085-1.343-0.030-0.137-0.046-0.144-0.046-0.144s0.027-0.081-0.715 0.27c-0.37 0.175-0.791 0.35-1.262 0.676-0.472 0.323-0.922 0.58-1.449 1.081-0.44 0.418-0.659 0.715-0.922 1.255-0.221 0.613-0.31 1.035-0.395 1.584-0.172 1.096-0.274 1.872-0.274 1.872 0.107-0.465 0.261-0.889 0.446-1.273s0.399-0.724 0.626-1.022c0.453-0.599 0.956-1.029 1.392-1.323z"></path>
<path fill="#3e6e00" style="fill: var(--color2, #3e6e00)" d="M26.399 8.63c-0.049-0.346-0.12-0.703-0.217-1.075-0.093-0.373-0.219-0.788-0.367-1.231-0.149-0.442-0.324-0.911-0.515-1.39-0.194-0.478-0.405-0.964-0.627-1.441-0.221-0.476-0.453-0.943-0.683-1.381-0.232-0.438-0.707-1.205-0.833-1.334-0.212-0.368-0.392-0.517-0.392-0.517l-0.24-0.258c0 0-0.029-0.054-0.222 0.388-0.14 0.32-0.284 0.388-0.41 0.775-0.133 0.321-0.247 0.431-0.379 0.775-0.157 0.409-0.332 0.538-0.505 1.034-0.175 0.497-0.584 1.247-0.758 1.809-0.173 0.561-0.522 0.98-0.667 1.564-0.143 0.583-0.266 1.166-0.35 1.726s-0.115 1.087-0.106 1.575c0.009 0.49 0.059 0.939 0.14 1.352 0.078 0.408 0.186 0.775 0.312 1.103 0.123 0.327 0.266 0.614 0.407 0.86 0.57 0.982 1.223 1.382 1.223 1.382-0.199-0.428-0.306-0.908-0.343-1.424-0.039-0.518-0.008-1.066 0.072-1.623 0.078-0.558 0.202-1.12 0.35-1.663 0.148-0.545 0.32-1.068 0.494-1.552 0.174-0.481 0.352-0.926 0.521-1.318s0.326-0.731 0.462-1.008c0.269-0.552 0.457-0.87 0.457-0.87 0.24 0.486 0.455 0.947 0.639 1.385 0.189 0.436 0.348 0.848 0.485 1.235s0.251 0.75 0.348 1.091c0.096 0.342 0.174 0.662 0.236 0.958 0.122 0.596 0.19 1.111 0.219 1.555 0.028 0.447 0.017 0.824-0.018 1.144-0.142 1.279-0.591 1.685-0.591 1.685 0.439-0.32 0.804-0.7 1.094-1.13s0.509-0.911 0.651-1.44c0.142-0.533 0.21-1.114 0.197-1.747-0.007-0.319-0.033-0.65-0.082-0.994z"></path>
<path fill="#706f6f" style="fill: var(--color3, #706f6f)" d="M5.478 5.349c0.031 0.215 0.084 0.572 0.163 1.031 0.077 0.452 0.167 0.93 0.269 1.421 0.12 0.583 0.257 1.186 0.408 1.794 0.080 0.321 0.165 0.653 0.26 0.986 0.094 0.336 0.194 0.678 0.3 1.019 0.109 0.353 0.223 0.697 0.334 1.023 0.118 0.338 0.241 0.675 0.369 1.001 0.125 0.328 0.259 0.651 0.393 0.958 0.14 0.318 0.281 0.618 0.417 0.89 0.297 0.586 0.596 1.092 0.887 1.503 0.288 0.408 0.605 0.763 0.943 1.061 0.305 0.269 0.634 0.497 0.976 0.678 0.308 0.16 0.633 0.289 0.962 0.381 0.291 0.080 0.591 0.134 0.898 0.161 0.429 0.037 0.876 0.022 1.309-0.041-0.229-0.081-0.448-0.189-0.658-0.325-0.384-0.247-0.747-0.588-1.078-1.013-0.298-0.381-0.578-0.848-0.834-1.386-0.225-0.474-0.436-1.016-0.623-1.606-0.164-0.513-0.309-1.060-0.438-1.632-0.105-0.474-0.198-0.957-0.273-1.439-0.135-0.835-0.177-1.382-0.179-1.405l-0.019-0.231 0.22 0.063c0.601 0.167 1.172 0.339 1.7 0.513 0.509 0.167 0.993 0.341 1.442 0.518 0.424 0.162 0.827 0.335 1.198 0.508 0.351 0.164 0.679 0.331 0.972 0.496 0.541 0.302 1.009 0.619 1.392 0.936 0.334 0.278 0.609 0.565 0.816 0.849 0.279 0.383 0.421 0.73 0.493 1.010 0.020-0.073 0.041-0.147 0.061-0.219 0.082-0.323 0.137-0.645 0.16-0.961 0.024-0.314 0.018-0.626-0.019-0.923-0.035-0.302-0.102-0.599-0.2-0.883-0.097-0.289-0.226-0.572-0.387-0.842-0.162-0.274-0.361-0.544-0.589-0.797-0.23-0.259-0.501-0.51-0.803-0.747-0.311-0.242-0.658-0.472-1.035-0.684s-0.83-0.439-1.349-0.678c-0.493-0.225-1.046-0.459-1.641-0.695-0.29-0.114-0.585-0.228-0.882-0.34-0.3-0.11-0.6-0.22-0.9-0.324-0.582-0.205-1.172-0.399-1.754-0.583-0.538-0.169-1.064-0.328-1.564-0.471-0.473-0.137-0.893-0.255-1.239-0.347-0.39-0.102-0.692-0.18-0.881-0.228zM13.531 19.599c-0.168 0-0.336-0.007-0.5-0.020-0.326-0.028-0.648-0.086-0.957-0.171-0.35-0.099-0.695-0.236-1.023-0.406-0.366-0.194-0.714-0.435-1.038-0.72-0.358-0.314-0.692-0.69-0.994-1.116-0.301-0.426-0.607-0.946-0.911-1.544-0.14-0.277-0.282-0.582-0.426-0.906-0.136-0.312-0.272-0.638-0.4-0.97s-0.252-0.673-0.37-1.015c-0.115-0.33-0.228-0.676-0.339-1.033-0.106-0.345-0.208-0.688-0.302-1.025-0.093-0.34-0.182-0.675-0.262-0.999-0.152-0.61-0.29-1.219-0.411-1.806-0.102-0.493-0.194-0.975-0.27-1.431-0.135-0.789-0.199-1.277-0.199-1.281l-0.031-0.235 0.226 0.056c0 0 0.421 0.104 1.116 0.287 0.349 0.094 0.769 0.212 1.247 0.349 0.5 0.145 1.029 0.303 1.57 0.473 0.585 0.185 1.178 0.383 1.763 0.588 0.302 0.104 0.605 0.214 0.904 0.326 0.301 0.111 0.599 0.225 0.891 0.342 0.6 0.238 1.157 0.472 1.654 0.701 0.528 0.242 0.989 0.474 1.373 0.69 0.392 0.22 0.753 0.459 1.075 0.711 0.317 0.248 0.601 0.512 0.844 0.784s0.453 0.557 0.628 0.85c0.171 0.289 0.311 0.594 0.416 0.903 0.104 0.306 0.175 0.626 0.214 0.95 0.038 0.32 0.046 0.653 0.020 0.989-0.027 0.333-0.083 0.676-0.171 1.017-0.086 0.337-0.206 0.687-0.355 1.041l-0.299-0.117c0 0 0.049-0.162 0.023-0.431-0.027-0.264-0.131-0.682-0.489-1.172-0.191-0.264-0.448-0.528-0.761-0.791-0.369-0.306-0.82-0.612-1.343-0.903-0.287-0.162-0.607-0.325-0.952-0.485-0.366-0.17-0.761-0.338-1.177-0.502-0.444-0.172-0.923-0.346-1.427-0.51-0.457-0.151-0.947-0.302-1.462-0.449 0.024 0.237 0.071 0.642 0.152 1.147 0.075 0.474 0.166 0.95 0.271 1.417 0.125 0.563 0.269 1.102 0.429 1.605 0.184 0.576 0.389 1.104 0.608 1.565 0.246 0.515 0.514 0.961 0.796 1.326 0.309 0.394 0.646 0.71 0.999 0.939 0.379 0.241 0.793 0.392 1.23 0.448l0.030 0.315c-0.009 0.002-0.236 0.077-0.61 0.139-0.329 0.054-0.664 0.081-0.999 0.081z"></path>
<path fill="#3e6e00" style="fill: var(--color2, #3e6e00)" d="M9.882 26.114c0.367 0.005 0.704-0.022 1.014-0.067 0.62-0.092 1.136-0.267 1.552-0.465 0.834-0.399 1.26-0.862 1.26-0.862-0.386 0.175-0.799 0.289-1.227 0.346-0.426 0.058-0.87 0.062-1.321 0.024-0.45-0.040-0.908-0.12-1.362-0.234-0.453-0.112-0.903-0.258-1.331-0.422-0.431-0.163-0.841-0.345-1.215-0.526-0.373-0.182-0.711-0.363-0.995-0.526-0.565-0.326-0.917-0.565-0.917-0.565 0.402-0.136 0.791-0.263 1.168-0.38 0.38-0.117 0.749-0.226 1.106-0.325 0.357-0.101 0.701-0.19 1.030-0.269 0.33-0.082 0.644-0.154 0.944-0.217 0.598-0.124 1.126-0.206 1.586-0.253 0.461-0.049 0.851-0.063 1.178-0.054 1.308 0.033 1.624 0.505 1.624 0.505-0.233-0.477-0.556-0.889-0.968-1.232-0.413-0.344-0.917-0.615-1.497-0.801-0.291-0.094-0.602-0.165-0.931-0.215-0.327-0.051-0.669-0.076-1.028-0.081-0.358-0.003-0.728 0.016-1.108 0.058-0.38 0.040-0.769 0.102-1.163 0.19-0.394 0.086-0.821 0.193-1.256 0.307-0.438 0.117-0.886 0.242-1.326 0.368-0.44 0.128-0.87 0.254-1.277 0.374-0.409 0.121-0.791 0.236-1.136 0.339-0.69 0.207-1.267 0.384-1.663 0.507s-0.625 0.198-0.625 0.198 0.316 0.239 0.845 0.607c0.265 0.184 0.586 0.399 0.951 0.63 0.365 0.23 0.772 0.477 1.212 0.726 0.438 0.247 0.907 0.493 1.39 0.726s0.98 0.452 1.476 0.647c0.496 0.196 0.989 0.366 1.464 0.508 0.475 0.139 0.933 0.249 1.359 0.321s0.82 0.108 1.185 0.113z"></path>
<path fill="#3e6e00" style="fill: var(--color2, #3e6e00)" d="M16.715 27.802c0.27-0.482 0.195-0.823 0.195-0.823-0.143 0.226-0.355 0.437-0.618 0.631-0.259 0.194-0.57 0.372-0.91 0.532-0.338 0.161-0.707 0.301-1.089 0.424-0.381 0.122-0.771 0.224-1.154 0.308-0.385 0.081-0.76 0.15-1.108 0.202-0.349 0.051-0.668 0.088-0.94 0.115-0.546 0.051-0.9 0.064-0.9 0.064 0.221-0.373 0.454-0.712 0.7-1.024s0.506-0.589 0.769-0.842c0.264-0.255 0.526-0.468 0.782-0.648 0.254-0.182 0.501-0.333 0.732-0.457 0.927-0.491 1.534-0.448 1.534-0.448-0.546-0.082-1.098-0.106-1.642-0.079-0.545 0.028-1.076 0.109-1.576 0.242-0.5 0.135-0.962 0.317-1.373 0.55-0.41 0.231-0.766 0.505-1.058 0.823-0.292 0.316-0.578 0.694-0.833 1.066-0.256 0.373-0.481 0.739-0.66 1.042-0.359 0.606-0.579 1.048-0.579 1.048s0.303 0.005 0.798-0.005c0.248-0.003 0.546-0.014 0.878-0.031s0.7-0.041 1.089-0.075c0.39-0.036 0.804-0.081 1.224-0.143 0.421-0.059 0.85-0.135 1.269-0.221 0.422-0.087 0.834-0.187 1.224-0.297 0.388-0.108 0.754-0.23 1.081-0.359 0.654-0.257 1.127-0.534 1.471-0.81 0.346-0.274 0.561-0.543 0.692-0.786z"></path>
<path fill="#3e6e00" style="fill: var(--color2, #3e6e00)" d="M22.002 26.115c0.171 0.286 0.028 0.713-0.278 1.173-0.304 0.461-0.767 0.949-1.243 1.376s-0.968 0.806-1.344 1.074c-0.373 0.269-0.628 0.432-0.628 0.432-0.426-0.454-0.639-0.882-0.711-1.278-0.073-0.394 0.012-0.742 0.164-1.035 0.304-0.586 0.867-0.867 0.867-0.867-0.547 0.24-1.031 0.489-1.444 0.741-0.412 0.249-0.752 0.506-1.004 0.759-0.506 0.505-0.679 1.006-0.494 1.475 0.093 0.233 0.253 0.486 0.435 0.727 0.183 0.243 0.385 0.474 0.567 0.664 0.361 0.381 0.665 0.643 0.665 0.643s0.206-0.129 0.54-0.346c0.332-0.221 0.79-0.535 1.292-0.907 0.252-0.185 0.515-0.392 0.783-0.609 0.265-0.215 0.53-0.444 0.787-0.678 0.513-0.468 0.981-0.952 1.311-1.387 0.66-0.869 0.611-1.361 0.381-1.639s-0.648-0.319-0.648-0.319z"></path>
<path fill="#333" style="fill: var(--color4, #333)" d="M80.693 27.131c-0.025-0.003-0.057-0.006-0.096-0.006s-0.069 0.003-0.096 0.006c-0.025 0.004-0.047 0.009-0.064 0.019s-0.031 0.020-0.041 0.034c-0.011 0.017-0.017 0.035-0.024 0.060l-0.538 2.591c-0.005 0.010-0.005 0.021-0.002 0.028 0.003 0.009 0.011 0.018 0.021 0.024s0.024 0.011 0.043 0.013c0.018 0.004 0.043 0.005 0.075 0.005 0.029 0 0.055-0.001 0.075-0.005 0.022-0.002 0.041-0.006 0.056-0.013 0.013-0.006 0.025-0.015 0.033-0.024 0.008-0.007 0.013-0.018 0.015-0.028l0.615-2.591c0.007-0.024 0.007-0.040 0.007-0.057-0.003-0.014-0.012-0.026-0.024-0.035-0.013-0.011-0.032-0.017-0.055-0.020zM80.072 30.294c-0.015-0.012-0.040-0.020-0.068-0.027-0.027-0.007-0.065-0.008-0.11-0.008-0.054 0-0.098 0.004-0.131 0.011-0.031 0.009-0.062 0.025-0.085 0.047-0.019 0.015-0.033 0.038-0.047 0.067-0.014 0.027-0.024 0.058-0.032 0.087-0.010 0.033-0.015 0.063-0.018 0.090-0.006 0.031-0.007 0.055-0.007 0.074 0 0.021 0.002 0.044 0.009 0.059 0.006 0.018 0.016 0.030 0.031 0.041s0.035 0.019 0.064 0.024c0.026 0.006 0.060 0.009 0.102 0.009 0.055 0 0.101-0.006 0.138-0.015 0.034-0.011 0.065-0.025 0.088-0.050 0.018-0.013 0.032-0.033 0.046-0.061 0.012-0.025 0.024-0.054 0.032-0.085 0.010-0.030 0.015-0.060 0.022-0.089 0.005-0.030 0.007-0.054 0.007-0.076 0-0.020-0.002-0.039-0.007-0.055-0.006-0.016-0.015-0.031-0.031-0.041zM78.537 28.985c-0.038 0.058-0.104 0.11-0.198 0.154-0.094 0.045-0.218 0.080-0.373 0.104-0.156 0.025-0.353 0.038-0.587 0.038h-0.327c0.038-0.107 0.087-0.209 0.146-0.307s0.131-0.185 0.217-0.26c0.084-0.074 0.184-0.132 0.294-0.177s0.238-0.067 0.378-0.067c0.163 0 0.287 0.031 0.375 0.093 0.088 0.060 0.133 0.142 0.133 0.243 0 0.062-0.018 0.122-0.057 0.18zM78.772 28.391c-0.068-0.054-0.156-0.1-0.264-0.137s-0.24-0.053-0.394-0.053c-0.188 0-0.357 0.026-0.508 0.080-0.148 0.054-0.281 0.125-0.394 0.213-0.115 0.091-0.213 0.193-0.295 0.313-0.083 0.116-0.151 0.237-0.202 0.367-0.053 0.126-0.091 0.256-0.117 0.386-0.024 0.129-0.037 0.249-0.037 0.363 0 0.145 0.021 0.272 0.063 0.381 0.042 0.108 0.104 0.2 0.188 0.271 0.083 0.074 0.189 0.126 0.314 0.162 0.127 0.036 0.274 0.055 0.442 0.055 0.089 0 0.183-0.006 0.275-0.016s0.179-0.024 0.258-0.040c0.079-0.017 0.146-0.034 0.204-0.054s0.099-0.042 0.122-0.063c0.013-0.011 0.026-0.027 0.037-0.046 0.010-0.019 0.017-0.037 0.023-0.055s0.011-0.036 0.014-0.053c0.002-0.016 0.004-0.031 0.004-0.041 0-0.018-0.003-0.033-0.011-0.043-0.007-0.011-0.017-0.018-0.034-0.018-0.013 0-0.044 0.009-0.090 0.026-0.043 0.016-0.101 0.032-0.174 0.054-0.071 0.018-0.156 0.038-0.254 0.053-0.098 0.017-0.21 0.027-0.335 0.027-0.237 0-0.408-0.054-0.514-0.16-0.104-0.105-0.159-0.256-0.159-0.45 0-0.056 0.003-0.114 0.010-0.178 0.006-0.064 0.016-0.129 0.031-0.196h0.336c0.295 0 0.546-0.018 0.755-0.054 0.207-0.036 0.381-0.087 0.512-0.155 0.134-0.066 0.233-0.148 0.295-0.242 0.060-0.095 0.091-0.201 0.091-0.32 0-0.061-0.014-0.125-0.043-0.194-0.031-0.067-0.081-0.129-0.15-0.185zM76.37 28.242h-0.738l0.131-0.587c0.001-0.012 0-0.020-0.001-0.029-0.006-0.009-0.012-0.016-0.024-0.022s-0.029-0.011-0.050-0.013c-0.021-0.005-0.050-0.005-0.083-0.005-0.037 0-0.065 0.001-0.086 0.005-0.023 0.002-0.041 0.006-0.056 0.013s-0.026 0.013-0.033 0.022c-0.009 0.009-0.013 0.017-0.016 0.029l-0.132 0.587h-0.398c-0.022 0-0.040 0.006-0.055 0.017-0.017 0.012-0.029 0.027-0.041 0.045-0.008 0.020-0.017 0.040-0.020 0.062s-0.006 0.047-0.006 0.071c0 0.028 0.005 0.048 0.017 0.057 0.009 0.012 0.025 0.017 0.044 0.017h0.399l-0.32 1.443c-0.007 0.024-0.013 0.050-0.016 0.080-0.006 0.027-0.009 0.055-0.017 0.083-0.004 0.027-0.007 0.054-0.008 0.079-0.004 0.025-0.004 0.050-0.004 0.070 0 0.090 0.012 0.167 0.037 0.233 0.024 0.066 0.063 0.119 0.113 0.164 0.053 0.043 0.115 0.074 0.193 0.094 0.076 0.020 0.167 0.030 0.274 0.030 0.035 0 0.078-0.002 0.118-0.007 0.042-0.006 0.082-0.014 0.121-0.022 0.037-0.008 0.071-0.017 0.1-0.028 0.030-0.011 0.052-0.023 0.067-0.035 0.010-0.011 0.022-0.023 0.029-0.039 0.010-0.015 0.017-0.030 0.024-0.049 0.004-0.018 0.010-0.037 0.014-0.057s0.006-0.039 0.006-0.056c0-0.024-0.004-0.037-0.014-0.048-0.008-0.008-0.021-0.012-0.036-0.012s-0.035 0.005-0.057 0.012c-0.024 0.012-0.050 0.020-0.081 0.030-0.033 0.011-0.068 0.021-0.111 0.030-0.043 0.008-0.092 0.013-0.146 0.013-0.106 0-0.178-0.025-0.223-0.072-0.044-0.047-0.067-0.119-0.067-0.22 0-0.033 0.005-0.075 0.011-0.129 0.008-0.051 0.014-0.097 0.022-0.138l0.323-1.448h0.74c0.013 0 0.028-0.005 0.038-0.008 0.011-0.006 0.022-0.013 0.031-0.021 0.008-0.011 0.017-0.022 0.026-0.034 0.006-0.011 0.014-0.025 0.019-0.038s0.007-0.027 0.008-0.041c0.003-0.013 0.003-0.028 0.003-0.041 0-0.018-0.004-0.037-0.011-0.057-0.010-0.019-0.028-0.030-0.056-0.030zM74.059 28.307c-0.042-0.021-0.092-0.039-0.147-0.054-0.057-0.017-0.118-0.030-0.185-0.038-0.067-0.010-0.134-0.013-0.204-0.013-0.145 0-0.279 0.017-0.402 0.056-0.122 0.038-0.229 0.091-0.316 0.16-0.089 0.069-0.158 0.151-0.206 0.247-0.051 0.094-0.076 0.199-0.076 0.312 0 0.11 0.028 0.202 0.080 0.274s0.12 0.131 0.202 0.183c0.079 0.049 0.165 0.093 0.26 0.131 0.094 0.036 0.181 0.076 0.262 0.116s0.148 0.087 0.201 0.138c0.053 0.051 0.080 0.118 0.080 0.198 0 0.069-0.014 0.131-0.042 0.19-0.027 0.061-0.071 0.113-0.128 0.161-0.057 0.046-0.131 0.083-0.221 0.109-0.087 0.029-0.191 0.042-0.314 0.042s-0.224-0.013-0.308-0.038c-0.084-0.024-0.15-0.051-0.204-0.081-0.053-0.028-0.097-0.056-0.13-0.080-0.035-0.025-0.064-0.037-0.087-0.037-0.009 0-0.019 0.002-0.029 0.009-0.008 0.006-0.016 0.015-0.024 0.025-0.008 0.014-0.014 0.026-0.022 0.040-0.004 0.015-0.011 0.028-0.014 0.046-0.006 0.014-0.008 0.030-0.013 0.046-0.001 0.016-0.004 0.032-0.004 0.045 0 0.020 0.004 0.037 0.012 0.050s0.017 0.030 0.033 0.043c0.027 0.022 0.062 0.046 0.11 0.071s0.104 0.047 0.169 0.066c0.065 0.021 0.137 0.037 0.216 0.050s0.166 0.020 0.256 0.020c0.167 0 0.319-0.020 0.457-0.061 0.136-0.042 0.252-0.1 0.351-0.176 0.097-0.073 0.172-0.16 0.224-0.262s0.078-0.212 0.078-0.333c0-0.109-0.026-0.2-0.080-0.272-0.053-0.072-0.121-0.134-0.2-0.184-0.080-0.052-0.169-0.095-0.261-0.132-0.094-0.037-0.181-0.076-0.262-0.115-0.080-0.041-0.147-0.087-0.202-0.139-0.051-0.051-0.078-0.116-0.078-0.193 0-0.060 0.013-0.116 0.039-0.173 0.025-0.055 0.064-0.105 0.113-0.147 0.050-0.043 0.111-0.079 0.188-0.104 0.074-0.024 0.16-0.037 0.256-0.037 0.094 0 0.171 0.008 0.237 0.024 0.065 0.019 0.123 0.038 0.17 0.061 0.046 0.022 0.083 0.043 0.115 0.059 0.029 0.019 0.056 0.027 0.080 0.027 0.013 0 0.027-0.005 0.040-0.020s0.022-0.031 0.034-0.052c0.010-0.021 0.016-0.041 0.022-0.064 0.005-0.021 0.006-0.041 0.006-0.057 0-0.033-0.010-0.060-0.032-0.077-0.023-0.019-0.055-0.038-0.099-0.059zM71.26 29.357c-0.041 0.171-0.099 0.328-0.179 0.471-0.079 0.141-0.17 0.264-0.274 0.368s-0.217 0.184-0.335 0.242c-0.12 0.056-0.239 0.086-0.358 0.086-0.099 0-0.178-0.018-0.239-0.057-0.061-0.034-0.108-0.082-0.143-0.136-0.036-0.056-0.058-0.119-0.070-0.188-0.013-0.069-0.019-0.138-0.019-0.204 0-0.080 0.010-0.171 0.025-0.275 0.016-0.107 0.040-0.211 0.073-0.32 0.035-0.109 0.077-0.214 0.129-0.32s0.115-0.197 0.187-0.279c0.073-0.083 0.157-0.149 0.253-0.2s0.202-0.076 0.319-0.076c0.148 0 0.281 0.035 0.402 0.103 0.117 0.067 0.231 0.17 0.337 0.305l-0.109 0.478zM71.822 28.245c-0.011-0.004-0.027-0.009-0.046-0.012s-0.045-0.004-0.074-0.004c-0.057 0-0.099 0.006-0.129 0.016s-0.047 0.028-0.053 0.053l-0.061 0.261c-0.1-0.112-0.211-0.197-0.335-0.263-0.125-0.062-0.28-0.094-0.463-0.094-0.174 0-0.329 0.030-0.468 0.090-0.136 0.060-0.255 0.14-0.359 0.241-0.103 0.1-0.192 0.213-0.26 0.338-0.072 0.126-0.13 0.253-0.176 0.381-0.043 0.13-0.076 0.259-0.096 0.38-0.019 0.123-0.029 0.23-0.029 0.323 0 0.1 0.010 0.2 0.031 0.3s0.062 0.19 0.12 0.271c0.060 0.079 0.14 0.145 0.243 0.193s0.234 0.075 0.394 0.075c0.115 0 0.232-0.020 0.346-0.060s0.218-0.089 0.311-0.149c0.093-0.058 0.174-0.123 0.24-0.189 0.069-0.071 0.116-0.135 0.139-0.193l-0.109 0.493c-0.005 0.012-0.005 0.024 0 0.032s0.012 0.017 0.024 0.023c0.012 0.004 0.027 0.008 0.045 0.010 0.020 0.004 0.042 0.004 0.072 0.004 0.062 0 0.105-0.006 0.131-0.014 0.027-0.012 0.040-0.030 0.047-0.055l0.534-2.397c0.001-0.012 0.001-0.020-0.003-0.030-0.002-0.007-0.008-0.015-0.019-0.023zM69.061 28.242h-0.737l0.13-0.587c0.003-0.012 0.003-0.020 0-0.029-0.004-0.009-0.011-0.016-0.025-0.022-0.011-0.006-0.028-0.011-0.049-0.013-0.021-0.005-0.049-0.005-0.082-0.005-0.037 0-0.065 0.001-0.088 0.005-0.023 0.002-0.041 0.006-0.056 0.013-0.017 0.006-0.026 0.013-0.034 0.022s-0.012 0.017-0.014 0.029l-0.134 0.587h-0.398c-0.021 0-0.040 0.006-0.056 0.017-0.016 0.012-0.028 0.027-0.039 0.045-0.010 0.020-0.016 0.040-0.021 0.062s-0.007 0.047-0.007 0.071c0 0.028 0.007 0.048 0.018 0.057 0.010 0.012 0.025 0.017 0.045 0.017h0.399l-0.323 1.443c-0.006 0.024-0.010 0.050-0.016 0.080-0.005 0.027-0.010 0.055-0.014 0.083-0.005 0.027-0.008 0.054-0.010 0.079-0.004 0.025-0.004 0.050-0.004 0.070 0 0.090 0.013 0.167 0.038 0.233 0.024 0.066 0.064 0.119 0.114 0.164 0.050 0.043 0.112 0.074 0.19 0.094s0.17 0.030 0.275 0.030c0.038 0 0.078-0.002 0.118-0.007 0.041-0.006 0.081-0.014 0.121-0.022 0.037-0.008 0.071-0.017 0.101-0.028s0.051-0.023 0.065-0.035c0.012-0.011 0.022-0.023 0.031-0.039 0.009-0.015 0.016-0.030 0.023-0.049 0.006-0.018 0.010-0.037 0.014-0.057 0.003-0.020 0.007-0.039 0.007-0.056 0-0.024-0.006-0.037-0.015-0.048-0.009-0.008-0.020-0.012-0.038-0.012-0.014 0-0.033 0.005-0.055 0.012-0.024 0.012-0.050 0.020-0.083 0.030s-0.069 0.021-0.111 0.030c-0.043 0.008-0.091 0.013-0.145 0.013-0.105 0-0.179-0.025-0.223-0.072-0.046-0.047-0.069-0.119-0.069-0.22 0-0.033 0.006-0.075 0.011-0.129 0.008-0.051 0.016-0.097 0.024-0.138l0.324-1.448h0.739c0.014 0 0.025-0.005 0.036-0.008 0.014-0.006 0.024-0.013 0.032-0.021 0.009-0.011 0.017-0.022 0.026-0.034 0.008-0.011 0.014-0.025 0.020-0.038 0.003-0.013 0.007-0.027 0.009-0.041 0.003-0.013 0.003-0.028 0.003-0.041 0-0.018-0.003-0.037-0.012-0.057-0.010-0.019-0.029-0.030-0.057-0.030zM66.268 27.125c-0.012-0.010-0.034-0.020-0.065-0.032-0.031-0.009-0.068-0.019-0.106-0.028-0.040-0.008-0.082-0.012-0.128-0.018-0.046-0.004-0.087-0.006-0.124-0.006-0.122 0-0.234 0.017-0.336 0.049s-0.195 0.083-0.274 0.152c-0.081 0.068-0.149 0.154-0.207 0.258s-0.103 0.23-0.132 0.373l-0.084 0.37h-0.399c-0.014 0-0.028 0.004-0.039 0.010-0.012 0.006-0.022 0.015-0.032 0.024-0.009 0.011-0.017 0.020-0.024 0.037-0.004 0.012-0.009 0.025-0.013 0.040s-0.007 0.031-0.010 0.046c-0 0.016-0.003 0.030-0.003 0.045 0 0.025 0.006 0.044 0.017 0.052 0.007 0.012 0.024 0.017 0.043 0.017h0.402l-0.506 2.262c-0.025 0.116-0.054 0.216-0.087 0.301-0.031 0.084-0.072 0.154-0.118 0.208-0.047 0.057-0.106 0.097-0.173 0.122-0.066 0.027-0.145 0.040-0.239 0.040-0.032 0-0.061-0.002-0.082-0.004-0.022-0.002-0.041-0.005-0.057-0.009-0.015-0.002-0.030-0.006-0.043-0.008s-0.025-0.003-0.040-0.003c-0.011 0-0.020 0.003-0.031 0.009-0.007 0.008-0.014 0.016-0.020 0.029s-0.013 0.027-0.018 0.041c-0.006 0.014-0.010 0.027-0.010 0.040-0.005 0.014-0.007 0.027-0.010 0.037s-0.004 0.020-0.004 0.025c0 0.013 0.001 0.026 0.007 0.035 0.002 0.010 0.007 0.020 0.014 0.028 0.014 0.008 0.043 0.021 0.090 0.031 0.049 0.011 0.114 0.017 0.196 0.017 0.125 0 0.239-0.017 0.341-0.048 0.102-0.034 0.193-0.084 0.273-0.152 0.078-0.070 0.147-0.158 0.204-0.268 0.056-0.106 0.102-0.236 0.135-0.384l0.525-2.352h0.658c0.010 0 0.019-0.004 0.031-0.008s0.021-0.011 0.029-0.019c0.010-0.008 0.017-0.017 0.026-0.028 0.008-0.013 0.015-0.027 0.020-0.040 0.007-0.013 0.011-0.028 0.014-0.046 0.003-0.017 0.004-0.036 0.004-0.054 0-0.027-0.007-0.046-0.018-0.058-0.012-0.011-0.028-0.017-0.046-0.017h-0.656l0.052-0.258c0.027-0.116 0.055-0.216 0.088-0.301 0.032-0.084 0.072-0.154 0.121-0.21s0.106-0.097 0.174-0.123c0.068-0.025 0.151-0.039 0.246-0.039 0.052 0 0.096 0.004 0.138 0.012 0.040 0.008 0.075 0.016 0.107 0.024 0.030 0.009 0.055 0.018 0.076 0.026 0.023 0.008 0.040 0.011 0.055 0.011 0.010 0 0.017-0.003 0.026-0.011 0.011-0.008 0.018-0.017 0.025-0.030 0.006-0.011 0.011-0.025 0.014-0.038 0.002-0.013 0.006-0.029 0.008-0.042s0.005-0.024 0.005-0.034c0-0.011 0-0.018 0-0.022 0-0.014-0-0.030-0.007-0.045-0.005-0.015-0.013-0.028-0.025-0.038zM63.278 29.434c-0.020 0.112-0.050 0.219-0.090 0.325-0.040 0.105-0.092 0.204-0.155 0.295-0.060 0.092-0.134 0.172-0.216 0.242-0.085 0.069-0.178 0.123-0.285 0.161-0.104 0.040-0.221 0.061-0.353 0.061-0.122 0-0.229-0.013-0.316-0.045-0.085-0.028-0.155-0.070-0.21-0.123-0.054-0.054-0.092-0.121-0.118-0.197-0.024-0.080-0.033-0.167-0.033-0.263 0-0.109 0.010-0.221 0.028-0.334 0.020-0.111 0.051-0.219 0.092-0.325 0.040-0.105 0.090-0.204 0.152-0.294 0.063-0.093 0.134-0.172 0.217-0.24 0.085-0.067 0.179-0.121 0.285-0.162 0.106-0.040 0.222-0.058 0.353-0.058 0.123 0 0.229 0.014 0.316 0.044s0.157 0.069 0.212 0.125c0.053 0.053 0.092 0.119 0.115 0.197 0.024 0.076 0.036 0.164 0.036 0.261 0 0.112-0.010 0.221-0.029 0.331zM63.637 29.49c0.028-0.136 0.042-0.271 0.042-0.403 0-0.137-0.019-0.262-0.057-0.37s-0.1-0.203-0.182-0.278c-0.082-0.077-0.189-0.137-0.319-0.177-0.128-0.041-0.284-0.060-0.468-0.060-0.17 0-0.327 0.022-0.468 0.070-0.142 0.049-0.27 0.112-0.382 0.195-0.115 0.081-0.213 0.176-0.296 0.288-0.086 0.11-0.156 0.229-0.211 0.354-0.058 0.126-0.099 0.256-0.127 0.392-0.028 0.135-0.041 0.269-0.041 0.403 0 0.136 0.018 0.261 0.056 0.373 0.039 0.108 0.101 0.202 0.184 0.279 0.082 0.076 0.188 0.135 0.317 0.176s0.285 0.061 0.468 0.061c0.171 0 0.327-0.024 0.469-0.073 0.142-0.047 0.269-0.112 0.381-0.194 0.114-0.081 0.213-0.177 0.297-0.289s0.156-0.229 0.213-0.354c0.054-0.128 0.096-0.259 0.124-0.393zM58.897 28.985c-0.038 0.058-0.105 0.11-0.198 0.154-0.094 0.045-0.217 0.080-0.373 0.104-0.154 0.025-0.351 0.038-0.586 0.038h-0.327c0.037-0.107 0.085-0.209 0.146-0.307 0.059-0.099 0.132-0.185 0.216-0.26 0.085-0.074 0.182-0.132 0.294-0.177s0.238-0.067 0.378-0.067c0.163 0 0.287 0.031 0.377 0.093 0.087 0.060 0.131 0.142 0.131 0.243 0 0.062-0.018 0.122-0.057 0.18zM59.134 28.391c-0.070-0.054-0.157-0.1-0.263-0.137-0.111-0.036-0.243-0.053-0.399-0.053-0.186 0-0.355 0.026-0.503 0.080s-0.283 0.125-0.394 0.213c-0.115 0.091-0.215 0.193-0.295 0.313-0.085 0.116-0.152 0.237-0.204 0.367-0.053 0.126-0.089 0.256-0.115 0.386-0.023 0.129-0.036 0.249-0.036 0.363 0 0.145 0.020 0.272 0.062 0.381 0.041 0.108 0.102 0.2 0.187 0.271 0.085 0.074 0.189 0.126 0.314 0.162s0.274 0.055 0.441 0.055c0.090 0 0.182-0.006 0.276-0.016s0.179-0.024 0.258-0.040c0.078-0.017 0.146-0.034 0.204-0.054s0.098-0.042 0.123-0.063c0.016-0.011 0.025-0.027 0.035-0.046s0.017-0.037 0.023-0.055c0.007-0.018 0.011-0.036 0.014-0.053 0.001-0.016 0.004-0.031 0.004-0.041 0-0.018-0.004-0.033-0.010-0.043-0.007-0.011-0.018-0.018-0.033-0.018-0.014 0-0.045 0.009-0.092 0.026-0.043 0.016-0.101 0.032-0.172 0.054-0.072 0.018-0.158 0.038-0.256 0.053-0.098 0.017-0.21 0.027-0.333 0.027-0.236 0-0.41-0.054-0.515-0.16-0.107-0.105-0.157-0.256-0.157-0.45 0-0.056 0.003-0.114 0.008-0.178s0.015-0.129 0.029-0.196h0.338c0.295 0 0.545-0.018 0.753-0.054 0.209-0.036 0.382-0.087 0.512-0.155 0.136-0.066 0.233-0.148 0.295-0.242 0.063-0.095 0.093-0.201 0.093-0.32 0-0.061-0.014-0.125-0.046-0.194-0.029-0.067-0.079-0.129-0.146-0.185zM56.38 28.307c-0.044-0.021-0.093-0.039-0.151-0.054-0.055-0.017-0.116-0.030-0.185-0.038-0.066-0.010-0.133-0.013-0.203-0.013-0.144 0-0.28 0.017-0.403 0.056-0.122 0.038-0.227 0.091-0.316 0.16-0.088 0.069-0.159 0.151-0.206 0.247-0.050 0.094-0.075 0.199-0.075 0.312 0 0.11 0.028 0.202 0.079 0.274 0.054 0.071 0.121 0.131 0.201 0.183 0.080 0.049 0.168 0.093 0.262 0.131 0.093 0.036 0.181 0.076 0.262 0.116s0.146 0.087 0.199 0.138c0.053 0.051 0.080 0.118 0.080 0.198 0 0.069-0.014 0.131-0.040 0.19-0.028 0.061-0.070 0.113-0.13 0.161-0.057 0.046-0.129 0.083-0.219 0.109-0.088 0.029-0.196 0.042-0.317 0.042-0.12 0-0.223-0.013-0.306-0.038-0.083-0.024-0.15-0.051-0.204-0.081-0.055-0.028-0.1-0.056-0.132-0.080-0.033-0.025-0.063-0.037-0.086-0.037-0.011 0-0.020 0.002-0.028 0.009s-0.017 0.015-0.025 0.025c-0.008 0.014-0.014 0.026-0.021 0.040-0.005 0.015-0.011 0.028-0.015 0.046-0.006 0.014-0.011 0.030-0.013 0.046s-0.002 0.032-0.002 0.045c0 0.020 0.002 0.037 0.011 0.050 0.007 0.014 0.017 0.030 0.033 0.043 0.028 0.022 0.062 0.046 0.108 0.071s0.104 0.047 0.171 0.066c0.064 0.021 0.135 0.037 0.216 0.050 0.079 0.013 0.163 0.020 0.255 0.020 0.166 0 0.319-0.020 0.454-0.061 0.137-0.042 0.255-0.1 0.353-0.176 0.097-0.073 0.171-0.16 0.224-0.262 0.051-0.103 0.078-0.212 0.078-0.333 0-0.109-0.027-0.2-0.081-0.272s-0.122-0.134-0.2-0.184c-0.081-0.052-0.17-0.095-0.262-0.132-0.093-0.037-0.181-0.076-0.261-0.115-0.082-0.041-0.148-0.087-0.202-0.139s-0.078-0.116-0.078-0.193c0-0.060 0.011-0.116 0.038-0.173 0.026-0.055 0.064-0.105 0.114-0.147s0.114-0.079 0.188-0.104c0.074-0.024 0.161-0.037 0.256-0.037s0.174 0.008 0.238 0.024c0.065 0.019 0.121 0.038 0.168 0.061 0.045 0.022 0.086 0.043 0.115 0.059 0.031 0.019 0.057 0.027 0.081 0.027 0.013 0 0.027-0.005 0.040-0.020 0.014-0.016 0.024-0.031 0.034-0.052 0.010-0.021 0.017-0.041 0.021-0.064 0.006-0.021 0.008-0.041 0.008-0.057 0-0.033-0.010-0.060-0.032-0.077-0.022-0.019-0.055-0.038-0.097-0.059zM54.417 28.454c0.006-0.018 0.010-0.037 0.013-0.056 0.003-0.017 0.007-0.034 0.007-0.047 0.002-0.014 0.003-0.023 0.003-0.029 0-0.024-0.006-0.039-0.017-0.047-0.012-0.011-0.031-0.021-0.052-0.030-0.025-0.009-0.053-0.016-0.084-0.022-0.032-0.008-0.065-0.013-0.101-0.017-0.039-0.004-0.073-0.005-0.108-0.005-0.081 0-0.163 0.014-0.244 0.046-0.083 0.032-0.16 0.073-0.233 0.126-0.074 0.051-0.143 0.112-0.206 0.18-0.063 0.069-0.115 0.137-0.159 0.211l0.102-0.467c0.002-0.012 0.001-0.020-0.002-0.030-0.002-0.007-0.008-0.015-0.020-0.023-0.010-0.004-0.027-0.009-0.046-0.012s-0.046-0.004-0.074-0.004c-0.028 0-0.053 0.002-0.075 0.004-0.024 0.002-0.040 0.008-0.055 0.012-0.015 0.008-0.026 0.016-0.034 0.023-0.007 0.009-0.013 0.018-0.013 0.030l-0.532 2.397c-0.003 0.011-0.003 0.020 0 0.028 0.003 0.011 0.011 0.018 0.024 0.023 0.011 0.004 0.028 0.009 0.051 0.012 0.021 0.005 0.047 0.006 0.084 0.006 0.033 0 0.063-0.001 0.086-0.006 0.023-0.003 0.042-0.008 0.057-0.012 0.014-0.005 0.025-0.012 0.032-0.023 0.008-0.009 0.013-0.017 0.016-0.028l0.233-1.061c0.040-0.165 0.095-0.319 0.173-0.457 0.078-0.141 0.165-0.262 0.257-0.361 0.094-0.102 0.187-0.179 0.281-0.235s0.175-0.086 0.245-0.086c0.039 0 0.076 0.004 0.108 0.011 0.031 0.007 0.057 0.015 0.083 0.024s0.046 0.017 0.067 0.024c0.017 0.007 0.033 0.012 0.048 0.012 0.012 0 0.024-0.006 0.035-0.017 0.009-0.011 0.018-0.024 0.026-0.041 0.011-0.016 0.017-0.032 0.024-0.052zM51.68 28.985c-0.039 0.058-0.106 0.11-0.197 0.154-0.095 0.045-0.218 0.080-0.375 0.104-0.156 0.025-0.349 0.038-0.587 0.038h-0.328c0.037-0.107 0.086-0.209 0.146-0.307s0.133-0.185 0.216-0.26c0.085-0.074 0.184-0.132 0.295-0.177s0.238-0.067 0.379-0.067c0.161 0 0.287 0.031 0.374 0.093 0.090 0.060 0.134 0.142 0.134 0.243 0 0.062-0.020 0.122-0.058 0.18zM51.915 28.391c-0.066-0.054-0.156-0.1-0.263-0.137-0.109-0.036-0.241-0.053-0.396-0.053-0.185 0-0.355 0.026-0.506 0.080-0.148 0.054-0.281 0.125-0.394 0.213-0.114 0.091-0.214 0.193-0.295 0.313-0.081 0.116-0.15 0.237-0.203 0.367-0.051 0.126-0.090 0.256-0.114 0.386-0.025 0.129-0.037 0.249-0.037 0.363 0 0.145 0.021 0.272 0.062 0.381 0.042 0.108 0.103 0.2 0.185 0.271 0.085 0.074 0.19 0.126 0.316 0.162s0.272 0.055 0.441 0.055c0.092 0 0.184-0.006 0.277-0.016 0.092-0.011 0.176-0.024 0.254-0.040 0.079-0.017 0.147-0.034 0.207-0.054 0.057-0.020 0.098-0.042 0.121-0.063 0.015-0.011 0.025-0.027 0.035-0.046 0.011-0.019 0.020-0.037 0.025-0.055s0.010-0.036 0.013-0.053c0.003-0.016 0.004-0.031 0.004-0.041 0-0.018-0.004-0.033-0.010-0.043-0.007-0.011-0.018-0.018-0.035-0.018-0.015 0-0.046 0.009-0.089 0.026s-0.103 0.032-0.174 0.054c-0.072 0.018-0.156 0.038-0.255 0.053-0.099 0.017-0.21 0.027-0.335 0.027-0.238 0-0.409-0.054-0.513-0.16-0.105-0.105-0.159-0.256-0.159-0.45 0-0.056 0.002-0.114 0.010-0.178 0.004-0.064 0.014-0.129 0.027-0.196h0.341c0.294 0 0.543-0.018 0.753-0.054 0.207-0.036 0.379-0.087 0.513-0.155 0.133-0.066 0.232-0.148 0.294-0.242 0.061-0.095 0.093-0.201 0.093-0.32 0-0.061-0.016-0.125-0.046-0.194-0.032-0.067-0.079-0.129-0.149-0.185zM49.468 28.242c-0.013-0.003-0.029-0.006-0.051-0.008-0.021-0.002-0.049-0.004-0.083-0.004-0.037 0-0.068 0.002-0.094 0.004-0.024 0.002-0.043 0.007-0.059 0.012s-0.027 0.012-0.036 0.021c-0.006 0.009-0.014 0.019-0.016 0.031-0.088 0.228-0.171 0.434-0.253 0.617-0.082 0.185-0.167 0.357-0.257 0.522-0.091 0.162-0.185 0.323-0.291 0.477-0.101 0.151-0.218 0.31-0.346 0.478l-0.011 0.014v-0.014l-0.371-2.093c-0.003-0.012-0.006-0.022-0.012-0.031-0.003-0.009-0.013-0.017-0.025-0.021s-0.032-0.009-0.053-0.012c-0.023-0.002-0.053-0.004-0.090-0.004-0.031 0-0.058 0.002-0.078 0.004-0.021 0-0.037 0.003-0.051 0.008-0.013 0.004-0.023 0.011-0.029 0.020-0.008 0.008-0.015 0.020-0.015 0.037 0 0.009 0.001 0.018 0.001 0.030 0.002 0.007 0.005 0.020 0.007 0.034l0.439 2.333c0.001 0.012 0.006 0.024 0.013 0.032s0.015 0.017 0.031 0.023c0.014 0.004 0.032 0.008 0.054 0.010 0.024 0.004 0.052 0.004 0.087 0.004 0.027 0 0.053 0 0.072-0.003 0.021-0.003 0.039-0.004 0.055-0.011 0.016-0.004 0.030-0.012 0.043-0.020s0.024-0.020 0.037-0.035c0.166-0.18 0.317-0.366 0.452-0.558 0.137-0.193 0.262-0.388 0.376-0.587 0.115-0.201 0.217-0.398 0.311-0.598 0.093-0.202 0.176-0.398 0.252-0.591 0.006-0.012 0.010-0.027 0.014-0.040 0.007-0.014 0.008-0.030 0.008-0.045 0-0.008-0-0.013-0.008-0.020-0.004-0.007-0.012-0.012-0.024-0.016zM46.615 28.245c-0.011-0.004-0.029-0.009-0.051-0.012-0.021-0.002-0.047-0.004-0.082-0.004s-0.064 0.002-0.088 0.004c-0.024 0.002-0.042 0.008-0.058 0.012-0.015 0.008-0.026 0.016-0.032 0.023-0.007 0.009-0.011 0.018-0.014 0.030l-0.53 2.397c-0.005 0.011-0.005 0.020 0 0.028 0.003 0.011 0.010 0.018 0.022 0.023 0.012 0.004 0.030 0.009 0.050 0.012 0.022 0.005 0.051 0.006 0.086 0.006 0.033 0 0.063-0.001 0.086-0.006 0.025-0.003 0.042-0.008 0.058-0.012 0.015-0.005 0.025-0.012 0.032-0.023 0.008-0.009 0.013-0.017 0.015-0.028l0.529-2.397c0.002-0.012 0.002-0.020-0-0.030-0.004-0.007-0.010-0.015-0.022-0.023zM45.035 28.394c-0.052-0.059-0.124-0.105-0.209-0.141-0.086-0.035-0.193-0.051-0.322-0.051-0.124 0-0.243 0.018-0.356 0.056-0.114 0.040-0.219 0.089-0.311 0.148-0.095 0.058-0.174 0.123-0.241 0.192-0.065 0.069-0.111 0.133-0.136 0.19l0.107-0.49c0.002-0.012 0.002-0.020-0.001-0.030-0.003-0.007-0.009-0.015-0.020-0.023-0.012-0.004-0.028-0.009-0.047-0.012-0.018-0.002-0.043-0.004-0.073-0.004s-0.055 0.002-0.076 0.004c-0.022 0.002-0.041 0.008-0.054 0.012-0.013 0.008-0.024 0.016-0.031 0.023-0.006 0.009-0.011 0.018-0.013 0.030l-0.538 2.397c-0.004 0.011-0.004 0.020 0 0.028 0.005 0.011 0.011 0.018 0.025 0.023 0.011 0.004 0.029 0.009 0.050 0.012 0.023 0.005 0.050 0.006 0.086 0.006 0.033 0 0.062-0.001 0.085-0.006 0.024-0.003 0.043-0.008 0.057-0.012 0.015-0.005 0.025-0.012 0.032-0.023 0.007-0.009 0.012-0.017 0.016-0.028l0.234-1.061c0.037-0.17 0.096-0.325 0.177-0.47 0.081-0.142 0.173-0.266 0.276-0.369 0.104-0.105 0.215-0.185 0.337-0.243 0.119-0.059 0.238-0.086 0.356-0.086 0.137 0 0.236 0.037 0.294 0.11 0.059 0.074 0.088 0.172 0.088 0.298 0 0.039-0.002 0.087-0.008 0.143-0.005 0.054-0.016 0.113-0.030 0.175l-0.335 1.503c-0.004 0.011-0.002 0.020 0.003 0.028 0.005 0.011 0.013 0.018 0.023 0.023 0.011 0.004 0.029 0.009 0.051 0.012 0.022 0.005 0.049 0.006 0.082 0.006 0.035 0 0.066-0.001 0.087-0.006 0.022-0.003 0.041-0.008 0.054-0.012 0.016-0.005 0.027-0.012 0.034-0.023 0.007-0.009 0.013-0.017 0.016-0.028l0.335-1.503c0.013-0.062 0.022-0.123 0.032-0.183 0.006-0.059 0.011-0.119 0.011-0.181 0-0.080-0.010-0.16-0.034-0.234-0.022-0.076-0.060-0.141-0.113-0.2zM42.24 28.245c-0.012-0.004-0.028-0.009-0.050-0.012s-0.051-0.004-0.085-0.004c-0.035 0-0.063 0.002-0.087 0.004-0.023 0.002-0.043 0.008-0.057 0.012-0.015 0.008-0.027 0.016-0.034 0.023-0.008 0.009-0.013 0.018-0.014 0.030l-0.241 1.071c-0.040 0.17-0.099 0.325-0.179 0.467-0.079 0.142-0.17 0.263-0.272 0.366-0.105 0.103-0.217 0.181-0.336 0.24-0.121 0.057-0.239 0.086-0.358 0.086-0.071 0-0.13-0.009-0.179-0.029s-0.087-0.046-0.117-0.083c-0.032-0.036-0.054-0.079-0.065-0.128-0.013-0.049-0.021-0.102-0.021-0.16s0.005-0.112 0.012-0.166 0.016-0.106 0.027-0.157l0.335-1.509c0.003-0.012 0-0.020-0.003-0.030-0.004-0.007-0.013-0.015-0.022-0.023-0.014-0.004-0.030-0.009-0.051-0.012s-0.049-0.004-0.080-0.004c-0.036 0-0.064 0.002-0.089 0.004-0.023 0.002-0.041 0.008-0.056 0.012-0.014 0.008-0.026 0.016-0.034 0.023-0.008 0.009-0.012 0.018-0.014 0.030l-0.334 1.509c-0.014 0.060-0.025 0.122-0.033 0.18-0.007 0.062-0.011 0.12-0.011 0.176 0 0.092 0.011 0.177 0.036 0.253 0.022 0.077 0.061 0.142 0.115 0.199 0.055 0.056 0.126 0.097 0.217 0.131 0.089 0.031 0.199 0.047 0.332 0.047 0.114 0 0.226-0.020 0.338-0.058 0.113-0.037 0.215-0.084 0.308-0.144 0.092-0.057 0.172-0.121 0.238-0.188 0.068-0.067 0.115-0.132 0.14-0.191l-0.103 0.483c-0.006 0.011-0.006 0.020 0 0.028 0.003 0.011 0.011 0.018 0.022 0.023 0.010 0.004 0.026 0.009 0.046 0.012 0.019 0.005 0.043 0.006 0.074 0.006 0.028 0 0.054-0.001 0.076-0.006 0.021-0.003 0.039-0.008 0.053-0.012 0.014-0.005 0.024-0.012 0.031-0.023 0.007-0.009 0.012-0.017 0.014-0.028l0.536-2.397c0.002-0.012 0.002-0.020 0-0.030-0.004-0.007-0.012-0.015-0.023-0.023zM38.123 28.245c-0.024-0.009-0.052-0.016-0.083-0.022-0.031-0.008-0.063-0.013-0.1-0.017s-0.072-0.005-0.108-0.005c-0.081 0-0.163 0.014-0.243 0.046-0.083 0.032-0.16 0.073-0.234 0.126-0.073 0.051-0.142 0.112-0.205 0.18-0.063 0.069-0.116 0.137-0.158 0.211l0.104-0.467c0-0.012 0-0.020-0.002-0.030-0.004-0.007-0.011-0.015-0.023-0.023-0.008-0.004-0.024-0.009-0.044-0.012-0.018-0.002-0.044-0.004-0.073-0.004-0.030 0-0.054 0.002-0.077 0.004-0.022 0.002-0.039 0.008-0.055 0.012-0.014 0.008-0.025 0.016-0.032 0.023-0.009 0.009-0.013 0.018-0.015 0.030l-0.531 2.397c-0.004 0.011-0.004 0.020 0 0.028 0.003 0.011 0.012 0.018 0.025 0.023 0.010 0.004 0.028 0.009 0.049 0.012 0.022 0.005 0.050 0.006 0.084 0.006s0.064-0.001 0.087-0.006c0.025-0.003 0.043-0.008 0.056-0.012 0.016-0.005 0.028-0.012 0.034-0.023 0.006-0.009 0.013-0.017 0.017-0.028l0.232-1.061c0.038-0.165 0.095-0.319 0.172-0.457 0.079-0.141 0.163-0.262 0.258-0.361 0.092-0.102 0.186-0.179 0.28-0.235s0.175-0.086 0.243-0.086c0.042 0 0.077 0.004 0.109 0.011 0.031 0.007 0.060 0.015 0.083 0.024 0.025 0.008 0.047 0.017 0.065 0.024 0.020 0.007 0.036 0.012 0.049 0.012s0.027-0.006 0.036-0.017 0.018-0.024 0.028-0.041c0.008-0.016 0.016-0.032 0.021-0.052 0.007-0.018 0.012-0.037 0.014-0.056 0.002-0.017 0.004-0.034 0.008-0.047 0-0.014 0.002-0.023 0.002-0.029 0-0.024-0.007-0.039-0.018-0.047-0.012-0.011-0.031-0.021-0.054-0.030zM35.766 28.245c-0.013-0.004-0.029-0.009-0.051-0.012-0.023-0.002-0.050-0.004-0.085-0.004-0.034 0-0.063 0.002-0.086 0.004s-0.043 0.008-0.058 0.012c-0.014 0.008-0.026 0.016-0.034 0.023-0.008 0.009-0.012 0.018-0.015 0.030l-0.239 1.071c-0.039 0.17-0.098 0.325-0.178 0.467-0.079 0.142-0.172 0.263-0.274 0.366-0.104 0.103-0.215 0.181-0.337 0.24-0.119 0.057-0.239 0.086-0.356 0.086-0.071 0-0.131-0.009-0.179-0.029s-0.086-0.046-0.118-0.083c-0.031-0.036-0.052-0.079-0.064-0.128-0.014-0.049-0.020-0.102-0.020-0.16s0.005-0.112 0.012-0.166c0.006-0.054 0.015-0.106 0.026-0.157l0.334-1.509c0.002-0.012 0-0.020-0.002-0.030-0.004-0.007-0.013-0.015-0.025-0.023-0.011-0.004-0.028-0.009-0.050-0.012-0.021-0.002-0.049-0.004-0.082-0.004-0.034 0-0.062 0.002-0.087 0.004-0.023 0.002-0.042 0.008-0.057 0.012-0.014 0.008-0.026 0.016-0.032 0.023-0.009 0.009-0.014 0.018-0.016 0.030l-0.332 1.509c-0.014 0.060-0.027 0.122-0.034 0.18-0.008 0.062-0.012 0.12-0.012 0.176 0 0.092 0.012 0.177 0.036 0.253s0.062 0.142 0.116 0.199c0.053 0.056 0.126 0.097 0.217 0.131 0.089 0.031 0.199 0.047 0.331 0.047 0.115 0 0.227-0.020 0.34-0.058 0.112-0.037 0.215-0.084 0.307-0.144 0.094-0.057 0.172-0.121 0.238-0.188 0.068-0.067 0.115-0.132 0.14-0.191l-0.103 0.483c-0.005 0.011-0.005 0.020 0 0.028 0.004 0.011 0.010 0.018 0.023 0.023 0.010 0.004 0.026 0.009 0.046 0.012 0.019 0.005 0.042 0.006 0.073 0.006 0.030 0 0.056-0.001 0.077-0.006 0.021-0.003 0.038-0.008 0.053-0.012 0.013-0.005 0.023-0.012 0.029-0.023 0.007-0.009 0.013-0.017 0.014-0.028l0.537-2.397c0.002-0.012 0.002-0.020-0.002-0.030-0.002-0.007-0.008-0.015-0.020-0.023zM32.285 29.434c-0.021 0.112-0.051 0.219-0.091 0.325-0.041 0.105-0.091 0.204-0.153 0.295s-0.134 0.172-0.218 0.242c-0.083 0.069-0.179 0.123-0.284 0.161-0.105 0.040-0.222 0.061-0.351 0.061-0.125 0-0.231-0.013-0.317-0.045-0.088-0.028-0.157-0.070-0.212-0.123-0.054-0.054-0.092-0.121-0.117-0.197-0.023-0.080-0.035-0.167-0.035-0.263 0-0.109 0.010-0.221 0.031-0.334 0.019-0.111 0.049-0.219 0.090-0.325 0.040-0.105 0.091-0.204 0.153-0.294 0.063-0.093 0.136-0.172 0.218-0.24 0.084-0.067 0.178-0.121 0.284-0.162 0.104-0.040 0.223-0.058 0.353-0.058 0.124 0 0.229 0.014 0.315 0.044s0.158 0.069 0.211 0.125c0.055 0.053 0.093 0.119 0.117 0.197 0.023 0.076 0.035 0.164 0.035 0.261 0 0.112-0.011 0.221-0.029 0.331zM32.446 28.438c-0.082-0.077-0.188-0.137-0.316-0.177-0.129-0.041-0.286-0.060-0.468-0.060-0.17 0-0.328 0.022-0.468 0.070-0.142 0.049-0.271 0.112-0.383 0.195-0.115 0.081-0.212 0.176-0.296 0.288-0.086 0.11-0.155 0.229-0.212 0.354-0.056 0.126-0.097 0.256-0.125 0.392-0.028 0.135-0.040 0.269-0.040 0.403 0 0.136 0.019 0.261 0.056 0.373 0.038 0.108 0.099 0.202 0.181 0.279 0.084 0.076 0.189 0.135 0.317 0.176s0.285 0.061 0.469 0.061c0.17 0 0.328-0.024 0.467-0.073 0.142-0.047 0.27-0.112 0.383-0.194 0.113-0.081 0.211-0.177 0.298-0.289 0.084-0.112 0.154-0.229 0.209-0.354 0.055-0.128 0.1-0.259 0.125-0.393 0.028-0.136 0.041-0.271 0.041-0.403 0-0.137-0.019-0.262-0.057-0.37-0.039-0.109-0.099-0.203-0.182-0.278zM29.893 28.242c-0.021-0.008-0.065-0.012-0.133-0.012-0.036 0-0.068 0.002-0.093 0.004-0.023 0.002-0.044 0.007-0.060 0.012s-0.029 0.012-0.037 0.021c-0.008 0.009-0.015 0.019-0.019 0.031-0.068 0.185-0.142 0.365-0.218 0.544-0.077 0.18-0.162 0.357-0.252 0.532-0.089 0.178-0.19 0.35-0.299 0.522s-0.232 0.341-0.368 0.509h-0.006l-0.383-2.106c-0.001-0.012-0.007-0.020-0.013-0.031-0.006-0.009-0.014-0.018-0.028-0.022-0.011-0.005-0.029-0.009-0.051-0.012s-0.051-0.004-0.089-0.004c-0.032 0-0.060 0.002-0.083 0.004-0.022 0.002-0.041 0.007-0.053 0.012-0.013 0.004-0.022 0.012-0.026 0.022-0.006 0.011-0.010 0.022-0.010 0.037 0 0.009 0.001 0.021 0.005 0.034 0.002 0.014 0.005 0.032 0.008 0.054l0.443 2.359-0.749 0.848c-0.019 0.022-0.030 0.040-0.032 0.054 0 0.016 0.006 0.028 0.020 0.038 0.014 0.009 0.033 0.015 0.059 0.018 0.025 0.004 0.055 0.006 0.091 0.006 0.032 0 0.062-0.002 0.088-0.006 0.025-0.003 0.047-0.008 0.064-0.014 0.020-0.005 0.034-0.013 0.045-0.021 0.013-0.006 0.023-0.017 0.032-0.027l0.79-0.944c0.202-0.237 0.372-0.463 0.514-0.675s0.265-0.413 0.368-0.607c0.103-0.194 0.194-0.379 0.27-0.553 0.075-0.174 0.146-0.341 0.213-0.501 0.006-0.010 0.011-0.025 0.014-0.040 0.004-0.018 0.005-0.034 0.005-0.049 0-0.013-0.008-0.025-0.029-0.035zM100.302 24.246c-0.037 0.154-0.092 0.255-0.162 0.306-0.071 0.051-0.194 0.079-0.364 0.079h-4.234v-2.501h2.673c0.167 0 0.288 0.025 0.358 0.077 0.072 0.051 0.128 0.155 0.168 0.31h0.165v-1.429h-0.165c-0.040 0.155-0.095 0.256-0.164 0.308-0.072 0.053-0.19 0.079-0.362 0.079h-2.673v-2.279h4.196c0.172 0 0.292 0.027 0.362 0.079 0.068 0.051 0.125 0.155 0.165 0.31h0.164v-1.429h-0.164c-0.040 0.154-0.097 0.253-0.165 0.306-0.070 0.054-0.189 0.080-0.362 0.080h-5.463v0.162c0.155 0.041 0.259 0.096 0.311 0.162 0.053 0.071 0.079 0.189 0.079 0.356v5.386c0 0.165-0.024 0.282-0.076 0.353-0.051 0.071-0.156 0.126-0.314 0.165v0.162h5.507c0.17 0 0.292 0.027 0.361 0.079 0.068 0.053 0.122 0.155 0.159 0.309h0.171v-1.428h-0.171zM92.2 23.218c0.069 0.135 0.104 0.239 0.104 0.305 0 0.093-0.128 0.24-0.386 0.439-0.657 0.513-1.429 0.77-2.318 0.77-0.789 0-1.464-0.219-2.032-0.657-0.72-0.55-1.083-1.287-1.083-2.212 0-0.85 0.327-1.539 0.98-2.066 0.583-0.468 1.307-0.705 2.173-0.705 0.884 0 1.656 0.209 2.313 0.627 0.162 0.105 0.243 0.199 0.243 0.283 0 0.055-0.014 0.138-0.041 0.24l0.139 0.091 0.765-1.295-0.147-0.078c-0.104 0.136-0.2 0.204-0.287 0.204-0.040 0-0.1-0.018-0.178-0.059-0.891-0.474-1.83-0.711-2.807-0.711-1.106 0-2.024 0.278-2.754 0.838-0.878 0.674-1.315 1.563-1.315 2.669 0 0.581 0.134 1.125 0.403 1.631 0.212 0.398 0.496 0.741 0.85 1.032 0.707 0.578 1.603 0.865 2.692 0.865 0.624 0 1.19-0.086 1.692-0.26 0.505-0.172 1.007-0.452 1.511-0.84 0.063-0.052 0.112-0.079 0.145-0.079 0.062 0 0.163 0.063 0.306 0.188l0.129-0.109-0.955-1.205-0.141 0.092zM82.734 18.701c0.154 0.041 0.258 0.096 0.312 0.162 0.052 0.071 0.080 0.189 0.080 0.356v5.386c0 0.165-0.028 0.282-0.080 0.353-0.054 0.071-0.157 0.126-0.312 0.165v0.162h1.658v-0.162c-0.155-0.039-0.26-0.095-0.312-0.165-0.053-0.070-0.081-0.187-0.081-0.353v-5.386c0-0.167 0.027-0.285 0.081-0.356 0.052-0.066 0.157-0.12 0.312-0.162v-0.162h-1.658v0.162zM80.6 21.353c-0.147 0.097-0.325 0.161-0.534 0.195s-0.53 0.051-0.967 0.051h-2.41v-2.405h2.41c0.441 0 0.764 0.018 0.971 0.053 0.205 0.035 0.383 0.1 0.53 0.196 0.284 0.189 0.428 0.506 0.428 0.95 0 0.455-0.144 0.775-0.428 0.96zM81.063 18.859c-0.206-0.123-0.441-0.21-0.7-0.254-0.258-0.043-0.642-0.066-1.147-0.066h-3.792v0.181c0.142 0.035 0.242 0.084 0.303 0.141 0.058 0.059 0.088 0.146 0.088 0.263v5.536c0 0.121-0.028 0.213-0.084 0.278-0.058 0.064-0.162 0.115-0.306 0.155v0.193h1.638v-0.193c-0.137-0.040-0.236-0.091-0.29-0.155-0.056-0.066-0.084-0.157-0.084-0.278v-2.403h2.527c0.501 0 0.88-0.024 1.138-0.067 0.256-0.043 0.493-0.129 0.704-0.261 0.256-0.146 0.456-0.356 0.596-0.624 0.141-0.27 0.211-0.571 0.211-0.904s-0.071-0.639-0.213-0.915c-0.144-0.275-0.34-0.483-0.59-0.628zM73.519 21.889c-0.224-0.125-0.494-0.216-0.81-0.272-0.316-0.055-0.783-0.094-1.399-0.114-0.737-0.028-1.218-0.052-1.444-0.072-0.224-0.020-0.432-0.062-0.622-0.125-0.192-0.064-0.345-0.174-0.458-0.33-0.117-0.154-0.173-0.327-0.173-0.52 0-0.431 0.224-0.766 0.68-1.005 0.452-0.239 1.002-0.357 1.651-0.357 0.808 0 1.493 0.148 2.055 0.445 0.264 0.139 0.398 0.255 0.398 0.35 0 0.044-0.010 0.125-0.031 0.242l0.146 0.072 0.673-1.312-0.152-0.074c-0.090 0.149-0.168 0.223-0.234 0.223-0.018 0-0.095-0.025-0.225-0.078-0.865-0.377-1.724-0.566-2.584-0.566-0.936 0-1.71 0.189-2.317 0.566-0.596 0.37-0.895 0.879-0.895 1.525 0 0.367 0.102 0.683 0.3 0.951 0.201 0.262 0.463 0.451 0.79 0.567 0.257 0.092 0.529 0.157 0.82 0.194 0.289 0.039 0.77 0.074 1.443 0.101 0.572 0.021 0.96 0.041 1.166 0.066 0.207 0.025 0.394 0.067 0.561 0.12 0.179 0.066 0.325 0.174 0.433 0.327 0.111 0.152 0.166 0.324 0.166 0.517 0 0.209-0.065 0.408-0.197 0.6-0.129 0.191-0.304 0.342-0.524 0.454-0.456 0.234-1.031 0.35-1.721 0.35-0.754 0-1.482-0.183-2.182-0.548-0.418-0.218-0.625-0.383-0.625-0.493 0-0.041 0.008-0.093 0.029-0.158 0.006-0.016 0.012-0.049 0.026-0.096l-0.147-0.086-0.777 1.284 0.14 0.091c0.124-0.142 0.216-0.212 0.277-0.212 0.031 0 0.081 0.020 0.146 0.061 0.477 0.265 0.995 0.473 1.552 0.627 0.555 0.152 1.088 0.227 1.592 0.227 1.030 0 1.853-0.217 2.472-0.655 0.518-0.371 0.778-0.865 0.778-1.489 0-0.297-0.070-0.572-0.208-0.822s-0.328-0.444-0.569-0.575zM64.799 23.828c-0.609 0.602-1.415 0.904-2.418 0.904s-1.809-0.302-2.418-0.904c-0.529-0.522-0.795-1.161-0.795-1.916s0.266-1.394 0.795-1.916c0.609-0.603 1.409-0.904 2.404-0.904 1.009 0.009 1.818 0.311 2.432 0.904 0.528 0.511 0.794 1.16 0.794 1.952 0 0.731-0.266 1.357-0.794 1.88zM65.319 19.334c-0.747-0.627-1.729-0.94-2.951-0.94-0.691 0.008-1.293 0.106-1.804 0.295-0.743 0.273-1.318 0.707-1.731 1.307-0.387 0.566-0.581 1.206-0.581 1.916 0 1.053 0.399 1.911 1.193 2.58 0.747 0.624 1.727 0.938 2.938 0.938 1.623 0 2.803-0.535 3.542-1.602 0.391-0.566 0.587-1.189 0.587-1.867 0-1.088-0.397-1.964-1.192-2.627zM51.804 19.194h2.704c0.665 0 1.138 0.099 1.415 0.295 0.3 0.213 0.453 0.53 0.453 0.952 0 0.438-0.162 0.745-0.484 0.921-0.147 0.083-0.325 0.139-0.535 0.167-0.212 0.029-0.526 0.045-0.945 0.045h-2.608v-2.381zM51.883 24.958c-0.052-0.070-0.079-0.187-0.079-0.353v-2.373h2.491l1.578 2.453c0.092 0.145 0.14 0.24 0.14 0.288 0 0.069-0.081 0.12-0.238 0.151v0.162h1.695v-0.162c-0.15-0.020-0.254-0.045-0.313-0.077-0.060-0.033-0.121-0.097-0.182-0.187l-1.718-2.688c0.641-0.061 1.125-0.24 1.457-0.539 0.329-0.301 0.497-0.708 0.497-1.226 0-0.635-0.239-1.117-0.711-1.446-0.216-0.152-0.471-0.261-0.762-0.327-0.292-0.064-0.665-0.095-1.128-0.095h-4.071v0.162c0.157 0.041 0.26 0.096 0.314 0.162 0.053 0.071 0.079 0.189 0.079 0.356v5.386c0 0.165-0.025 0.282-0.076 0.353s-0.155 0.126-0.317 0.165v0.162h1.66v-0.162c-0.156-0.039-0.258-0.095-0.313-0.165zM49.258 18.496c-0.068 0.053-0.189 0.079-0.36 0.079h-5.341c-0.17 0-0.292-0.026-0.362-0.079-0.069-0.051-0.124-0.154-0.164-0.308h-0.166v1.429h0.166c0.040-0.155 0.095-0.258 0.164-0.308 0.070-0.053 0.192-0.077 0.362-0.077h2.234v5.373c0 0.165-0.027 0.282-0.080 0.353-0.054 0.071-0.157 0.126-0.314 0.165v0.162h1.66v-0.162c-0.16-0.039-0.266-0.095-0.317-0.165s-0.075-0.187-0.075-0.353v-5.373h2.232c0.167 0 0.287 0.025 0.358 0.077 0.071 0.050 0.128 0.152 0.168 0.308h0.165v-1.429h-0.165c-0.040 0.154-0.095 0.256-0.166 0.308zM35.806 24.958c-0.049-0.070-0.074-0.187-0.074-0.353v-5.012l4.416 4.834c0.197 0.214 0.294 0.366 0.294 0.451 0 0.112-0.105 0.193-0.319 0.246v0.162h1.793v-0.162c-0.16-0.039-0.266-0.095-0.316-0.165s-0.076-0.187-0.076-0.353v-5.386c0-0.167 0.027-0.285 0.080-0.356 0.054-0.066 0.158-0.12 0.312-0.162v-0.162h-1.511v0.162c0.155 0.041 0.259 0.096 0.312 0.162 0.053 0.071 0.079 0.189 0.079 0.356v4.688l-4.044-4.457c-0.156-0.17-0.232-0.315-0.232-0.436 0-0.14 0.106-0.245 0.319-0.313v-0.162h-2.229v0.162c0.156 0.041 0.26 0.096 0.313 0.162 0.052 0.071 0.079 0.189 0.079 0.356v5.386c0 0.165-0.026 0.282-0.077 0.353s-0.157 0.126-0.315 0.165v0.162h1.511v-0.162c-0.159-0.039-0.263-0.095-0.316-0.165zM33.447 24.246h-0.171c-0.037 0.154-0.091 0.255-0.161 0.306-0.073 0.051-0.194 0.079-0.365 0.079h-4.233v-2.501h2.674c0.166 0 0.286 0.025 0.357 0.077s0.128 0.155 0.169 0.31h0.166v-1.429h-0.166c-0.041 0.155-0.096 0.256-0.166 0.308-0.068 0.053-0.189 0.079-0.36 0.079h-2.674v-2.279h4.198c0.171 0 0.29 0.027 0.36 0.079 0.069 0.051 0.124 0.155 0.165 0.31h0.166v-1.429h-0.166c-0.041 0.154-0.096 0.253-0.165 0.306-0.070 0.054-0.189 0.080-0.36 0.080h-5.464v0.162c0.154 0.041 0.26 0.096 0.311 0.162 0.054 0.071 0.079 0.189 0.079 0.356v5.386c0 0.165-0.024 0.282-0.077 0.353-0.050 0.071-0.155 0.126-0.314 0.165v0.162h5.506c0.17 0 0.291 0.027 0.362 0.079 0.069 0.053 0.121 0.155 0.158 0.309h0.171v-1.428zM24.921 22.861c0.070 0.129 0.104 0.223 0.104 0.278 0 0.112-0.179 0.304-0.537 0.574-0.795 0.595-1.714 0.893-2.753 0.893-1.065 0-1.96-0.323-2.687-0.968-0.751-0.663-1.125-1.497-1.125-2.499 0-1.007 0.362-1.828 1.082-2.461 0.71-0.623 1.637-0.933 2.778-0.933 0.849 0 1.631 0.174 2.35 0.517 0.522 0.248 0.783 0.456 0.783 0.621 0 0.068-0.018 0.162-0.056 0.282l0.166 0.097 0.905-1.488-0.163-0.091c-0.14 0.152-0.237 0.23-0.29 0.23-0.028 0-0.079-0.022-0.151-0.061-1.119-0.623-2.276-0.933-3.47-0.933-1.807 0-3.163 0.565-4.069 1.698-0.58 0.723-0.868 1.577-0.868 2.565 0 1.255 0.462 2.285 1.388 3.092 0.881 0.77 2.024 1.156 3.432 1.156 0.73 0 1.399-0.103 2.006-0.307 0.293-0.097 0.564-0.214 0.812-0.353 0.247-0.14 0.558-0.347 0.932-0.624 0.11-0.087 0.188-0.127 0.233-0.127 0.073 0 0.167 0.050 0.281 0.149l0.152-0.119-1.089-1.302-0.148 0.113zM46.804 27.287c-0.029-0.007-0.065-0.011-0.111-0.011-0.044 0-0.084 0.004-0.113 0.011-0.032 0.006-0.058 0.019-0.079 0.038-0.021 0.016-0.039 0.039-0.053 0.067-0.013 0.027-0.025 0.061-0.034 0.102-0.008 0.039-0.012 0.074-0.011 0.103 0.001 0.026 0.008 0.048 0.021 0.064 0.014 0.016 0.033 0.029 0.062 0.037 0.029 0.005 0.065 0.010 0.112 0.010 0.044 0 0.083-0.005 0.114-0.010 0.031-0.008 0.058-0.021 0.078-0.037 0.023-0.017 0.040-0.038 0.052-0.064 0.013-0.028 0.024-0.064 0.032-0.103 0.009-0.041 0.015-0.076 0.015-0.102-0.002-0.028-0.009-0.051-0.024-0.067-0.013-0.020-0.034-0.032-0.061-0.038z"></path>
</symbol>
<symbol id="icon-search" viewBox="0 0 32 32">
<path fill="none" stroke="#9c9c9c" style="stroke: var(--color5, #9c9c9c)" stroke-linejoin="round" stroke-linecap="round" stroke-miterlimit="4" stroke-width="2.6667" d="M13.778 24.889c6.136 0 11.111-4.975 11.111-11.111s-4.975-11.111-11.111-11.111c-6.136 0-11.111 4.975-11.111 11.111s4.975 11.111 11.111 11.111z"></path>
<path fill="none" stroke="#9c9c9c" style="stroke: var(--color5, #9c9c9c)" stroke-linejoin="round" stroke-linecap="round" stroke-miterlimit="4" stroke-width="2.6667" d="M29.334 29.334l-7.704-7.704"></path>
</symbol>
<symbol id="icon-user" viewBox="0 0 30 32">
<path fill="none" stroke="#585858" style="stroke: var(--color1, #585858)" stroke-linejoin="round" stroke-linecap="round" stroke-miterlimit="4" stroke-width="1.6842" d="M28.632 30.316v-3.368c0-3.721-3.016-6.737-6.737-6.737h-13.474c-3.721 0-6.737 3.016-6.737 6.737v3.368"></path>
<path fill="none" stroke="#585858" style="stroke: var(--color1, #585858)" stroke-linejoin="round" stroke-linecap="round" stroke-miterlimit="4" stroke-width="1.6842" d="M15.158 15.158c3.721 0 6.737-3.016 6.737-6.737s-3.016-6.737-6.737-6.737c-3.721 0-6.737 3.016-6.737 6.737s3.016 6.737 6.737 6.737z"></path>
</symbol>
<symbol id="icon-Vector-1" viewBox="0 0 80 32">
<path fill="#c4c4c4" style="fill: var(--color6, #c4c4c4)" d="M80 0h-80l40 32 40-32z"></path>
</symbol>
<symbol id="icon-menu" viewBox="0 0 47 32">
<path d="M0 0h46.933v2.133h-46.933v-2.133z"></path>
<path d="M0 14.933h46.933v2.133h-46.933v-2.133z"></path>
<path d="M0 29.867h46.933v2.133h-46.933v-2.133z"></path>
</symbol>
<symbol id="icon-box" viewBox="0 0 32 32">
<path fill="#3e6e00" style="fill: var(--color1, #3e6e00); stroke: var(--color2, #4a7710)" stroke="#4a7710" stroke-linejoin="miter" stroke-linecap="butt" stroke-miterlimit="10" stroke-width="0.3265" d="M31.475 6.789c-0.176-0.192-0.483-0.239-0.709-0.109l-6.308 3.642-8.742-4.948c-0.004-0.002-0.008-0.005-0.012-0.006l-2.449-4.73c-0.073-0.14-0.195-0.241-0.343-0.286-0.144-0.044-0.307-0.029-0.444 0.047l-11.842 6.537c-0.134 0.073-0.235 0.2-0.278 0.35-0.041 0.149-0.023 0.306 0.053 0.442l2.799 4.937c0.005 0.010 0.010 0.020 0.017 0.030v11.053h-0.111l0.041 0.234c0.022 0.126 0.092 0.43 0.268 0.536l11.727 7.152c0.083 0.050 0.18 0.103 0.297 0.103 0.074 0 0.185-0.007 0.295-0.071l11.965-7.186c0.12-0.071 0.192-0.234 0.233-0.369h0.18v-11.418l3.484-5.222c0.158-0.236 0.053-0.531-0.12-0.718zM14.583 5.703l-10.594 6.083-2.302-4.118 10.818-5.973 2.078 4.008zM26.96 13.624v10.143l-10.911 6.432v-10.142l10.911-6.434zM18.864 13.555c-0.080 0.046-0.145 0.109-0.198 0.196l-1.852 2.99-0.766-0.511v-9.363l7.266 4.123-4.451 2.565zM17.465 17.851l2.088-3.364 9.608-5.546-2.229 3.281-9.467 5.629zM16.185 17.725l-0.741 1.193-1.35-0.803 1.357-0.872 0.733 0.482zM14.899 20.054v10.133l-10.534-6.415v-10.135l10.534 6.417zM4.883 12.62l10.016-5.747v9.374l-1.896 1.207-8.12-4.834z"></path>
</symbol>
<symbol id="icon-car" viewBox="0 0 59 32">
<path fill="#3e6e00" style="fill: var(--color1, #3e6e00)" d="M58.666 14.845c0-3.068-0.866-5.64-2.503-7.435-1.526-1.668-3.699-2.587-6.121-2.587h-6.567v-3.791c0-0.568-0.459-1.031-1.022-1.031h-29.189c-0.563 0-1.021 0.463-1.021 1.031v5.587h-6.128c-0.563 0-1.022 0.462-1.022 1.031s0.459 1.031 1.021 1.031h7.114c0.599 0 1.069-0.453 1.069-1.031v-5.587h27.147v24.027h-14.206c-0.033 0-0.078 0-0.092 0.003l-0.36 0.075-0.139-0.344c-0.692-1.722-2.319-2.835-4.147-2.835-1.84 0-3.467 1.12-4.148 2.854l-0.138 0.353-0.367-0.082c-0.083-0.018-0.149-0.027-0.221-0.027h-3.33v-5.599c0-0.568-0.458-1.031-1.020-1.031h-7.162c-0.563 0-1.021 0.463-1.021 1.031s0.459 1.031 1.021 1.031h6.128v5.587c0 0.568 0.459 1.031 1.021 1.031h4.801l0.076 0.349c0.447 2.035 2.28 3.514 4.359 3.514 2.099 0 3.891-1.446 4.358-3.516l0.078-0.346h18.219l0.079 0.346c0.462 2.037 2.294 3.516 4.358 3.516 2.099 0 3.891-1.446 4.358-3.516l0.078-0.346h3.617c0.563 0 1.022-0.463 1.022-1.031v-12.262h-0.001zM22.501 29.951c-1.339 0-2.428-1.1-2.428-2.45s1.089-2.45 2.428-2.45c1.337 0 2.425 1.099 2.425 2.45s-1.088 2.45-2.425 2.45zM49.592 29.951c-1.337 0-2.425-1.1-2.425-2.45s1.088-2.45 2.425-2.45c1.338 0 2.426 1.099 2.426 2.45-0.014 1.352-1.103 2.45-2.426 2.45zM56.624 26.089h-2.784l-0.112-0.277c-0.683-1.688-2.345-2.822-4.136-2.822-1.824 0-3.448 1.108-4.135 2.821l-0.112 0.278h-1.857v-19.205h6.568c4.113 0 6.568 2.98 6.568 7.973v11.232z"></path>
<path fill="#3e6e00" style="fill: var(--color1, #3e6e00)" d="M25.696 18.902c0.279 0 0.542-0.105 0.738-0.294l3.805-3.844 0.174-0.317c0.005-0.022 0.014-0.050 0.031-0.086l0.046-0.264c-0.003-0.032-0.003-0.077-0.008-0.124l-0.054-0.107 0.026-0.043-0.113-0.348-0.091-0.128c-0.007-0.008-0.015-0.018-0.025-0.034-0.030-0.020-0.053-0.053-0.078-0.088l-3.538-3.561c-0.185-0.185-0.448-0.291-0.724-0.291s-0.54 0.106-0.723 0.291c-0.194 0.196-0.301 0.456-0.301 0.731s0.107 0.534 0.301 0.73l1.836 1.855h-25.977c-0.563 0-1.022 0.463-1.022 1.031s0.459 1.031 1.022 1.031h25.916l-1.951 2.102c-0.404 0.41-0.408 1.070-0.009 1.472 0.182 0.182 0.444 0.288 0.718 0.288z"></path>
</symbol>
<symbol id="icon-medal" viewBox="0 0 31 32">
<path fill="none" stroke="#3e6e00" style="stroke: var(--color1, #3e6e00)" stroke-linejoin="miter" stroke-linecap="butt" stroke-miterlimit="10" stroke-width="1.2929" d="M6.303 25.975c0 0.361-0.005 0.665 0.001 0.969 0.023 1.295 0.048 2.591 0.073 3.886 0.003 0.167 0.011 0.335 0.025 0.501 0.003 0.037 0.034 0.090 0.065 0.102 0.033 0.013 0.095 0.001 0.12-0.025 0.271-0.268 0.542-0.537 0.803-0.814 0.383-0.408 0.754-0.826 1.136-1.234 0.436-0.466 0.879-0.926 1.319-1.389 0.728-0.765 1.458-1.528 2.181-2.297 0.381-0.405 0.748-0.821 1.124-1.231 0.256-0.279 0.509-0.562 0.774-0.831 0.131-0.133 0.115-0.217-0.005-0.355-0.312-0.358-0.609-0.731-0.894-1.11-0.172-0.229-0.247-0.255-0.525-0.177-0.622 0.173-1.229 0.412-1.898 0.364-1-0.070-1.847-0.43-2.487-1.229-0.391-0.488-0.688-1.018-0.774-1.653-0.016-0.121-0.094-0.233-0.143-0.349-0.098 0.067-0.21 0.118-0.29 0.202-0.587 0.612-1.168 1.23-1.75 1.847-0.413 0.438-0.827 0.876-1.237 1.317-0.671 0.719-1.338 1.442-2.009 2.161-0.31 0.332-0.632 0.654-0.939 0.989-0.056 0.061-0.068 0.162-0.1 0.244 0.079 0.022 0.158 0.061 0.238 0.063 1.24 0.020 2.481 0.036 3.721 0.050 0.475 0.005 0.95 0.001 1.472 0.001z"></path>
<path fill="none" stroke="#3e6e00" style="stroke: var(--color1, #3e6e00)" stroke-linejoin="miter" stroke-linecap="butt" stroke-miterlimit="10" stroke-width="1.2929" d="M22.038 4.576c0 0.356-0.010 0.713 0.002 1.069 0.018 0.507 0.246 0.911 0.705 1.115 0.496 0.22 1.021 0.373 1.531 0.561 0.273 0.1 0.546 0.203 0.81 0.323 0.342 0.155 0.37 0.656 0.229 0.891-0.189 0.314-0.411 0.609-0.624 0.909-0.243 0.341-0.512 0.664-0.733 1.018-0.374 0.595-0.257 1.209 0.211 1.823 0.364 0.478 0.698 0.982 1.017 1.493 0.253 0.406 0.004 0.923-0.457 1.065-0.599 0.184-1.185 0.413-1.787 0.587-0.479 0.139-0.812 0.414-0.977 0.881-0.056 0.159-0.079 0.337-0.083 0.507-0.014 0.604-0.004 1.208-0.024 1.811-0.006 0.19-0.040 0.398-0.125 0.564-0.163 0.319-0.531 0.423-0.892 0.307-0.422-0.135-0.847-0.262-1.27-0.395-0.238-0.075-0.481-0.138-0.711-0.234-0.421-0.174-0.774-0.013-1.102 0.219-0.421 0.297-0.661 0.755-0.961 1.159-0.234 0.315-0.456 0.644-0.726 0.926-0.309 0.323-0.783 0.22-1.036-0.138-0.361-0.512-0.717-1.029-1.102-1.523-0.325-0.418-0.743-0.73-1.303-0.666-0.305 0.035-0.598 0.174-0.896 0.265-0.524 0.159-1.047 0.326-1.575 0.474-0.392 0.11-0.773-0.295-0.77-0.724 0.006-0.684 0.001-1.368-0.015-2.052-0.015-0.604-0.473-1.177-1.057-1.321-0.356-0.088-0.691-0.259-1.041-0.375-0.277-0.092-0.562-0.161-0.845-0.237-0.32-0.086-0.583-0.339-0.579-0.668 0.003-0.193 0.115-0.405 0.229-0.573 0.425-0.632 0.904-1.229 1.296-1.88 0.215-0.357 0.205-0.796-0.053-1.17-0.461-0.668-0.935-1.328-1.399-1.994-0.306-0.439-0.153-0.964 0.362-1.132 0.65-0.212 1.299-0.426 1.951-0.634 0.412-0.132 0.725-0.393 0.916-0.772 0.089-0.176 0.115-0.398 0.118-0.601 0.011-0.735-0.008-1.47 0.002-2.205 0.005-0.382 0.21-0.634 0.538-0.714 0.101-0.024 0.221-0.033 0.317-0.002 0.46 0.146 0.912 0.313 1.371 0.463 0.379 0.123 0.755 0.279 1.145 0.334 0.376 0.053 0.733-0.119 0.988-0.405 0.312-0.35 0.591-0.731 0.875-1.105 0.221-0.292 0.411-0.611 0.646-0.89 0.289-0.343 0.606-0.363 0.932-0.093 0.349 0.29 0.541 0.692 0.81 1.038 0.362 0.468 0.61 1.041 1.156 1.337 0.251 0.136 0.528 0.235 0.84 0.126 0.551-0.193 1.11-0.363 1.666-0.538 0.171-0.054 0.346-0.1 0.521-0.14 0.601-0.138 0.918 0.161 0.942 0.771 0.015 0.381 0.003 0.764 0.003 1.146 0.004-0 0.008-0 0.012-0z"></path>
<path fill="none" stroke="#3e6e00" style="stroke: var(--color1, #3e6e00)" stroke-linejoin="miter" stroke-linecap="butt" stroke-miterlimit="10" stroke-width="1.2929" d="M24.665 25.975c0 0.361 0.005 0.665-0.001 0.969-0.023 1.295-0.048 2.591-0.073 3.886-0.003 0.167-0.011 0.335-0.025 0.501-0.003 0.037-0.034 0.090-0.065 0.102-0.033 0.013-0.095 0.001-0.121-0.025-0.271-0.268-0.542-0.537-0.803-0.814-0.383-0.408-0.754-0.826-1.136-1.234-0.436-0.466-0.879-0.926-1.319-1.389-0.728-0.765-1.458-1.528-2.181-2.297-0.381-0.405-0.748-0.821-1.124-1.231-0.256-0.279-0.509-0.562-0.774-0.831-0.131-0.133-0.115-0.217 0.005-0.355 0.312-0.358 0.609-0.731 0.894-1.11 0.172-0.229 0.247-0.255 0.525-0.177 0.622 0.173 1.229 0.412 1.898 0.364 1-0.070 1.847-0.43 2.487-1.229 0.391-0.488 0.688-1.018 0.774-1.653 0.016-0.121 0.094-0.233 0.143-0.349 0.098 0.067 0.21 0.118 0.29 0.202 0.587 0.612 1.168 1.23 1.75 1.847 0.413 0.438 0.827 0.876 1.237 1.317 0.671 0.719 1.338 1.442 2.009 2.161 0.311 0.332 0.632 0.654 0.939 0.989 0.056 0.061 0.068 0.162 0.1 0.244-0.079 0.022-0.158 0.061-0.238 0.063-1.24 0.020-2.481 0.036-3.721 0.050-0.475 0.005-0.95 0.001-1.472 0.001z"></path>
</symbol>
<symbol id="icon-s" viewBox="0 0 64 32">
<path stroke-linejoin="round" stroke-linecap="round" stroke-miterlimit="4" stroke-width="2.9091" d="M2.909 15.707h58.182"></path>
<path stroke-linejoin="round" stroke-linecap="round" stroke-miterlimit="4" stroke-width="2.9091" d="M45.818 2.909l15.273 12.8-15.273 12.8"></path>
</symbol>
<symbol id="icon-sa" viewBox="0 0 64 32">
<path stroke-linejoin="round" stroke-linecap="round" stroke-miterlimit="4" stroke-width="2.9091" d="M2.909 15.707h58.182"></path>
<path stroke-linejoin="round" stroke-linecap="round" stroke-miterlimit="4" stroke-width="2.9091" d="M45.818 2.909l15.273 12.8-15.273 12.8"></path>
</symbol>
</defs>

</svg>
