<svg width="60" height="60" viewBox="0 0 60 60" fill="none" xmlns="http://www.w3.org/2000/svg">
<path d="M45.6163 39.691C43.6561 37.7557 41.2089 37.7557 39.2612 39.691C37.7754 41.1643 36.2897 42.6375 34.8289 44.1358C34.4293 44.5478 34.0922 44.6352 33.6053 44.3605C32.6439 43.8361 31.6201 43.4116 30.6962 42.8373C26.3887 40.128 22.7804 36.6445 19.5842 32.7241C17.9985 30.7764 16.5877 28.6913 15.6013 26.3441C15.4015 25.8696 15.439 25.5575 15.826 25.1704C17.3118 23.7346 18.7601 22.2613 20.2209 20.788C22.256 18.7404 22.256 16.3432 20.2084 14.2831C19.0473 13.1095 17.8861 11.9608 16.725 10.7872C15.5264 9.5886 14.3403 8.37752 13.1292 7.1914C11.169 5.28113 8.72184 5.28113 6.77411 7.20389C5.27586 8.67717 3.84003 10.1879 2.31681 11.6362C0.905954 12.9722 0.194284 14.6077 0.0444586 16.518C-0.192765 19.6269 0.568847 22.561 1.64259 25.4201C3.84003 31.3382 7.18613 36.5946 11.2439 41.414C16.725 47.9314 23.2674 53.0878 30.9209 56.8085C34.3669 58.4816 37.9378 59.7676 41.8207 59.9798C44.4926 60.1296 46.8149 59.4554 48.6752 57.3703C49.9487 55.947 51.3846 54.6485 52.733 53.2876C54.7307 51.265 54.7431 48.8178 52.758 46.8202C50.3857 44.4354 48.001 42.0632 45.6163 39.691Z" fill="white"/>
<path d="M43.231 29.7401L47.8381 28.9535C47.114 24.721 45.1163 20.888 42.0823 17.8415C38.8736 14.6328 34.8158 12.6101 30.346 11.9858L29.6968 16.6179C33.1552 17.1049 36.3016 18.6655 38.7862 21.1502C41.1334 23.4974 42.6691 26.4689 43.231 29.7401Z" fill="white"/>
<path d="M50.4356 9.71367C45.1168 4.39487 38.3872 1.03629 30.9583 0L30.3091 4.6321C36.7266 5.53105 42.5448 8.44015 47.1395 13.0223C51.4969 17.3797 54.356 22.8858 55.3923 28.9412L59.9995 28.1547C58.7884 21.1378 55.4797 14.7703 50.4356 9.71367Z" fill="white"/>
</svg>
