<svg width="21" height="18" viewBox="0 0 21 18" fill="none" xmlns="http://www.w3.org/2000/svg">
<path d="M0.358834 8.44475L5.03996 10.1843L6.85184 15.9862C6.96778 16.3577 7.42413 16.4951 7.72704 16.2485L10.3364 14.1305C10.6099 13.9086 10.9995 13.8976 11.2853 14.1042L15.9916 17.5063C16.3157 17.7408 16.7747 17.564 16.856 17.1741L20.3036 0.662088C20.3923 0.236225 19.9721 -0.119043 19.5648 0.0377899L0.353349 7.41697C-0.12075 7.59902 -0.116619 8.26735 0.358834 8.44475ZM6.55984 9.25831L15.7085 3.64799C15.8729 3.54745 16.0421 3.76881 15.9009 3.89922L8.35059 10.8873C8.0852 11.1332 7.91401 11.4624 7.86552 11.8197L7.60833 13.7175C7.57427 13.9709 7.21678 13.996 7.14655 13.7508L6.15739 10.2901C6.04409 9.89542 6.20919 9.4738 6.55984 9.25831Z" fill="#333333"/>
</svg>
