<svg width="19" height="21" viewBox="0 0 19 21" fill="none" xmlns="http://www.w3.org/2000/svg">
<path d="M11.6086 0H7.38729C3.31438 0 0 3.29766 0 7.35V10.5C0 13.3465 1.64895 15.9264 4.22131 17.1445V20.6514C4.22131 20.9549 4.60469 21.1148 4.82317 20.8975L7.88609 17.85H11.6127C15.6856 17.85 19 14.5523 19 10.5V7.35C19 3.29766 15.6856 0 11.6086 0ZM10.2029 5.25C10.0998 5.25 9.99262 5.2541 9.88956 5.26641C9.69581 5.28691 9.52267 5.14746 9.50206 4.95879C9.48145 4.76602 9.62161 4.59375 9.81124 4.57324C9.93903 4.56094 10.0709 4.55273 10.2029 4.55273C12.1445 4.55273 13.7192 6.12363 13.7192 8.05137C13.7192 8.18262 13.711 8.30977 13.6986 8.44102C13.678 8.62969 13.5008 8.77324 13.3111 8.74863C13.1215 8.72813 12.9813 8.55176 13.002 8.36309C13.0143 8.26055 13.0184 8.15391 13.0184 8.05137C13.0184 6.50508 11.7529 5.25 10.2029 5.25ZM12.3135 8.05137C12.3135 8.24414 12.1527 8.4 11.9631 8.4C11.7735 8.4 11.6127 8.24004 11.6127 8.05137C11.6127 7.28027 10.982 6.65273 10.207 6.65273C10.0132 6.65273 9.85659 6.49687 9.85659 6.3041C9.85659 6.11133 10.0132 5.95547 10.207 5.95547C11.3654 5.95137 12.3135 6.89062 12.3135 8.05137ZM14.8076 13.1865C14.7045 13.6377 14.4778 14.0479 14.148 14.376C13.6986 14.823 13.0885 15.0527 12.3589 15.0527C12.1651 15.0527 11.959 15.0363 11.7488 15.0035C10.0668 14.741 7.72532 13.9207 6.20004 12.4072L6.17943 12.3867C4.65828 10.8691 3.8338 8.53945 3.56997 6.86602C3.41332 5.86934 3.63181 5.04082 4.20069 4.4748C4.53048 4.14668 4.94272 3.92109 5.39618 3.81855C5.44153 3.80625 5.491 3.80625 5.53634 3.81445L7.25125 4.13027C7.39141 4.15488 7.50271 4.26562 7.53157 4.40508L8.03038 6.87832C8.05511 6.99316 8.01801 7.11211 7.93556 7.19414L6.9297 8.19492C7.76242 9.9627 8.70644 10.9061 10.409 11.6648L11.419 10.66C11.5014 10.5779 11.621 10.541 11.7364 10.5656L14.2263 11.0619C14.3665 11.0906 14.4778 11.2014 14.5025 11.3408L14.8199 13.0471C14.8199 13.0922 14.8199 13.1414 14.8076 13.1865ZM14.9972 9.1834C14.9518 9.37207 14.7498 9.49102 14.5602 9.4418C14.3788 9.39258 14.2675 9.20391 14.3129 9.02344C14.3871 8.70762 14.4242 8.38359 14.4242 8.05547C14.4242 5.73809 12.532 3.85547 10.2029 3.85547C10.0957 3.85547 9.98438 3.85957 9.8772 3.86777C9.68345 3.88418 9.51443 3.73652 9.49794 3.54375C9.48145 3.35098 9.62986 3.18281 9.82361 3.16641C9.94728 3.1582 10.0751 3.1541 10.2029 3.1541C12.9195 3.1541 15.1291 5.35254 15.1291 8.05547C15.1291 8.43281 15.0837 8.81426 14.9972 9.1834Z" fill="#333333"/>
</svg>
