<svg width="21" height="21" viewBox="0 0 21 21" fill="none" xmlns="http://www.w3.org/2000/svg">
<path d="M10.5041 0H10.5C4.70859 0 0 4.70859 0 10.5C0 12.7969 0.738281 14.9256 1.99746 16.6523L0.689062 20.5529L4.725 19.2609C6.38613 20.3643 8.36719 21 10.5041 21C16.2914 21 21 16.2914 21 10.5C21 4.70859 16.2914 0 10.5041 0ZM16.6113 14.8271C16.357 15.5408 15.3521 16.1355 14.5523 16.3078C14.0027 16.4227 13.2891 16.517 10.8732 15.5162C7.78887 14.2365 5.79961 11.1029 5.64375 10.8979C5.49609 10.6928 4.39687 9.23672 4.39687 7.73145C4.39687 6.22617 5.16387 5.49199 5.47148 5.17617C5.72578 4.91777 6.14414 4.79883 6.54609 4.79883C6.67734 4.79883 6.79219 4.80703 6.89883 4.81113C7.20645 4.82344 7.3623 4.84395 7.56738 5.32793C7.82168 5.93906 8.43691 7.44434 8.51074 7.6002C8.58457 7.75605 8.6584 7.96523 8.55586 8.17031C8.45742 8.37949 8.37129 8.47383 8.21543 8.6502C8.05957 8.82656 7.91191 8.96602 7.76016 9.15879C7.6166 9.32695 7.45664 9.50332 7.63711 9.81094C7.81758 10.1145 8.43281 11.1193 9.33926 11.9273C10.5123 12.9691 11.4598 13.3055 11.8002 13.4449C12.0545 13.5516 12.3539 13.527 12.5385 13.3301C12.7723 13.0758 13.0635 12.6574 13.3588 12.2432C13.568 11.9479 13.8346 11.9109 14.1135 12.0135C14.3965 12.1119 15.8977 12.8543 16.2053 13.0061C16.5129 13.1619 16.718 13.2357 16.7918 13.3629C16.8656 13.5023 16.8656 14.1094 16.6113 14.8271Z" fill="#333333"/>
</svg>
