<svg width="25" height="19" viewBox="0 0 25 19" fill="none" xmlns="http://www.w3.org/2000/svg">
<path d="M24.7412 4.10427C24.7412 4.10427 24.4824 2.24537 23.75 1.42842C22.8027 0.347322 21.7236 0.347322 21.25 0.303296C17.7588 0.0440268 12.5 0 12.5 0C12.5 0 11.1865 0.00978373 9.43359 0.0538105C7.68066 0.0978373 5.49316 0.171215 3.75 0.303296C3.27637 0.347322 2.19727 0.391349 1.25 1.42353C0.473633 2.24537 0.258789 4.10427 0.258789 4.10427C0.258789 4.10427 0 6.30561 0 8.50695V10.5371C0 12.7384 0.258789 14.9006 0.258789 14.9006C0.258789 14.9006 0.517578 16.7595 1.25 17.5765C2.19727 18.6576 3.44727 18.6135 4.00879 18.7407C5.99121 18.956 12.5 19 12.5 19C12.5 19 17.7588 19 21.25 18.6967C21.7236 18.6527 22.8027 18.6087 23.75 17.5716C24.4824 16.7497 24.7412 14.8957 24.7412 14.8957C24.7412 14.8957 25 12.6944 25 10.5322V8.50206C25 6.30561 24.7412 4.10427 24.7412 4.10427ZM9.48242 14.5093V5.14135L17.6709 9.93538L9.48242 14.5093Z" fill="#333333"/>
</svg>
