<svg width="22" height="25" viewBox="0 0 22 25" fill="none" xmlns="http://www.w3.org/2000/svg"><path d="M6.27 16.095h13.044c1.48 0 2.686-1.246 2.686-2.773V7.595c0-.01 0-.02-.005-.03 0-.01-.005-.026-.005-.036 0-.01-.005-.02-.005-.03-.005-.01-.005-.02-.01-.035-.004-.01-.004-.02-.01-.03-.004-.01-.004-.02-.009-.03a.25.25 0 01-.014-.036.107.107 0 00-.015-.025l-.015-.03c-.004-.01-.01-.015-.014-.025-.005-.01-.015-.02-.02-.03-.005-.01-.01-.015-.02-.025-.004-.01-.014-.015-.019-.025-.004-.01-.014-.015-.019-.025-.005-.01-.015-.016-.02-.02l-.024-.026c-.01-.005-.014-.015-.024-.02-.01-.005-.02-.015-.03-.02-.01-.005-.014-.01-.024-.015a.089.089 0 01-.029-.02l-.029-.015-.03-.015-.028-.015c-.01-.005-.02-.005-.03-.01a.088.088 0 00-.034-.01c-.01 0-.02-.005-.024-.005-.015-.005-.024-.005-.039-.005-.005 0-.01-.005-.02-.005L4.904 4.625v-2.38c0-.026 0-.051-.005-.071 0-.005 0-.01-.005-.02 0-.015-.005-.03-.005-.046-.005-.015-.005-.025-.01-.04 0-.01-.004-.015-.004-.025l-.015-.045c0-.005-.005-.015-.005-.02a.153.153 0 00-.02-.04c-.004-.005-.004-.015-.009-.02a.105.105 0 00-.02-.03c-.004-.01-.01-.016-.014-.026l-.015-.025c-.005-.01-.014-.02-.02-.03l-.014-.015-.029-.03-.015-.015a.214.214 0 00-.034-.03c-.004-.005-.014-.01-.019-.015-.01-.01-.02-.016-.03-.026-.014-.01-.028-.02-.038-.025-.005-.005-.01-.005-.015-.01l-.063-.03L.913.054a.649.649 0 00-.861.361.686.686 0 00.35.89L3.584 2.69v14.86c0 1.407 1.022 2.573 2.34 2.749a2.81 2.81 0 00-.379 1.406c0 1.513 1.192 2.738 2.652 2.738 1.46 0 2.651-1.23 2.651-2.738 0-.502-.131-.98-.365-1.381h5.907c-.233.407-.365.88-.365 1.381 0 1.513 1.192 2.738 2.652 2.738 1.46 0 2.652-1.23 2.652-2.738 0-1.507-1.192-2.738-2.652-2.738H6.27c-.759 0-1.372-.638-1.372-1.416v-1.839c.399.241.87.382 1.372.382zM9.54 21.7c0 .764-.604 1.382-1.338 1.382-.735 0-1.338-.623-1.338-1.382 0-.758.603-1.381 1.338-1.381.734 0 1.338.618 1.338 1.381zm10.48 0c0 .764-.604 1.382-1.338 1.382-.735 0-1.338-.623-1.338-1.382 0-.758.603-1.381 1.338-1.381.735 0 1.338.618 1.338 1.381zm-.706-6.963H6.27c-.759 0-1.372-.638-1.372-1.416V5.992l15.788 2.246v5.079c0 .788-.618 1.421-1.372 1.421z" fill="#585858"/></svg>