<svg aria-hidden="true" style="position:absolute;width:0;height:0" xmlns="http://www.w3.org/2000/svg" overflow="hidden"><defs><symbol id="Facebook" viewBox="0 0 17 32"><path d="M13.096 5.885c.975-.032 1.949-.006 2.926-.009h.401V.913c-.52-.051-1.064-.125-1.609-.15-.999-.043-2.001-.092-3-.069-1.527.032-2.974.395-4.237 1.282-1.449 1.02-2.244 2.452-2.545 4.144-.124.698-.157 1.42-.176 2.13-.029 1.115-.008 2.227-.004 3.344v.417H0v5.545h4.821v13.939h5.894V17.578h4.808c.246-1.844.485-3.668.739-5.572h-1.08c-1.368.006-4.504 0-4.504 0s.013-2.749.046-3.941c.046-1.636 1.036-2.134 2.372-2.18z"/></symbol><symbol id="telegram" viewBox="0 0 37 32"><path d="M.638 15.013l8.322 3.093 3.221 10.314a.981.981 0 001.556.466l4.639-3.765a1.388 1.388 0 011.687-.047l8.367 6.048a.982.982 0 001.537-.591l6.129-29.355a.98.98 0 00-1.313-1.11L.629 13.185c-.843.324-.836 1.512.01 1.827zm11.024 1.446l16.264-9.974c.292-.179.593.215.342.447L14.845 19.355a2.762 2.762 0 00-.862 1.658l-.457 3.374c-.061.451-.696.495-.821.059l-1.758-6.152a1.627 1.627 0 01.715-1.834z"/></symbol><symbol id="viber" viewBox="0 0 29 32"><path d="M17.689 0h-6.432C5.051 0 0 5.025 0 11.2V16c0 4.338 2.513 8.269 6.432 10.125v5.344c0 .462.584.706.917.375l4.667-4.644h5.679c6.206 0 11.257-5.025 11.257-11.2v-4.8c0-6.175-5.05-11.2-11.263-11.2zm-2.142 8c-.157 0-.32.006-.477.025a.535.535 0 01-.59-.469.535.535 0 01.471-.588 6.18 6.18 0 01.597-.031c2.959 0 5.358 2.394 5.358 5.331 0 .2-.012.394-.031.594a.535.535 0 01-1.061-.119c.019-.156.025-.319.025-.475 0-2.356-1.928-4.269-4.29-4.269zm3.216 4.269c0 .294-.245.531-.534.531s-.534-.244-.534-.531a2.139 2.139 0 00-2.142-2.131c-.295 0-.534-.238-.534-.531s.239-.531.534-.531a3.2 3.2 0 013.21 3.194zm3.801 7.825a3.72 3.72 0 01-1.005 1.813c-.685.681-1.614 1.031-2.726 1.031-.295 0-.609-.025-.93-.075-2.563-.4-6.131-1.65-8.455-3.956l-.031-.031c-2.318-2.313-3.574-5.862-3.976-8.412-.239-1.519.094-2.781.961-3.644a3.747 3.747 0 011.822-1 .484.484 0 01.214-.006l2.613.481a.533.533 0 01.427.419l.76 3.769a.523.523 0 01-.145.481l-1.533 1.525c1.269 2.694 2.707 4.131 5.302 5.287l1.539-1.531a.533.533 0 01.484-.144l3.794.756a.536.536 0 01.421.425l.484 2.6c0 .069 0 .144-.019.212zm.289-6.1a.55.55 0 01-.666.394.533.533 0 01-.377-.637c.113-.481.17-.975.17-1.475 0-3.531-2.883-6.4-6.432-6.4-.163 0-.333.006-.496.019-.295.025-.553-.2-.578-.494s.201-.55.496-.575c.188-.013.383-.019.578-.019 4.14 0 7.507 3.35 7.507 7.469a7.56 7.56 0 01-.201 1.719z"/></symbol><symbol id="whatsapp" viewBox="0 0 32 32"><path d="M16.006 0H16C7.175 0 0 7.175 0 16c0 3.5 1.125 6.744 3.044 9.375L1.05 31.319 7.2 29.35A15.837 15.837 0 0016.006 32C24.825 32 32 24.825 32 16S24.825 0 16.006 0zm9.306 22.594c-.387 1.088-1.919 1.994-3.138 2.256-.837.175-1.925.319-5.606-1.206-4.7-1.95-7.731-6.725-7.969-7.037-.225-.313-1.9-2.531-1.9-4.825S7.868 8.37 8.336 7.888c.387-.394 1.025-.575 1.637-.575.2 0 .375.013.537.019.469.019.706.05 1.019.788.387.931 1.325 3.225 1.438 3.463s.225.556.069.869c-.15.319-.281.463-.519.731s-.463.481-.694.775c-.219.256-.463.525-.188.994.275.463 1.213 1.994 2.594 3.225 1.787 1.587 3.231 2.1 3.75 2.313.387.163.844.125 1.125-.175.356-.387.8-1.025 1.25-1.656.319-.45.725-.506 1.15-.35.431.15 2.719 1.281 3.188 1.513.469.237.781.35.894.544.112.212.112 1.138-.275 2.231z"/></symbol><symbol id="youtube" viewBox="0 0 42 32"><path d="M41.669 6.912S41.233 3.781 40 2.405C38.405.584 36.587.584 35.789.51c-5.88-.437-14.737-.511-14.737-.511S18.84.015 15.888.09c-2.952.074-6.636.198-9.572.42-.798.074-2.615.148-4.211 1.887C.797 3.781.436 6.912.436 6.912S0 10.62 0 14.327v3.419c0 3.707.436 7.349.436 7.349s.436 3.131 1.669 4.507c1.595 1.821 3.701 1.747 4.646 1.961 3.339.363 14.301.437 14.301.437s8.857 0 14.737-.511c.798-.074 2.615-.148 4.211-1.895 1.234-1.384 1.669-4.507 1.669-4.507s.436-3.707.436-7.349v-3.419c0-3.699-.436-7.407-.436-7.407zM15.97 24.437V8.659l13.791 8.074-13.791 7.703z"/></symbol></defs></svg>