<svg width="12" height="22" viewBox="0 0 12 22" fill="none" xmlns="http://www.w3.org/2000/svg"><path fill-rule="evenodd" clip-rule="evenodd" d="M9.004 4.046c.67-.022 1.34-.004 2.011-.007h.276V.627c-.357-.035-.732-.086-1.106-.103C9.498.494 8.809.461 8.122.477c-1.05.021-2.044.271-2.913.88-.996.702-1.542 1.686-1.75 2.85-.085.48-.107.976-.12 1.464-.02.767-.006 1.531-.003 2.3v.286H0v3.813h3.315v9.583h4.052v-9.568h3.305c.17-1.267.334-2.522.509-3.83h-.743c-.94.003-3.096 0-3.096 0s.009-1.89.031-2.71c.032-1.125.712-1.467 1.63-1.5z" fill="#333"/></svg>