<svg width="274" height="87" viewBox="0 0 274 87" fill="none" xmlns="http://www.w3.org/2000/svg"><path fill-rule="evenodd" clip-rule="evenodd" d="M76.698 29.503c2.37-1.603 4.31-1.974 4.31-1.974a82.308 82.308 0 01-.528 3.278 61.164 61.164 0 01-.603 2.861c-.427 1.781-.87 3.297-1.336 4.59a33.375 33.375 0 01-1.343 3.25c-.433.883-.84 1.582-1.225 2.142-1.545 2.23-2.42 2.061-2.42 2.061 1.498.633 3.008.218 4.423-1.166.702-.69 1.37-1.615 1.998-2.768.629-1.151 1.206-2.538 1.725-4.162.26-.811.515-1.736.765-2.732.25-.988.492-2.05.71-3.134.22-1.093.468-2.275.594-3.308.126-1.034.232-2.382.232-3.377 0-2.094 0-2.572-.232-3.652-.08-.373-.126-.39-.126-.39s.074-.22-1.943.735c-1.007.477-2.152.95-3.43 1.837-1.283.878-2.508 1.578-3.94 2.94-1.197 1.137-1.792 1.945-2.508 3.411-.602 1.668-.844 2.815-1.075 4.306-.469 2.98-.746 5.089-.746 5.089a16.513 16.513 0 011.211-3.46 16.183 16.183 0 011.702-2.78 15.987 15.987 0 013.785-3.597z" fill="#3E6E00"/><path fill-rule="evenodd" clip-rule="evenodd" d="M71.773 23.464a26.627 26.627 0 00-.59-2.923 45.8 45.8 0 00-.997-3.349 74.142 74.142 0 00-1.4-3.777 85.755 85.755 0 00-3.562-7.675c-.632-1.191-1.922-3.275-2.266-3.627-.575-1-1.065-1.405-1.065-1.405l-.652-.702s-.078-.147-.603 1.054c-.38.87-.77 1.053-1.114 2.107-.361.874-.67 1.171-1.03 2.108-.428 1.113-.902 1.463-1.374 2.81-.475 1.35-1.589 3.39-2.06 4.919-.47 1.525-1.42 2.663-1.815 4.252a52.274 52.274 0 00-.952 4.693 26.165 26.165 0 00-.29 4.281c.024 1.331.162 2.552.38 3.675.213 1.11.506 2.108.848 3 .335.888.724 1.669 1.107 2.338C55.888 37.91 57.663 39 57.663 39c-.541-1.162-.832-2.47-.933-3.87-.105-1.41-.02-2.9.196-4.413.213-1.517.548-3.045.952-4.523a55.55 55.55 0 011.343-4.22 64.573 64.573 0 012.672-6.322c.73-1.5 1.241-2.365 1.241-2.365a69.64 69.64 0 011.737 3.764 52.056 52.056 0 011.318 3.359 49.18 49.18 0 01.945 2.966c.26.93.472 1.799.642 2.605.33 1.62.518 3.02.596 4.229.075 1.214.048 2.24-.05 3.11-.386 3.477-1.605 4.581-1.605 4.581a12.29 12.29 0 002.973-3.07 12.967 12.967 0 001.77-3.915c.386-1.448.571-3.028.536-4.75a22.4 22.4 0 00-.223-2.702z" fill="#3E6E00"/><path fill-rule="evenodd" clip-rule="evenodd" d="M14.892 14.542c.084.584.229 1.555.444 2.803a120.776 120.776 0 001.84 8.74c.218.873.449 1.776.707 2.681a99.53 99.53 0 001.723 5.553 77.8 77.8 0 001.001 2.722 56.476 56.476 0 002.203 5.024c.809 1.593 1.62 2.968 2.412 4.086a16.535 16.535 0 002.564 2.884 13.76 13.76 0 002.655 1.842 13.64 13.64 0 002.617 1.036c.79.218 1.608.364 2.441.436 1.168.1 2.381.06 3.56-.111a8.578 8.578 0 01-1.79-.883c-1.044-.673-2.029-1.598-2.93-2.753-.809-1.037-1.571-2.307-2.266-3.767a34.974 34.974 0 01-1.694-4.366 52.08 52.08 0 01-1.19-4.437 62.25 62.25 0 01-.743-3.911c-.366-2.27-.48-3.757-.487-3.819l-.05-.627.598.171a97.61 97.61 0 014.622 1.396c1.384.454 2.7.927 3.92 1.407 1.153.44 2.247.91 3.256 1.381.954.447 1.845.901 2.643 1.35 1.47.821 2.744 1.682 3.785 2.545.908.757 1.656 1.537 2.219 2.309.758 1.041 1.145 1.984 1.339 2.744l.165-.595a15.26 15.26 0 00.436-2.614 12.79 12.79 0 00-.05-2.51 11.394 11.394 0 00-.543-2.402 11.901 11.901 0 00-1.053-2.29 13.689 13.689 0 00-1.6-2.166 16.874 16.874 0 00-2.184-2.032 22.798 22.798 0 00-2.814-1.86 52.533 52.533 0 00-3.667-1.842 95.475 95.475 0 00-4.46-1.89c-.787-.31-1.59-.62-2.399-.923a153.578 153.578 0 00-7.214-2.467 171.85 171.85 0 00-4.253-1.28 172.007 172.007 0 00-3.367-.945c-1.06-.279-1.88-.49-2.396-.62zm21.896 38.742c-.457 0-.913-.018-1.36-.055a14.525 14.525 0 01-2.603-.464c-.95-.27-1.89-.64-2.782-1.103a14.748 14.748 0 01-2.823-1.959 17.335 17.335 0 01-2.703-3.034c-.817-1.158-1.65-2.572-2.476-4.2a54.775 54.775 0 01-1.159-2.463c-.37-.847-.74-1.735-1.088-2.638-.346-.9-.685-1.83-1.005-2.76a84.41 84.41 0 01-.92-2.807c-.29-.937-.566-1.87-.823-2.787a121.925 121.925 0 01-2.564-11.515 94.476 94.476 0 01-.541-3.484l-.085-.639.616.152s1.144.281 3.035.78c.948.255 2.092.575 3.39.947 1.358.395 2.796.825 4.27 1.286 1.59.503 3.201 1.04 4.792 1.6.82.283 1.645.582 2.457.887.818.302 1.63.613 2.423.93a92.97 92.97 0 014.497 1.905 51.62 51.62 0 013.732 1.876 22.953 22.953 0 012.923 1.933 17.699 17.699 0 012.294 2.13 14.779 14.779 0 011.707 2.312 12.71 12.71 0 011.711 5.037 14 14 0 01.056 2.69 16.497 16.497 0 01-.464 2.765c-.234.917-.56 1.868-.964 2.83l-.813-.318s.133-.441.063-1.172c-.074-.718-.356-1.856-1.33-3.187-.518-.716-1.216-1.434-2.069-2.151-1.002-.833-2.23-1.663-3.652-2.455a37.407 37.407 0 00-2.588-1.32c-.994-.463-2.07-.92-3.2-1.364a76.925 76.925 0 00-3.88-1.388c-1.242-.41-2.575-.82-3.974-1.22.066.646.194 1.746.412 3.12a60.66 60.66 0 00.737 3.852c.339 1.532.73 2.997 1.166 4.364.5 1.567 1.056 3 1.652 4.254.669 1.4 1.399 2.614 2.166 3.605.84 1.073 1.756 1.932 2.715 2.555a8.122 8.122 0 003.343 1.217l.083.858c-.024.005-.643.208-1.659.377a16.76 16.76 0 01-2.715.221z" fill="#706F6F"/><path fill-rule="evenodd" clip-rule="evenodd" d="M26.866 70.998a17.33 17.33 0 002.758-.183c1.687-.25 3.09-.725 4.22-1.265 2.268-1.084 3.425-2.344 3.425-2.344a11.856 11.856 0 01-3.335.941c-1.159.158-2.365.17-3.59.066a23.935 23.935 0 01-3.704-.635 30.856 30.856 0 01-3.62-1.146A41.056 41.056 0 0119.718 65a45.183 45.183 0 01-5.198-2.967c1.092-.37 2.15-.715 3.177-1.034 1.033-.319 2.035-.614 3.008-.883.97-.274 1.906-.518 2.8-.732a74.342 74.342 0 012.566-.591 41.9 41.9 0 014.311-.687 23.82 23.82 0 013.203-.145C37.139 58.05 38 59.333 38 59.333a10.037 10.037 0 00-2.63-3.348c-1.123-.935-2.493-1.672-4.072-2.178a16.26 16.26 0 00-2.53-.585 20.167 20.167 0 00-2.795-.22c-.974-.01-1.98.041-3.011.155-1.033.108-2.09.279-3.162.517a86.435 86.435 0 00-3.416.835c-1.19.319-2.41.657-3.606 1A670.269 670.269 0 006.22 57.45a439.252 439.252 0 00-4.522 1.38C.622 59.166 0 59.368 0 59.368a79.728 79.728 0 004.881 3.365c.993.624 2.1 1.298 3.294 1.974 1.19.67 2.466 1.34 3.78 1.973a57.443 57.443 0 004.014 1.758c1.35.534 2.69.995 3.98 1.381 1.293.379 2.537.677 3.696.873 1.158.195 2.23.292 3.22.306zm18.579 4.588c.733-1.31.529-2.237.529-2.237-.389.614-.965 1.188-1.68 1.716-.703.528-1.55 1.012-2.474 1.446-.92.438-1.923.818-2.961 1.153a35.22 35.22 0 01-3.137.838c-1.047.22-2.067.409-3.011.548-.948.138-1.818.24-2.556.313-1.484.138-2.447.175-2.447.175a24.79 24.79 0 011.904-2.784c.67-.845 1.375-1.6 2.09-2.289a17.877 17.877 0 012.127-1.763c.69-.496 1.364-.904 1.992-1.242 2.52-1.336 4.17-1.217 4.17-1.217a22.739 22.739 0 00-4.463-.215c-1.48.077-2.926.298-4.285.657-1.36.368-2.616.862-3.733 1.494-1.114.627-2.082 1.374-2.877 2.237-.794.86-1.573 1.886-2.265 2.898a51.135 51.135 0 00-1.794 2.834A49.781 49.781 0 0019 82.997s.824.013 2.169-.014a65.66 65.66 0 002.387-.084 84.381 84.381 0 002.96-.203 62.233 62.233 0 003.329-.388 55.654 55.654 0 003.45-.602 47.315 47.315 0 003.328-.807 30.487 30.487 0 002.94-.975c1.776-.697 3.064-1.45 3.999-2.202.941-.746 1.524-1.477 1.883-2.136zM59.817 71c.465.779.076 1.94-.755 3.19-.827 1.252-2.086 2.579-3.38 3.74a43.218 43.218 0 01-3.654 2.919c-1.013.73-1.706 1.173-1.706 1.173-1.157-1.233-1.737-2.397-1.933-3.474-.197-1.07.034-2.017.446-2.814.826-1.592 2.358-2.358 2.358-2.358-1.486.653-2.804 1.33-3.926 2.016-1.12.678-2.043 1.375-2.728 2.064-1.374 1.372-1.846 2.735-1.343 4.011.252.635.687 1.322 1.183 1.978a20.376 20.376 0 001.542 1.806A28.411 28.411 0 0047.728 87s.56-.352 1.468-.941a86.445 86.445 0 003.512-2.466 58.01 58.01 0 002.13-1.657c.72-.584 1.44-1.206 2.138-1.844 1.395-1.271 2.666-2.587 3.565-3.77 1.795-2.364 1.662-3.701 1.038-4.455-.623-.755-1.762-.867-1.762-.867z" fill="#3E6E00"/><path fill-rule="evenodd" clip-rule="evenodd" d="M219.385 73.761a2.202 2.202 0 00-.522 0 .487.487 0 00-.174.052.308.308 0 00-.111.091.578.578 0 00-.065.162l-1.462 7.045a.097.097 0 00-.005.076c.007.026.03.05.056.066a.267.267 0 00.116.035c.049.01.117.013.204.013.08 0 .15-.003.205-.013a.542.542 0 00.152-.035.296.296 0 00.091-.066.129.129 0 00.041-.076l1.671-7.045a.447.447 0 00.018-.154.171.171 0 00-.065-.096.294.294 0 00-.15-.055zm-1.689 8.601a.523.523 0 00-.185-.073 1.3 1.3 0 00-.3-.023c-.148 0-.267.01-.357.029a.589.589 0 00-.232.127.469.469 0 00-.127.181 1.273 1.273 0 00-.088.236 1.25 1.25 0 00-.05.246 1.125 1.125 0 00-.018.202c0 .058.006.12.024.161a.21.21 0 00.085.11.364.364 0 00.174.065c.071.016.164.024.276.024.149 0 .274-.016.374-.04a.538.538 0 00.238-.136.435.435 0 00.124-.166c.032-.069.066-.146.086-.231.028-.08.042-.162.059-.243a1.28 1.28 0 00.019-.207.538.538 0 00-.019-.15.232.232 0 00-.083-.112zm-4.174-3.56c-.104.16-.284.299-.538.418-.256.122-.594.216-1.014.282-.424.07-.959.103-1.597.103h-.89a4.72 4.72 0 01.396-.835c.161-.268.357-.504.589-.707a2.72 2.72 0 01.799-.48c.301-.12.646-.181 1.029-.181.442 0 .781.085 1.019.252.24.162.361.385.361.66a.851.851 0 01-.154.488zm.64-1.614a2.39 2.39 0 00-.718-.372c-.295-.098-.652-.143-1.07-.143-.512 0-.97.07-1.38.216a3.956 3.956 0 00-1.071.58 3.862 3.862 0 00-.802.851 4.502 4.502 0 00-.548 1 5.448 5.448 0 00-.418 2.036c0 .393.057.738.171 1.035.115.294.284.545.511.736.225.2.515.344.854.442.344.097.746.15 1.201.15.243 0 .497-.016.747-.043.251-.029.486-.066.701-.11.215-.044.398-.092.556-.147a.969.969 0 00.331-.17.475.475 0 00.1-.124 1.01 1.01 0 00.099-.296c.005-.043.011-.083.011-.11 0-.048-.008-.09-.029-.117a.1.1 0 00-.093-.05c-.036 0-.121.026-.246.07-.118.044-.274.087-.473.147a6.72 6.72 0 01-.69.143 5.482 5.482 0 01-.912.073c-.644 0-1.11-.147-1.397-.433-.284-.286-.431-.695-.431-1.222 0-.153.008-.31.026-.485a3.95 3.95 0 01.084-.533h.914c.803 0 1.484-.049 2.054-.148.562-.098 1.035-.236 1.392-.42.364-.18.633-.402.803-.658.164-.258.248-.547.248-.868 0-.167-.039-.34-.118-.527a1.432 1.432 0 00-.407-.503zm-6.53-.406h-2.006l.355-1.596c.003-.033 0-.055-.003-.079a.155.155 0 00-.064-.06.342.342 0 00-.137-.035 1.145 1.145 0 00-.225-.014 1.18 1.18 0 00-.235.014.471.471 0 00-.153.035.208.208 0 00-.09.06.162.162 0 00-.044.079l-.358 1.596h-1.083a.238.238 0 00-.149.047.411.411 0 00-.111.123c-.022.055-.047.108-.055.169a1.24 1.24 0 00-.016.194c0 .077.014.132.047.154.024.032.068.045.119.045h1.085l-.871 3.923a1.358 1.358 0 00-.044.217c-.015.074-.025.15-.046.227-.01.072-.02.147-.023.213-.01.07-.01.137-.01.191 0 .246.033.453.101.635a1.1 1.1 0 00.307.446c.144.116.313.2.524.255.208.055.455.082.745.082a2.535 2.535 0 00.649-.08 1.84 1.84 0 00.271-.077.715.715 0 00.182-.095c.028-.03.061-.062.08-.106a.604.604 0 00.064-.133c.011-.05.026-.101.037-.156a.645.645 0 00.017-.152c0-.065-.01-.1-.038-.132a.144.144 0 00-.098-.034.508.508 0 00-.156.034c-.064.032-.136.053-.219.082a2.93 2.93 0 01-.303.082 2.26 2.26 0 01-.396.035c-.287 0-.485-.067-.607-.194-.119-.127-.181-.325-.181-.6 0-.09.013-.203.029-.351.021-.138.039-.265.059-.374l.879-3.938h2.011c.036 0 .076-.013.104-.02.03-.018.061-.036.085-.057.021-.03.047-.06.07-.093.015-.029.038-.067.052-.103a.586.586 0 00.023-.112c.008-.035.008-.077.008-.113a.438.438 0 00-.031-.154c-.027-.051-.075-.08-.151-.08zm-6.284.178a2.182 2.182 0 00-.401-.148 3.711 3.711 0 00-1.059-.14c-.394 0-.758.046-1.092.153a2.652 2.652 0 00-.86.434c-.243.188-.43.411-.559.673a1.752 1.752 0 00-.207.848c0 .3.076.549.218.745.142.194.326.355.548.498.216.133.449.252.706.356.256.098.493.206.711.315.219.11.402.236.547.376a.72.72 0 01.217.538 1.19 1.19 0 01-.462.952 1.7 1.7 0 01-.602.297c-.236.079-.52.114-.854.114a2.94 2.94 0 01-.837-.103 2.571 2.571 0 01-.556-.22 3.255 3.255 0 01-.354-.216c-.094-.07-.173-.102-.236-.102a.13.13 0 00-.079.024.461.461 0 00-.065.068c-.023.038-.039.07-.059.109-.011.04-.029.077-.039.125-.016.039-.023.082-.034.126-.002.043-.01.086-.01.122 0 .053.012.1.033.136.019.039.047.08.09.117.073.061.169.124.298.193.127.07.284.127.46.178a4.36 4.36 0 001.283.191c.455 0 .866-.054 1.243-.167.369-.114.685-.273.953-.478a1.966 1.966 0 00.821-1.616c0-.295-.071-.544-.218-.738a1.993 1.993 0 00-.545-.501 4.117 4.117 0 00-.709-.359 10.09 10.09 0 01-.713-.313 2.353 2.353 0 01-.549-.377.716.716 0 01-.212-.524 1.163 1.163 0 01.414-.87c.137-.116.303-.214.512-.283.2-.064.434-.1.695-.1.256 0 .466.02.645.065.177.051.335.104.462.165.124.06.225.116.313.161a.4.4 0 00.217.072.138.138 0 00.109-.054c.035-.044.061-.086.093-.142.026-.057.044-.11.061-.173a.653.653 0 00.017-.156c0-.09-.027-.162-.086-.21a1.289 1.289 0 00-.269-.16zm-7.611 2.854a4.963 4.963 0 01-.486 1.28 4.53 4.53 0 01-.745 1 3.386 3.386 0 01-.912.657 2.287 2.287 0 01-.972.234c-.268 0-.483-.05-.649-.154a1.101 1.101 0 01-.388-.37 1.356 1.356 0 01-.19-.513 3.138 3.138 0 01-.052-.554c0-.217.026-.466.067-.748a5.88 5.88 0 01.199-.87c.096-.295.209-.582.352-.868a3.49 3.49 0 01.509-.758c.198-.225.426-.405.687-.543.259-.138.548-.205.867-.205.403 0 .765.094 1.093.28.318.182.628.462.915.831l-.295 1.3zm1.528-3.022c-.029-.01-.073-.026-.124-.033a2.106 2.106 0 00-.201-.01c-.155 0-.27.015-.35.043-.079.027-.127.075-.144.142l-.166.71a3.263 3.263 0 00-.91-.716c-.339-.169-.76-.255-1.259-.255-.473 0-.895.082-1.271.244-.37.164-.694.38-.976.655a3.888 3.888 0 00-.707.919 6.388 6.388 0 00-.479 1.035 6.95 6.95 0 00-.261 1.035 5.776 5.776 0 00-.078.876c0 .272.027.545.085.816.058.272.169.516.326.737.164.216.381.395.66.525.279.132.635.204 1.072.204.314 0 .631-.054.942-.162.312-.109.594-.242.845-.406a3.59 3.59 0 00.652-.514c.188-.193.315-.368.379-.525l-.295 1.34c-.013.031-.013.063 0 .086a.155.155 0 00.065.063 1.02 1.02 0 00.319.038c.168 0 .286-.016.356-.038a.21.21 0 00.127-.15l1.453-6.516a.174.174 0 00-.008-.08c-.005-.02-.023-.043-.052-.064zm-7.505-.01h-2.005l.354-1.596a.149.149 0 000-.079c-.011-.024-.031-.043-.067-.06a.316.316 0 00-.132-.035 1.107 1.107 0 00-.223-.014c-.1 0-.176.001-.24.014a.452.452 0 00-.151.035.208.208 0 00-.093.06.132.132 0 00-.038.079l-.365 1.596h-1.081a.264.264 0 00-.152.047.41.41 0 00-.106.123.69.69 0 00-.056.169 1.13 1.13 0 00-.018.194c0 .077.018.132.048.154.026.032.068.045.122.045h1.086l-.877 3.923c-.017.066-.028.135-.043.217-.014.074-.027.15-.039.227a2.17 2.17 0 00-.027.213c-.01.07-.012.137-.012.191 0 .246.034.453.103.635.065.178.173.324.311.446.137.116.304.2.516.255.21.055.463.082.747.082a2.543 2.543 0 00.65-.08c.101-.022.193-.047.274-.077a.565.565 0 00.176-.095.41.41 0 00.085-.106.707.707 0 00.062-.133c.015-.05.026-.101.039-.156.009-.053.018-.106.018-.152 0-.065-.016-.1-.04-.132a.146.146 0 00-.102-.034.488.488 0 00-.15.034c-.065.032-.137.053-.225.082-.086.03-.187.056-.301.082-.116.02-.248.035-.393.035-.286 0-.486-.067-.605-.194-.124-.127-.188-.325-.188-.6 0-.09.015-.203.029-.351.023-.138.043-.265.064-.374l.881-3.938h2.009c.037 0 .068-.013.098-.02a.279.279 0 00.086-.057c.025-.03.046-.06.072-.093.021-.029.037-.067.054-.103.008-.035.019-.074.024-.112a.607.607 0 00.008-.113.382.382 0 00-.032-.154c-.026-.051-.08-.08-.155-.08zm-7.595-3.037a.701.701 0 00-.176-.087 4.915 4.915 0 00-.287-.075c-.11-.02-.222-.032-.348-.05a4.466 4.466 0 00-.337-.017c-.331 0-.636.046-.913.133a2.05 2.05 0 00-.746.412c-.22.185-.406.42-.562.702a3.692 3.692 0 00-.359 1.014l-.227 1.005h-1.086a.21.21 0 00-.106.027c-.033.016-.059.04-.086.064a.368.368 0 00-.066.1c-.01.034-.024.07-.036.108-.011.04-.019.085-.026.125-.001.043-.008.082-.008.122 0 .069.015.119.046.141.019.032.065.045.117.045h1.093l-1.377 6.15a5.374 5.374 0 01-.236.818c-.083.228-.196.42-.321.566a1.116 1.116 0 01-.47.332 1.73 1.73 0 01-.649.11c-.086 0-.166-.007-.223-.01a1.438 1.438 0 01-.155-.025c-.04-.006-.082-.016-.116-.02-.036-.004-.067-.008-.108-.008a.15.15 0 00-.083.025c-.018.023-.039.044-.055.079a.767.767 0 00-.077.22c-.013.038-.018.072-.026.101a.34.34 0 00-.01.07c0 .034.003.07.018.094.005.027.02.053.039.077a.913.913 0 00.246.085c.134.029.309.045.532.045.339 0 .651-.045.926-.13.276-.092.525-.228.741-.413.213-.19.401-.43.554-.727.152-.288.276-.641.367-1.046l1.427-6.393h1.788a.24.24 0 00.083-.02.212.212 0 00.08-.052.372.372 0 00.07-.075.612.612 0 00.055-.108.416.416 0 00.039-.125c.007-.045.01-.098.01-.148 0-.074-.018-.124-.049-.157a.176.176 0 00-.125-.047h-1.783l.142-.7c.073-.315.15-.586.24-.818.086-.23.195-.419.328-.571.132-.151.288-.264.474-.336.184-.067.411-.106.669-.106.14 0 .262.011.375.032.108.021.204.043.29.066.082.024.15.05.206.07.063.022.109.03.15.03a.097.097 0 00.07-.03.195.195 0 00.067-.08.551.551 0 00.039-.102c.005-.036.016-.08.023-.114.006-.037.013-.066.013-.092l.001-.061a.313.313 0 00-.018-.122.216.216 0 00-.068-.103zm-8.127 6.28a4.788 4.788 0 01-.246.882 3.851 3.851 0 01-.421.802 3.045 3.045 0 01-.587.657c-.23.186-.484.335-.774.438a2.683 2.683 0 01-.959.167c-.331 0-.622-.035-.86-.122a1.495 1.495 0 01-.572-.336 1.358 1.358 0 01-.32-.534 2.483 2.483 0 01-.091-.715c0-.297.026-.6.076-.909a4.82 4.82 0 01.25-.883 3.88 3.88 0 01.413-.8 3.11 3.11 0 01.59-.654c.23-.183.488-.329.776-.441.287-.108.604-.157.959-.157.335 0 .623.038.858.118.233.079.427.188.576.34.143.145.251.323.314.535.064.208.098.447.098.71 0 .304-.026.602-.08.901zm.976.152c.076-.371.114-.736.114-1.097 0-.373-.051-.712-.155-1.007a1.855 1.855 0 00-.494-.756 2.196 2.196 0 00-.866-.482c-.349-.112-.772-.162-1.272-.162-.463 0-.888.06-1.272.19a3.85 3.85 0 00-1.039.53 3.529 3.529 0 00-.804.783 4.54 4.54 0 00-.574.963 4.777 4.777 0 00-.344 1.067 5.462 5.462 0 00-.111 1.095c0 .37.049.71.151 1.013.106.294.274.55.499.76.222.207.512.368.861.478.349.113.775.167 1.271.167.465 0 .89-.065 1.275-.197a3.688 3.688 0 001.037-.529c.31-.221.579-.48.808-.785.231-.303.425-.621.579-.962a5.65 5.65 0 00.336-1.07zm-12.889-1.375c-.104.16-.285.299-.538.418-.256.122-.591.216-1.015.282-.419.07-.954.103-1.594.103h-.889a4.19 4.19 0 01.396-.835c.161-.268.359-.504.587-.707a2.74 2.74 0 01.798-.48 2.77 2.77 0 011.029-.181c.442 0 .779.085 1.024.252a.768.768 0 01.357.66.852.852 0 01-.155.488zm.646-1.614a2.532 2.532 0 00-.714-.372c-.302-.098-.661-.143-1.085-.143-.507 0-.964.07-1.368.216a3.79 3.79 0 00-1.072.58 3.705 3.705 0 00-.802.851 4.53 4.53 0 00-.555 1 5.505 5.505 0 00-.412 2.036c0 .393.054.738.169 1.035.111.294.278.545.509.736.23.2.514.344.853.442.341.097.745.15 1.2.15.245 0 .496-.016.749-.043a8.12 8.12 0 00.701-.11c.211-.044.397-.092.555-.147a1.02 1.02 0 00.334-.17.346.346 0 00.096-.124c.031-.051.046-.1.062-.15a.734.734 0 00.039-.145c.004-.044.01-.084.01-.111 0-.048-.01-.09-.027-.117a.101.101 0 00-.09-.05 1.09 1.09 0 00-.25.07c-.117.044-.274.087-.469.147a7.08 7.08 0 01-.695.143 5.449 5.449 0 01-.905.073c-.643 0-1.114-.147-1.4-.433-.29-.286-.428-.695-.428-1.222 0-.153.009-.31.022-.485.015-.174.04-.352.08-.533h.92c.801 0 1.483-.049 2.048-.148.568-.098 1.038-.236 1.393-.42.369-.18.633-.402.801-.658.171-.258.253-.547.253-.868 0-.167-.039-.34-.124-.527a1.39 1.39 0 00-.398-.503zm-7.487-.228a2.258 2.258 0 00-.41-.148 3.163 3.163 0 00-.502-.104 3.659 3.659 0 00-.553-.035 3.59 3.59 0 00-1.096.152 2.698 2.698 0 00-.859.434 1.974 1.974 0 00-.56.673 1.796 1.796 0 00-.203.848c0 .3.076.549.216.745.147.194.328.355.547.498.218.133.456.252.711.356.254.098.492.206.712.315.219.11.398.236.542.376.145.138.218.32.218.538 0 .186-.037.355-.11.515a1.192 1.192 0 01-.353.437 1.69 1.69 0 01-.595.297c-.24.079-.532.114-.863.114-.327 0-.606-.035-.831-.103a2.625 2.625 0 01-.555-.22 2.595 2.595 0 01-.359-.216c-.091-.07-.171-.102-.233-.102a.111.111 0 00-.077.024c-.024.018-.045.042-.068.068-.021.038-.039.07-.057.109-.013.04-.029.077-.041.125a.516.516 0 00-.034.126 1.857 1.857 0 00-.005.122c0 .053.006.1.031.136.018.039.047.08.09.117.075.061.169.124.295.193.127.07.282.127.465.178a4.242 4.242 0 001.281.191c.451 0 .866-.054 1.235-.167.373-.114.692-.273.959-.478a2.08 2.08 0 00.61-.712c.139-.279.212-.576.212-.904 0-.295-.073-.544-.219-.738a2.048 2.048 0 00-.544-.501 4.21 4.21 0 00-.711-.359c-.253-.1-.491-.207-.71-.313a2.152 2.152 0 01-.548-.377.694.694 0 01-.213-.524c0-.163.031-.316.102-.47.07-.15.173-.284.309-.4a1.6 1.6 0 01.51-.283c.202-.064.439-.1.696-.1.255 0 .473.02.648.065.178.051.329.104.458.165.122.06.233.116.312.161a.42.42 0 00.221.072.134.134 0 00.108-.054.623.623 0 00.093-.142.708.708 0 00.057-.173.592.592 0 00.023-.156c0-.09-.028-.162-.088-.21a1.259 1.259 0 00-.264-.16zm-5.338.4c.015-.05.026-.101.036-.153.008-.044.018-.091.018-.128a.518.518 0 00.008-.079c0-.066-.015-.106-.047-.128a.554.554 0 00-.142-.08 1.43 1.43 0 00-.227-.06 2.065 2.065 0 00-.274-.046 2.67 2.67 0 00-.294-.013c-.22 0-.442.037-.663.125a2.707 2.707 0 00-.633.344 3.469 3.469 0 00-.99 1.063l.277-1.27a.152.152 0 00-.005-.08.125.125 0 00-.053-.064.63.63 0 00-.126-.032 2.15 2.15 0 00-.202-.01c-.077 0-.145.006-.204.01-.064.007-.108.023-.15.032a.422.422 0 00-.093.063.139.139 0 00-.036.08l-1.447 6.517a.113.113 0 000 .077c.009.03.03.048.064.063.029.01.075.024.14.032a.976.976 0 00.227.016c.09 0 .171-.001.235-.016.062-.008.114-.022.155-.032a.16.16 0 00.086-.063.184.184 0 00.044-.077l.633-2.886a4.79 4.79 0 01.47-1.243 5.06 5.06 0 01.699-.982c.255-.277.508-.487.764-.64.256-.154.476-.234.667-.234a1.394 1.394 0 01.52.096c.068.023.124.045.182.065.046.019.09.033.131.033.033 0 .065-.016.095-.046a.493.493 0 00.071-.113.542.542 0 00.064-.141zm-7.442 1.442c-.106.16-.287.299-.536.418-.258.122-.594.216-1.019.282-.425.07-.95.103-1.595.103h-.891c.1-.29.235-.568.398-.835.163-.268.362-.504.587-.707.232-.202.499-.36.801-.48.303-.12.646-.181 1.031-.181.437 0 .781.085 1.016.252a.753.753 0 01.365.66.878.878 0 01-.157.488zm.64-1.614a2.33 2.33 0 00-.716-.372c-.297-.098-.654-.143-1.077-.143-.502 0-.965.07-1.376.216a3.92 3.92 0 00-1.07.58c-.31.248-.582.525-.802.851a5.015 5.015 0 00-.552 1c-.14.343-.246.695-.311 1.048-.069.352-.1.678-.1.988 0 .393.058.738.168 1.035.113.294.279.545.504.736.232.2.516.344.86.442.342.097.739.15 1.2.15.251 0 .499-.016.754-.043a8.11 8.11 0 00.691-.11c.215-.044.4-.092.563-.147a.996.996 0 00.329-.17.346.346 0 00.096-.124.612.612 0 00.067-.15c.013-.049.026-.099.036-.145a.737.737 0 00.01-.111c0-.048-.01-.09-.028-.117a.103.103 0 00-.094-.05.92.92 0 00-.242.07c-.119.044-.279.087-.474.147-.196.05-.424.102-.693.143a5.49 5.49 0 01-.912.073c-.646 0-1.111-.147-1.394-.433-.286-.286-.431-.695-.431-1.222 0-.153.005-.31.028-.485.011-.174.037-.352.073-.533h.926c.798 0 1.475-.049 2.047-.148.563-.098 1.031-.236 1.396-.42.361-.18.631-.402.799-.658.167-.258.253-.547.253-.868 0-.167-.044-.34-.124-.527a1.41 1.41 0 00-.404-.503zm-6.653-.406a1.11 1.11 0 00-.138-.023c-.057-.004-.132-.01-.225-.01-.101 0-.186.006-.255.01a.86.86 0 00-.161.032.197.197 0 00-.098.058c-.016.024-.039.053-.044.085-.238.62-.466 1.18-.688 1.677a17.049 17.049 0 01-1.488 2.714c-.275.41-.592.843-.942 1.3l-.03.036v-.037l-1.009-5.69a.212.212 0 00-.033-.085.107.107 0 00-.067-.058.625.625 0 00-.145-.032c-.062-.004-.143-.01-.246-.01-.083 0-.158.006-.212.01a.383.383 0 00-.139.023.144.144 0 00-.079.053.134.134 0 00-.04.1c0 .025.004.048.004.081a.75.75 0 01.019.092l1.194 6.343a.148.148 0 00.036.087.198.198 0 00.083.063c.039.01.086.02.148.027.064.011.142.011.237.011.073 0 .143 0 .196-.008.058-.008.107-.011.15-.03a.374.374 0 00.117-.055.575.575 0 00.1-.095c.451-.488.861-.995 1.229-1.517.372-.525.713-1.055 1.023-1.595.313-.546.59-1.08.845-1.625.252-.55.479-1.081.684-1.606a.752.752 0 00.038-.108.253.253 0 00.021-.122c0-.02-.001-.035-.021-.053-.01-.019-.033-.034-.064-.043zm-7.756.01c-.031-.01-.08-.026-.14-.033-.057-.004-.129-.01-.224-.01-.097 0-.174.006-.239.01-.066.007-.114.023-.157.032a.266.266 0 00-.086.063.21.21 0 00-.038.08l-1.44 6.517c-.013.03-.013.053 0 .077.007.03.026.048.059.063a1.093 1.093 0 00.37.048c.09 0 .17-.002.233-.016.067-.008.114-.022.157-.032a.157.157 0 00.086-.063.168.168 0 00.041-.077l1.438-6.516a.195.195 0 00-.001-.08.193.193 0 00-.059-.064zm-4.297.404a1.56 1.56 0 00-.569-.384c-.235-.094-.525-.14-.876-.14-.336 0-.661.05-.969.153-.31.11-.595.243-.846.402a3.343 3.343 0 00-.654.522 1.91 1.91 0 00-.369.517l.292-1.332a.179.179 0 00-.002-.08.15.15 0 00-.053-.063c-.033-.01-.075-.025-.129-.032a1.978 1.978 0 00-.198-.01c-.079 0-.15.006-.207.01-.06.007-.111.023-.148.032a.4.4 0 00-.083.063.177.177 0 00-.034.08l-1.463 6.517a.102.102 0 000 .077.114.114 0 00.067.063 1.072 1.072 0 00.37.048c.091 0 .168-.002.231-.016a1.11 1.11 0 00.155-.032.17.17 0 00.088-.063.241.241 0 00.044-.077l.636-2.886a4.622 4.622 0 011.23-2.279 3.25 3.25 0 01.915-.66 2.15 2.15 0 01.969-.234c.373 0 .642.101.8.299.16.2.24.469.24.81a4.04 4.04 0 01-.104.864l-.912 4.086a.093.093 0 00.007.077.126.126 0 00.063.063.81.81 0 00.139.032.986.986 0 00.223.016c.095 0 .18-.001.237-.016.06-.008.111-.022.148-.032.043-.014.074-.034.092-.063a.241.241 0 00.044-.077l.911-4.087c.034-.168.061-.334.087-.496a4.93 4.93 0 00.029-.493 2.08 2.08 0 00-.093-.636 1.336 1.336 0 00-.308-.543zm-7.598-.404c-.033-.01-.077-.026-.136-.033-.06-.004-.138-.01-.231-.01-.096 0-.171.006-.237.01-.063.007-.117.023-.155.032a.378.378 0 00-.093.063.134.134 0 00-.037.08l-.654 2.912a4.776 4.776 0 01-1.226 2.266c-.286.28-.589.493-.914.654-.328.155-.65.232-.973.232a1.31 1.31 0 01-.486-.078.743.743 0 01-.318-.227.789.789 0 01-.178-.347 1.658 1.658 0 01-.056-.433c0-.158.013-.305.033-.451.02-.147.044-.29.073-.426l.91-4.102a.134.134 0 00-.009-.08.285.285 0 00-.061-.063c-.037-.01-.081-.025-.14-.032-.059-.004-.134-.01-.218-.01-.097 0-.175.006-.242.01-.062.007-.112.023-.153.032a.547.547 0 00-.093.063.166.166 0 00-.039.08l-.907 4.102a4.279 4.279 0 00-.121.968c0 .25.031.48.098.69.06.208.166.385.313.54.149.151.343.265.589.357.241.085.541.128.903.128.31 0 .615-.053.92-.159.307-.1.584-.23.837-.391.249-.156.468-.33.647-.511a1.7 1.7 0 00.38-.519l-.28 1.312c-.015.03-.015.053 0 .077.008.03.029.048.059.063a.63.63 0 00.125.032.798.798 0 00.202.016.91.91 0 00.207-.016c.056-.008.105-.022.144-.032a.16.16 0 00.083-.063.154.154 0 00.038-.077l1.458-6.516a.18.18 0 000-.08.208.208 0 00-.062-.064zm-11.194 0a1.289 1.289 0 00-.226-.06 1.804 1.804 0 00-.273-.046 2.61 2.61 0 00-.294-.013c-.22 0-.444.037-.662.125a2.788 2.788 0 00-.636.344c-.199.14-.387.305-.558.488-.17.186-.316.372-.43.575l.282-1.27c0-.033 0-.055-.005-.08a.187.187 0 00-.062-.064.439.439 0 00-.121-.032 2.059 2.059 0 00-.199-.01c-.081 0-.148.006-.21.01-.059.007-.106.023-.15.032a.397.397 0 00-.088.063.144.144 0 00-.041.08l-1.445 6.517c-.012.03-.012.053 0 .077.008.03.033.048.067.063a1.035 1.035 0 00.362.048c.093 0 .173-.002.236-.016a.98.98 0 00.154-.032c.044-.014.075-.034.091-.063.016-.024.036-.046.046-.077l.631-2.886a4.72 4.72 0 01.469-1.243c.214-.382.444-.711.702-.982a3.41 3.41 0 01.761-.64c.253-.154.475-.234.662-.234a1.38 1.38 0 01.522.096c.069.023.128.045.176.065a.433.433 0 00.133.033.133.133 0 00.099-.046.742.742 0 00.077-.113.604.604 0 00.057-.141.69.69 0 00.039-.153c.006-.044.01-.091.023-.128 0-.037.005-.063.005-.079 0-.066-.018-.106-.048-.128a.481.481 0 00-.146-.08zm-6.408 0c-.036-.01-.08-.026-.139-.033-.062-.004-.135-.01-.231-.01-.092 0-.171.006-.235.01-.065.007-.116.023-.157.032a.531.531 0 00-.093.063.189.189 0 00-.04.08l-.65 2.912a4.743 4.743 0 01-.484 1.27 4.479 4.479 0 01-.743.996 3.45 3.45 0 01-.915.654 2.24 2.24 0 01-.97.232c-.192 0-.355-.025-.485-.078a.792.792 0 01-.321-.227.844.844 0 01-.175-.347 1.597 1.597 0 01-.055-.433c0-.158.013-.305.032-.451.017-.147.041-.29.072-.426l.907-4.102c.005-.032 0-.054-.005-.08a.208.208 0 00-.067-.063c-.031-.01-.075-.025-.137-.032a2.557 2.557 0 00-.222-.01c-.091 0-.17.006-.236.01-.064.007-.114.023-.155.032a.323.323 0 00-.088.063.141.141 0 00-.044.08l-.904 4.102a4.153 4.153 0 00-.124.968c0 .25.033.48.098.69.064.208.17.385.317.54.145.151.342.265.588.357.243.085.542.128.899.128.311 0 .618-.053.923-.159.303-.1.584-.23.833-.391.255-.156.468-.33.648-.511.186-.183.311-.36.38-.519l-.28 1.312c-.014.03-.014.053 0 .077a.103.103 0 00.061.063c.028.01.072.024.126.032.05.014.114.016.199.016a.914.914 0 00.21-.016c.057-.008.105-.022.145-.032a.153.153 0 00.078-.063.159.159 0 00.04-.077l1.46-6.516c.006-.033.006-.055-.007-.08a.131.131 0 00-.054-.064zm-9.462 3.232a5.11 5.11 0 01-.248.883 3.907 3.907 0 01-.416.802 3.11 3.11 0 01-.594.657 2.62 2.62 0 01-.771.438 2.686 2.686 0 01-.954.167c-.34 0-.628-.035-.861-.122a1.459 1.459 0 01-.576-.336 1.331 1.331 0 01-.318-.534 2.528 2.528 0 01-.096-.715 5.14 5.14 0 01.328-1.792c.107-.284.248-.554.416-.8.17-.252.368-.467.593-.654a2.93 2.93 0 01.772-.441c.283-.108.606-.157.959-.157.337 0 .62.038.856.118.236.079.429.188.574.34.148.145.253.323.318.535.063.208.096.447.096.71 0 .304-.03.602-.078.901zm.437-2.707a2.186 2.186 0 00-.86-.482c-.35-.112-.777-.162-1.272-.162-.463 0-.892.06-1.273.19a3.85 3.85 0 00-1.847 1.313 4.761 4.761 0 00-.577.963 5.112 5.112 0 00-.339 1.067 5.46 5.46 0 00-.11 1.095c0 .37.051.71.154 1.013.104.294.27.55.493.76.228.207.513.368.862.478.35.113.776.167 1.276.167.461 0 .892-.065 1.27-.197a3.75 3.75 0 001.042-.529c.308-.221.573-.48.809-.785a4.928 4.928 0 00.91-2.031c.077-.371.113-.736.113-1.097 0-.373-.053-.712-.155-1.007a1.833 1.833 0 00-.496-.756zm-6.941-.535c-.057-.023-.178-.034-.36-.034-.098 0-.185.007-.253.011a.911.911 0 00-.163.032.22.22 0 00-.154.144c-.184.504-.385.992-.592 1.478-.21.49-.44.972-.685 1.447a15.818 15.818 0 01-1.812 2.801h-.016l-1.042-5.727c-.003-.032-.02-.054-.034-.083a.133.133 0 00-.077-.06.516.516 0 00-.138-.032 2.804 2.804 0 00-.243-.01c-.088 0-.163.006-.227.01a.579.579 0 00-.144.032.106.106 0 00-.07.06.197.197 0 00-.026.1.38.38 0 00.013.091c.005.039.013.087.023.146l1.204 6.413-2.037 2.306c-.052.06-.082.107-.088.147a.12.12 0 00.055.105.38.38 0 00.161.048c.067.011.15.016.248.016.087 0 .17-.005.24-.016a.883.883 0 00.175-.039.357.357 0 00.122-.057.347.347 0 00.088-.073l2.148-2.567a19.848 19.848 0 001.398-1.836 19.607 19.607 0 001.733-3.152c.204-.473.396-.929.58-1.362a.566.566 0 00.054-.243c-.001-.035-.024-.069-.081-.096zm191.424-10.864c-.101.417-.25.694-.44.832-.194.14-.527.213-.989.213h-11.512v-6.799h7.266c.455 0 .782.07.973.209.197.14.348.422.457.841h.448v-3.886h-.448c-.109.42-.258.695-.445.838-.196.145-.516.214-.985.214h-7.266v-6.196h11.408c.468 0 .793.074.983.214.185.138.34.42.449.841h.447v-3.884h-.447c-.109.417-.264.689-.449.832-.19.146-.515.216-.983.216h-14.852v.44c.421.113.703.26.846.44.145.193.215.514.215.969v14.644c0 .45-.066.768-.208.959-.139.192-.423.343-.853.45v.441h14.971c.463 0 .793.074.982.214.186.143.331.422.432.84h.465v-3.882h-.465zm-22.026-2.794c.187.367.282.65.282.83 0 .254-.348.654-1.05 1.193-1.785 1.396-3.884 2.094-6.302 2.094-2.145 0-3.981-.596-5.524-1.785-1.958-1.497-2.945-3.5-2.945-6.013 0-2.31.889-4.185 2.663-5.617 1.585-1.274 3.554-1.916 5.907-1.916 2.404 0 4.501.567 6.289 1.704.44.284.66.54.66.769 0 .15-.039.376-.111.653l.377.248 2.081-3.522-.401-.212c-.284.371-.545.554-.78.554-.109 0-.272-.05-.483-.16-2.423-1.288-4.974-1.934-7.632-1.934-3.006 0-5.502.756-7.487 2.279-2.386 1.832-3.575 4.249-3.575 7.257 0 1.58.365 3.059 1.096 4.435a9.217 9.217 0 002.312 2.806c1.923 1.572 4.358 2.352 7.318 2.352 1.696 0 3.234-.232 4.599-.706 1.373-.47 2.738-1.229 4.107-2.284.171-.141.305-.213.393-.213.168 0 .443.171.833.51l.352-.297-2.596-3.276-.383.25zm-25.738-12.28c.42.112.701.26.848.44.142.192.217.513.217.968v14.644c0 .45-.075.768-.217.959-.147.192-.428.343-.848.45v.441h4.509v-.442c-.421-.106-.706-.257-.848-.45-.145-.19-.219-.508-.219-.958V52.252c0-.455.074-.776.219-.969.142-.18.427-.327.848-.44v-.44h-4.509v.44zm-5.8 7.21c-.401.263-.884.438-1.451.53-.566.091-1.44.14-2.629.14h-6.553v-6.54h6.553c1.2 0 2.076.049 2.639.143.557.095 1.04.272 1.441.533.773.514 1.165 1.375 1.165 2.584 0 1.237-.392 2.107-1.165 2.61zm1.258-6.782a5.488 5.488 0 00-1.902-.69c-.701-.116-1.745-.179-3.118-.179h-10.31v.492c.386.096.659.23.823.382.157.16.238.397.238.716v15.05c0 .33-.076.579-.229.757-.157.174-.441.313-.832.42v.526h4.454v-.525c-.372-.108-.641-.248-.788-.42-.152-.18-.227-.428-.227-.757V60.51h6.871c1.363 0 2.392-.064 3.094-.183a5.23 5.23 0 001.914-.708 4.1 4.1 0 001.62-1.696c.383-.734.574-1.553.574-2.457a5.38 5.38 0 00-.579-2.488c-.392-.746-.923-1.313-1.603-1.707zm-20.51 8.238c-.608-.34-1.344-.587-2.203-.74-.86-.15-2.128-.255-3.803-.31-2.003-.077-3.312-.141-3.926-.196a7.504 7.504 0 01-1.692-.34 2.47 2.47 0 01-1.246-.896 2.28 2.28 0 01-.47-1.415c0-1.172.61-2.083 1.848-2.733 1.229-.65 2.725-.97 4.489-.97 2.197 0 4.058.403 5.588 1.209.717.377 1.083.692 1.083.95 0 .121-.028.34-.085.66l.398.195 1.831-3.568-.413-.201c-.246.405-.456.607-.636.607-.05 0-.257-.07-.613-.212-2.353-1.026-4.687-1.54-7.024-1.54-2.544 0-4.649.514-6.298 1.54-1.621 1.005-2.433 2.39-2.433 4.145 0 .999.278 1.856.817 2.585a4.56 4.56 0 002.148 1.542c.699.249 1.438.427 2.229.527.786.106 2.094.202 3.922.274 1.554.056 2.611.111 3.169.179a8.19 8.19 0 011.526.327c.486.18.883.472 1.178.888.301.413.451.88.451 1.407 0 .569-.177 1.108-.536 1.63-.351.52-.827.93-1.425 1.235-1.241.638-2.802.952-4.678.952-2.051 0-4.03-.496-5.933-1.488-1.136-.593-1.699-1.041-1.699-1.341 0-.111.023-.254.08-.43.015-.044.032-.134.07-.26l-.4-.234-2.113 3.492.38.247c.336-.386.587-.577.753-.577.085 0 .22.055.398.166a19.237 19.237 0 004.219 1.705c1.51.415 2.957.618 4.328.618 2.799 0 5.037-.59 6.721-1.78 1.409-1.009 2.114-2.353 2.114-4.049 0-.808-.189-1.555-.566-2.235a3.871 3.871 0 00-1.548-1.565zm-23.707 5.273c-1.657 1.638-3.846 2.458-6.573 2.458-2.727 0-4.917-.82-6.574-2.458-1.438-1.42-2.161-3.156-2.161-5.208 0-2.054.723-3.79 2.161-5.208 1.657-1.64 3.831-2.457 6.535-2.457 2.743.024 4.943.844 6.612 2.457 1.436 1.389 2.159 3.154 2.159 5.306 0 1.988-.723 3.69-2.159 5.11zm1.412-12.218c-2.032-1.704-4.7-2.555-8.024-2.555-1.88.02-3.516.289-4.905.803-2.019.743-3.583 1.922-4.707 3.554-1.052 1.538-1.58 3.277-1.58 5.208 0 2.863 1.084 5.196 3.243 7.014 2.031 1.698 4.696 2.55 7.988 2.55 4.412 0 7.62-1.453 9.63-4.356 1.064-1.54 1.595-3.233 1.595-5.077 0-2.958-1.078-5.34-3.24-7.141zm-36.743-.38h7.352c1.807 0 3.093.267 3.847.802.815.58 1.231 1.44 1.231 2.589 0 1.19-.44 2.025-1.317 2.505-.4.225-.884.378-1.454.455-.575.078-1.431.122-2.568.122h-7.091v-6.474zm.215 15.67c-.142-.191-.215-.51-.215-.959v-6.453h6.773l4.289 6.668c.251.394.38.654.38.782 0 .188-.219.328-.648.411v.442h4.609v-.442c-.409-.053-.691-.122-.851-.208-.163-.09-.328-.264-.496-.508l-4.672-7.308c1.742-.166 3.059-.652 3.96-1.467.895-.819 1.35-1.923 1.35-3.332 0-1.726-.649-3.037-1.934-3.931-.586-.413-1.281-.708-2.073-.888-.793-.175-1.809-.259-3.066-.259h-11.067v.44c.427.113.708.26.853.44.145.193.215.514.215.969v14.644c0 .45-.068.768-.207.959-.139.192-.421.343-.861.45v.441h4.512v-.442c-.425-.106-.702-.257-.851-.45zm-7.138-17.569c-.186.145-.514.215-.98.215h-14.521c-.463 0-.794-.07-.984-.215-.187-.14-.336-.419-.445-.837h-.45v3.887h.45c.109-.423.258-.7.445-.837.19-.143.521-.21.984-.21h6.073v14.607c0 .45-.073.768-.217.959-.147.192-.426.343-.853.45v.441h4.514v-.442c-.435-.106-.724-.257-.861-.45-.135-.19-.204-.508-.204-.958V52.289h6.069c.453 0 .781.067.973.21.193.137.349.414.457.837h.449V49.45h-.449c-.108.417-.259.696-.45.836zm-36.57 17.569c-.134-.191-.2-.51-.2-.959V53.268l12.004 13.141c.535.583.799.996.799 1.227 0 .305-.285.525-.866.668v.442h4.876v-.442c-.435-.106-.722-.257-.859-.45-.137-.19-.207-.508-.207-.958V52.252c0-.455.073-.776.217-.969.146-.18.429-.327.849-.44v-.44h-4.108v.44c.421.113.705.26.847.44.143.193.215.514.215.969v12.746L99.922 52.88c-.424-.461-.63-.856-.63-1.186 0-.38.286-.664.867-.85v-.44H94.1v.44c.424.112.706.26.852.44.141.192.215.513.215.968v14.644c0 .45-.07.768-.21.959-.14.192-.428.343-.857.45v.441h4.108v-.442c-.432-.106-.714-.257-.86-.45zm-6.416-1.937h-.465c-.1.417-.248.694-.438.832-.198.14-.529.213-.994.213H77.528v-6.799h7.268c.452 0 .778.07.97.209.195.14.348.422.46.841h.452v-3.886h-.451c-.113.42-.261.695-.452.838-.186.145-.514.214-.979.214h-7.269v-6.196H88.94c.465 0 .788.074.979.214.187.138.336.42.448.841h.452v-3.884h-.452c-.112.417-.26.689-.448.832-.191.146-.514.216-.979.216H74.085v.44c.417.113.706.26.846.44.147.193.216.514.216.969v14.644c0 .45-.066.768-.21.959-.136.192-.42.343-.852.45v.441h14.97c.462 0 .79.074.983.214.187.143.33.422.43.84h.465v-3.882zm-23.18-3.766c.192.35.285.606.285.755 0 .305-.488.825-1.462 1.56-2.162 1.62-4.66 2.429-7.485 2.429-2.895 0-5.328-.877-7.305-2.632-2.042-1.802-3.06-4.07-3.06-6.795 0-2.738.984-4.968 2.943-6.69 1.93-1.694 4.45-2.537 7.552-2.537 2.31 0 4.435.472 6.388 1.407 1.42.674 2.13 1.24 2.13 1.689 0 .185-.049.44-.153.766l.452.263 2.459-4.045-.442-.247c-.38.414-.644.626-.788.626-.076 0-.213-.06-.41-.165C65.814 46.842 62.668 46 59.421 46c-4.914 0-8.6 1.537-11.062 4.617-1.577 1.966-2.36 4.288-2.36 6.974 0 3.411 1.257 6.212 3.774 8.406 2.394 2.092 5.504 3.142 9.331 3.142 1.985 0 3.804-.279 5.456-.835a12.68 12.68 0 002.206-.96c.672-.38 1.517-.943 2.535-1.697.3-.237.51-.346.634-.346.197 0 .453.135.765.407l.414-.323-2.96-3.541-.401.308zm59.496 12.033a1.301 1.301 0 00-.302-.029c-.121 0-.227.01-.308.03a.412.412 0 00-.214.104.505.505 0 00-.143.181 1.208 1.208 0 00-.093.278 1.263 1.263 0 00-.03.28.31.31 0 00.056.174c.039.044.09.079.169.1a1.697 1.697 0 00.615 0 .571.571 0 00.212-.1.426.426 0 00.141-.175c.034-.077.066-.173.086-.28.024-.11.041-.205.041-.277a.29.29 0 00-.065-.181.258.258 0 00-.165-.105z" fill="#333"/></svg>