<svg aria-hidden="true" style="position:absolute;width:0;height:0" xmlns="http://www.w3.org/2000/svg" overflow="hidden"><defs><symbol id="Like" viewBox="0 0 36 32"><path d="M18.133 32a2.142 2.142 0 01-1.402-.522c-1.465-1.271-2.878-2.465-4.124-3.518l-.006-.006c-3.654-3.088-6.809-5.755-9.004-8.382C1.143 16.635 0 13.851 0 10.809c0-2.955 1.022-5.682 2.877-7.678C4.754 1.112 7.33-.001 10.131-.001c2.093 0 4.011.656 5.698 1.951a11.58 11.58 0 012.304 2.386 11.604 11.604 0 012.304-2.386C22.124.656 24.042-.001 26.135-.001c2.801 0 5.377 1.112 7.254 3.132 1.855 1.996 2.877 4.722 2.877 7.678 0 3.042-1.143 5.826-3.597 8.763-2.195 2.627-5.35 5.294-9.003 8.381-1.248 1.055-2.663 2.251-4.131 3.524a2.142 2.142 0 01-1.402.522zM10.131 2.107c-2.201 0-4.222.871-5.693 2.453-1.492 1.606-2.315 3.825-2.315 6.25 0 2.558.959 4.846 3.108 7.419 2.078 2.486 5.168 5.098 8.746 8.123l.007.006a417.98 417.98 0 014.145 3.536 513.935 513.935 0 014.158-3.542c3.578-3.024 6.668-5.636 8.746-8.122 2.149-2.572 3.108-4.86 3.108-7.419 0-2.425-.822-4.644-2.314-6.25-1.471-1.582-3.492-2.453-5.693-2.453-1.612 0-3.092.508-4.399 1.51-1.165.894-1.976 2.023-2.452 2.813-.245.406-.675.649-1.152.649s-.907-.243-1.152-.649c-.475-.79-1.287-1.92-2.451-2.813-1.307-1.002-2.787-1.51-4.399-1.51z"/></symbol><symbol id="row-left" viewBox="0 0 8 32"><path stroke-width=".421" d="M8 31.579l-7.579-16L8 .421"/></symbol><symbol id="row-right" viewBox="0 0 8 32"><path stroke-width=".421" d="M.421.421l7.579 16L.421 31.579"/></symbol><symbol id="telephone-call" viewBox="0 0 32 32"><path fill="var(--color1, #fff)" d="M24.329 21.169c-1.045-1.032-2.351-1.032-3.389 0-.792.786-1.585 1.571-2.364 2.371-.213.22-.393.266-.653.12-.513-.28-1.059-.506-1.552-.812-2.297-1.445-4.222-3.303-5.926-5.394-.846-1.039-1.598-2.151-2.124-3.403-.107-.253-.087-.42.12-.626.792-.766 1.565-1.552 2.344-2.337 1.085-1.092 1.085-2.371-.007-3.469-.619-.626-1.239-1.239-1.858-1.864-.639-.639-1.272-1.285-1.918-1.918-1.045-1.019-2.351-1.019-3.389.007-.799.786-1.565 1.591-2.377 2.364C.484 6.921.104 7.793.024 8.812c-.127 1.658.28 3.223.852 4.748 1.172 3.156 2.957 5.96 5.121 8.53 2.923 3.476 6.413 6.226 10.494 8.21 1.838.892 3.742 1.578 5.813 1.691 1.425.08 2.664-.28 3.656-1.392.679-.759 1.445-1.452 2.164-2.177 1.065-1.079 1.072-2.384.013-3.449-1.265-1.272-2.537-2.537-3.809-3.802zm-1.272-5.308l2.457-.42a10.98 10.98 0 00-3.07-5.926 10.923 10.923 0 00-6.259-3.123l-.346 2.47a8.479 8.479 0 014.848 2.417 8.477 8.477 0 012.371 4.581zm3.842-10.68A18.12 18.12 0 0016.511 0l-.346 2.47a15.703 15.703 0 018.976 4.475 15.694 15.694 0 014.401 8.49l2.457-.419a18.254 18.254 0 00-5.101-9.835z"/></symbol></defs></svg>