<svg aria-hidden="true" style="position:absolute;width:0;height:0" xmlns="http://www.w3.org/2000/svg" overflow="hidden"><defs><symbol id="icon-basket" viewBox="0 0 28 32"><path fill="var(--color1, #585858)" d="M8.026 20.601h16.697c1.893 0 3.438-1.595 3.438-3.55V9.72c0-.013 0-.026-.006-.039 0-.013-.006-.032-.006-.045s-.006-.026-.006-.039c-.006-.013-.006-.026-.012-.045-.006-.013-.006-.026-.013-.039s-.006-.026-.012-.039l-.019-.045a.104.104 0 00-.019-.032l-.019-.039-.019-.032c-.006-.013-.019-.026-.025-.039s-.013-.019-.025-.032c-.006-.013-.019-.019-.025-.032s-.019-.019-.025-.032c-.006-.013-.019-.019-.025-.026l-.031-.032c-.012-.006-.019-.019-.031-.026s-.025-.019-.037-.026c-.013-.006-.019-.013-.031-.019s-.025-.013-.037-.026l-.037-.019-.037-.019-.037-.019c-.012-.006-.025-.006-.037-.013-.013-.006-.031-.013-.044-.013s-.025-.006-.031-.006-.031-.006-.05-.006c-.006 0-.013-.006-.025-.006L6.278 5.919V2.871c0-.032 0-.064-.006-.09 0-.006 0-.013-.006-.026 0-.019-.006-.039-.006-.058-.006-.019-.006-.032-.012-.051 0-.013-.006-.019-.006-.032l-.019-.058c0-.006-.006-.019-.006-.026a.172.172 0 00-.025-.051c-.006-.006-.006-.019-.012-.026-.006-.013-.012-.026-.025-.039-.006-.013-.012-.019-.019-.032l-.019-.032c-.006-.013-.019-.026-.025-.039l-.019-.019-.037-.039-.019-.019a.248.248 0 00-.044-.039c-.006-.006-.019-.013-.025-.019-.012-.013-.025-.019-.037-.032-.019-.013-.037-.026-.05-.032-.006-.006-.012-.006-.019-.013l-.081-.039L1.171.067C.741-.119.249.086.069.53s.019.952.448 1.138L4.59 3.443v19.021c0 1.801 1.308 3.292 2.996 3.518a3.596 3.596 0 00-.486 1.801c0 1.936 1.526 3.505 3.394 3.505s3.394-1.575 3.394-3.505a3.52 3.52 0 00-.467-1.768h7.56a3.54 3.54 0 00-.467 1.768c0 1.936 1.526 3.505 3.394 3.505s3.394-1.575 3.394-3.505c0-1.929-1.526-3.505-3.394-3.505H8.027c-.972 0-1.756-.817-1.756-1.814V20.11a3.392 3.392 0 001.756.489zm4.185 7.177c0 .977-.772 1.768-1.713 1.768s-1.713-.797-1.713-1.768.772-1.768 1.713-1.768 1.713.791 1.713 1.768zm13.414 0c0 .977-.772 1.768-1.713 1.768s-1.713-.797-1.713-1.768.772-1.768 1.713-1.768 1.713.791 1.713 1.768zm-.903-8.913H8.025c-.972 0-1.756-.817-1.756-1.813V7.67l20.209 2.874v6.501c0 1.01-.791 1.82-1.756 1.82z"/></symbol><symbol id="icon-heart" viewBox="0 0 36 32"><path fill="var(--color1, #585858)" d="M18.182 32a2.146 2.146 0 01-1.406-.522 406.477 406.477 0 00-4.135-3.518l-.006-.006c-3.664-3.088-6.827-5.755-9.028-8.382C1.146 16.635 0 13.851 0 10.809c0-2.955 1.025-5.682 2.885-7.678C4.767 1.112 7.35-.001 10.159-.001c2.099 0 4.021.656 5.713 1.951a11.605 11.605 0 012.31 2.386 11.63 11.63 0 012.31-2.386C22.184.656 24.106-.001 26.205-.001c2.808 0 5.391 1.112 7.274 3.132 1.86 1.996 2.885 4.722 2.885 7.678 0 3.042-1.146 5.826-3.606 8.763-2.201 2.627-5.364 5.294-9.027 8.381a430.466 430.466 0 00-4.143 3.524 2.15 2.15 0 01-1.406.522zM10.158 2.107c-2.206 0-4.233.871-5.708 2.453-1.496 1.606-2.321 3.825-2.321 6.25 0 2.558.961 4.846 3.117 7.419 2.083 2.487 5.182 5.098 8.77 8.123l.007.006a423.471 423.471 0 014.156 3.536 503.744 503.744 0 014.17-3.542c3.587-3.024 6.686-5.636 8.769-8.122 2.155-2.572 3.116-4.86 3.116-7.419 0-2.425-.824-4.644-2.321-6.25-1.474-1.582-3.501-2.453-5.708-2.453-1.616 0-3.1.508-4.411 1.51-1.168.894-1.981 2.023-2.458 2.813-.245.406-.677.649-1.155.649s-.91-.243-1.155-.649c-.477-.79-1.29-1.92-2.458-2.813-1.31-1.002-2.794-1.51-4.41-1.51z"/></symbol><symbol id="icon-logo" viewBox="0 0 101 32"><path fill="var(--color2, #3e6e00)" d="M28.211 10.852c.872-.589 1.585-.726 1.585-.726a23.025 23.025 0 01-.416 2.258c-.157.655-.32 1.213-.491 1.688-.17.475-.336.868-.494 1.195a6.15 6.15 0 01-.451.788c-.568.82-.89.758-.89.758.551.233 1.106.08 1.627-.429.258-.254.504-.594.735-1.018s.444-.934.634-1.531c.095-.298.189-.638.282-1.005.092-.363.181-.754.261-1.152.08-.402.172-.837.218-1.217s.085-.876.085-1.242c0-.77 0-.946-.085-1.343-.03-.137-.046-.144-.046-.144s.027-.081-.715.27c-.37.175-.791.35-1.262.676-.472.323-.922.58-1.449 1.081-.44.418-.659.715-.922 1.255a7.635 7.635 0 00-.395 1.584 83.99 83.99 0 00-.274 1.872 6.055 6.055 0 011.072-2.295 5.867 5.867 0 011.392-1.323z"/><path fill="var(--color2, #3e6e00)" d="M26.399 8.63a9.57 9.57 0 00-.217-1.075 16.783 16.783 0 00-.367-1.231 27.597 27.597 0 00-1.142-2.831 31.757 31.757 0 00-.683-1.381c-.232-.438-.707-1.205-.833-1.334-.212-.368-.392-.517-.392-.517l-.24-.258s-.029-.054-.222.388c-.14.32-.284.388-.41.775-.133.321-.247.431-.379.775-.157.409-.332.538-.505 1.034-.175.497-.584 1.247-.758 1.809-.173.561-.522.98-.667 1.564-.143.583-.266 1.166-.35 1.726s-.115 1.087-.106 1.575c.009.49.059.939.14 1.352.078.408.186.775.312 1.103.123.327.266.614.407.86.57.982 1.223 1.382 1.223 1.382a4.046 4.046 0 01-.343-1.424 7.528 7.528 0 01.072-1.623c.078-.558.202-1.12.35-1.663.148-.545.32-1.068.494-1.552a23.811 23.811 0 01.983-2.326c.269-.552.457-.87.457-.87a25.206 25.206 0 011.124 2.62c.137.387.251.75.348 1.091.096.342.174.662.236.958.122.596.19 1.111.219 1.555a6.68 6.68 0 01-.018 1.144c-.142 1.279-.591 1.685-.591 1.685.439-.32.804-.7 1.094-1.13s.509-.911.651-1.44c.142-.533.21-1.114.197-1.747a8.334 8.334 0 00-.082-.994z"/><path fill="var(--color3, #706f6f)" d="M5.478 5.349a40.261 40.261 0 00.432 2.452c.12.583.257 1.186.408 1.794a37.243 37.243 0 00.894 3.028 28.035 28.035 0 00.762 1.959c.14.318.281.618.417.89.297.586.596 1.092.887 1.503.288.408.605.763.943 1.061.305.269.634.497.976.678.308.16.633.289.962.381.291.08.591.134.898.161.429.037.876.022 1.309-.041a3.12 3.12 0 01-.658-.325 4.417 4.417 0 01-1.078-1.013 7.46 7.46 0 01-.834-1.386 12.776 12.776 0 01-.623-1.606 19.386 19.386 0 01-.438-1.632 23.099 23.099 0 01-.273-1.439c-.135-.835-.177-1.382-.179-1.405l-.019-.231.22.063c.601.167 1.172.339 1.7.513.509.167.993.341 1.442.518.424.162.827.335 1.198.508.351.164.679.331.972.496a9.313 9.313 0 011.392.936c.334.278.609.565.816.849.279.383.421.73.493 1.01l.061-.219c.082-.323.137-.645.16-.961a4.642 4.642 0 00-.019-.923 4.189 4.189 0 00-.2-.883 4.343 4.343 0 00-.387-.842 5.004 5.004 0 00-.589-.797 6.162 6.162 0 00-.803-.747c-.311-.242-.658-.472-1.035-.684s-.83-.439-1.349-.678a35.65 35.65 0 00-1.641-.695c-.29-.114-.585-.228-.882-.34-.3-.11-.6-.22-.9-.324a63.782 63.782 0 00-3.318-1.054 60.389 60.389 0 00-2.12-.575zm8.053 14.25a5.341 5.341 0 01-1.457-.191 5.462 5.462 0 01-1.023-.406 5.407 5.407 0 01-1.038-.72 6.42 6.42 0 01-.994-1.116 12.597 12.597 0 01-.911-1.544 20.379 20.379 0 01-.826-1.876 32.237 32.237 0 01-.709-2.048 41.147 41.147 0 01-.302-1.025 45.514 45.514 0 01-.943-4.236 34.216 34.216 0 01-.199-1.281l-.031-.235.226.056s.421.104 1.116.287a73.974 73.974 0 012.817.822A60.686 60.686 0 0111.924 7c.301.111.599.225.891.342.6.238 1.157.472 1.654.701.528.242.989.474 1.373.69.392.22.753.459 1.075.711.317.248.601.512.844.784s.453.557.628.85a4.705 4.705 0 01.63 1.853c.038.32.046.653.02.989a6.036 6.036 0 01-.171 1.017 7.453 7.453 0 01-.355 1.041l-.299-.117s.049-.162.023-.431c-.027-.264-.131-.682-.489-1.172a4.534 4.534 0 00-.761-.791 8.866 8.866 0 00-1.343-.903 13.524 13.524 0 00-.952-.485c-.366-.17-.761-.338-1.177-.502a27.594 27.594 0 00-1.427-.51 37.37 37.37 0 00-1.462-.449 22.545 22.545 0 00.423 2.564c.125.563.269 1.102.429 1.605.184.576.389 1.104.608 1.565.246.515.514.961.796 1.326.309.394.646.71.999.939.379.241.793.392 1.23.448l.03.315c-.009.002-.236.077-.61.139a6.176 6.176 0 01-.999.081z"/><path fill="var(--color2, #3e6e00)" d="M9.882 26.114c.367.005.704-.022 1.014-.067a5.464 5.464 0 001.552-.465c.834-.399 1.26-.862 1.26-.862a4.358 4.358 0 01-1.227.346 6.05 6.05 0 01-1.321.024c-.45-.04-.908-.12-1.362-.234a11.387 11.387 0 01-1.331-.422 14.917 14.917 0 01-1.215-.526 16.974 16.974 0 01-1.912-1.091 41.059 41.059 0 012.274-.705c.357-.101.701-.19 1.03-.269.33-.082.644-.154.944-.217a15.769 15.769 0 011.586-.253 8.89 8.89 0 011.178-.054c1.308.033 1.624.505 1.624.505a3.702 3.702 0 00-.968-1.232 4.442 4.442 0 00-1.497-.801 5.925 5.925 0 00-.931-.215 7.334 7.334 0 00-1.028-.081 9.377 9.377 0 00-1.108.058c-.38.04-.769.102-1.163.19-.394.086-.821.193-1.256.307-.438.117-.886.242-1.326.368l-1.277.374c-.409.121-.791.236-1.136.339-.69.207-1.267.384-1.663.507s-.625.198-.625.198a29.03 29.03 0 001.796 1.237c.365.23.772.477 1.212.726.438.247.907.493 1.39.726s.98.452 1.476.647c.496.196.989.366 1.464.508.475.139.933.249 1.359.321s.82.108 1.185.113zm6.833 1.688c.27-.482.195-.823.195-.823a2.419 2.419 0 01-.618.631 5.28 5.28 0 01-.91.532 8.868 8.868 0 01-1.089.424 12.78 12.78 0 01-1.154.308c-.385.081-.76.15-1.108.202a17.71 17.71 0 01-1.84.179c.221-.373.454-.712.7-1.024s.506-.589.769-.842a6.53 6.53 0 01.782-.648 6.7 6.7 0 01.732-.457c.927-.491 1.534-.448 1.534-.448a8.301 8.301 0 00-1.642-.079 7.68 7.68 0 00-1.576.242c-.5.135-.962.317-1.373.55-.41.231-.766.505-1.058.823a9.598 9.598 0 00-.833 1.066c-.256.373-.481.739-.66 1.042-.359.606-.579 1.048-.579 1.048s.303.005.798-.005a30.405 30.405 0 001.967-.106 22.651 22.651 0 002.493-.364c.422-.087.834-.187 1.224-.297.388-.108.754-.23 1.081-.359.654-.257 1.127-.534 1.471-.81.346-.274.561-.543.692-.786zm5.287-1.687c.171.286.028.713-.278 1.173-.304.461-.767.949-1.243 1.376s-.968.806-1.344 1.074c-.373.269-.628.432-.628.432-.426-.454-.639-.882-.711-1.278a1.58 1.58 0 01.164-1.035c.304-.586.867-.867.867-.867a12.2 12.2 0 00-1.444.741 5.287 5.287 0 00-1.004.759c-.506.505-.679 1.006-.494 1.475.093.233.253.486.435.727.183.243.385.474.567.664.361.381.665.643.665.643s.206-.129.54-.346c.332-.221.79-.535 1.292-.907a21.238 21.238 0 001.57-1.287c.513-.468.981-.952 1.311-1.387.66-.869.611-1.361.381-1.639S22 26.114 22 26.114z"/><path fill="var(--color4, #333)" d="M80.693 27.131a.789.789 0 00-.192 0c-.025.004-.047.009-.064.019s-.031.02-.041.034a.209.209 0 00-.024.06l-.538 2.591a.035.035 0 00-.002.028c.003.009.011.018.021.024s.024.011.043.013a.376.376 0 00.075.005.408.408 0 00.131-.018.104.104 0 00.033-.024.051.051 0 00.015-.028l.615-2.591c.007-.024.007-.04.007-.057a.06.06 0 00-.024-.035.106.106 0 00-.055-.02zm-.621 3.163a.189.189 0 00-.068-.027.484.484 0 00-.11-.008.652.652 0 00-.131.011.21.21 0 00-.085.047.185.185 0 00-.047.067.454.454 0 00-.032.087.493.493 0 00-.018.09.375.375 0 00-.007.074c0 .021.002.044.009.059.006.018.016.03.031.041s.035.019.064.024a.587.587 0 00.24-.006.197.197 0 00.088-.05.16.16 0 00.046-.061.47.47 0 00.032-.085c.01-.03.015-.06.022-.089a.455.455 0 00.007-.076.188.188 0 00-.007-.055.078.078 0 00-.031-.041zm-1.535-1.309a.465.465 0 01-.198.154c-.094.045-.218.08-.373.104a3.816 3.816 0 01-.587.038h-.327c.038-.107.087-.209.146-.307s.131-.185.217-.26a.999.999 0 01.672-.244c.163 0 .287.031.375.093.088.06.133.142.133.243a.316.316 0 01-.057.18zm.235-.594c-.068-.054-.156-.1-.264-.137s-.24-.053-.394-.053a1.5 1.5 0 00-.508.08 1.444 1.444 0 00-.394.213 1.413 1.413 0 00-.295.313 2.013 2.013 0 00-.356 1.116c0 .145.021.272.063.381.042.108.104.2.188.271a.793.793 0 00.314.162c.127.036.274.055.442.055a2.58 2.58 0 00.533-.056c.079-.017.146-.034.204-.054s.099-.042.122-.063a.177.177 0 00.037-.046.359.359 0 00.037-.108l.004-.041c0-.018-.003-.033-.011-.043a.037.037 0 00-.034-.018.375.375 0 00-.09.026c-.043.016-.101.032-.174.054a2.642 2.642 0 01-.254.053c-.098.017-.21.027-.335.027-.237 0-.408-.054-.514-.16-.104-.105-.159-.256-.159-.45 0-.056.003-.114.01-.178a1.56 1.56 0 01.031-.196h.336c.295 0 .546-.018.755-.054.207-.036.381-.087.512-.155a.73.73 0 00.295-.242.586.586 0 00.091-.32.499.499 0 00-.043-.194.524.524 0 00-.15-.185zm-2.402-.149h-.738l.131-.587c.001-.012 0-.02-.001-.029-.006-.009-.012-.016-.024-.022s-.029-.011-.05-.013c-.021-.005-.05-.005-.083-.005a.494.494 0 00-.142.018.086.086 0 00-.033.022.056.056 0 00-.016.029l-.132.587h-.398a.09.09 0 00-.055.017.161.161 0 00-.041.045c-.008.02-.017.04-.02.062s-.006.047-.006.071c0 .028.005.048.017.057.009.012.025.017.044.017h.399l-.32 1.443a.435.435 0 00-.016.08c-.006.027-.009.055-.017.083a.755.755 0 00-.008.079c-.004.025-.004.05-.004.07 0 .09.012.167.037.233a.403.403 0 00.113.164.49.49 0 00.193.094 1.087 1.087 0 00.513.001.712.712 0 00.1-.028.24.24 0 00.067-.035c.01-.011.022-.023.029-.039a.223.223 0 00.024-.049l.014-.057a.29.29 0 00.006-.056c0-.024-.004-.037-.014-.048-.008-.008-.021-.012-.036-.012s-.035.005-.057.012c-.024.012-.05.02-.081.03a.8.8 0 01-.257.043c-.106 0-.178-.025-.223-.072-.044-.047-.067-.119-.067-.22 0-.033.005-.075.011-.129.008-.051.014-.097.022-.138l.323-1.448h.74c.013 0 .028-.005.038-.008a.169.169 0 00.031-.021l.026-.034c.006-.011.014-.025.019-.038s.007-.027.008-.041a.189.189 0 00-.008-.098c-.01-.019-.028-.03-.056-.03zm-2.311.065a1.099 1.099 0 00-.332-.092 1.371 1.371 0 00-.204-.013c-.145 0-.279.017-.402.056a.969.969 0 00-.316.16.716.716 0 00-.282.559c0 .11.028.202.08.274s.12.131.202.183c.079.049.165.093.26.131.094.036.181.076.262.116s.148.087.201.138c.053.051.08.118.08.198a.452.452 0 01-.17.351.626.626 0 01-.221.109.999.999 0 01-.314.042 1.083 1.083 0 01-.512-.119 1.09 1.09 0 01-.13-.08c-.035-.025-.064-.037-.087-.037a.049.049 0 00-.029.009.144.144 0 00-.024.025l-.022.04c-.004.015-.011.028-.014.046-.006.014-.008.03-.013.046-.001.016-.004.032-.004.045 0 .02.004.037.012.05s.017.03.033.043c.027.022.062.046.11.071s.104.047.169.066a1.592 1.592 0 00.472.07 1.6 1.6 0 00.457-.061c.136-.042.252-.1.351-.176a.72.72 0 00.302-.595c0-.109-.026-.2-.08-.272a.735.735 0 00-.2-.184 1.52 1.52 0 00-.261-.132 3.865 3.865 0 01-.262-.115.865.865 0 01-.202-.139.264.264 0 01-.078-.193.43.43 0 01.152-.32.538.538 0 01.188-.104 1.006 1.006 0 01.493-.013c.065.019.123.038.17.061.046.022.083.043.115.059a.147.147 0 00.08.027c.013 0 .027-.005.04-.02s.022-.031.034-.052a.345.345 0 00.022-.064.246.246 0 00.006-.057c0-.033-.01-.06-.032-.077a.484.484 0 00-.099-.059zm-2.799 1.05a1.832 1.832 0 01-.179.471c-.079.141-.17.264-.274.368s-.217.184-.335.242a.843.843 0 01-.358.086.436.436 0 01-.239-.057.406.406 0 01-.143-.136.501.501 0 01-.07-.188 1.107 1.107 0 01-.019-.204 2.229 2.229 0 01.098-.595c.035-.109.077-.214.129-.32s.115-.197.187-.279c.073-.083.157-.149.253-.2s.202-.076.319-.076c.148 0 .281.035.402.103.117.067.231.17.337.305l-.109.478zm.562-1.112c-.011-.004-.027-.009-.046-.012s-.045-.004-.074-.004c-.057 0-.099.006-.129.016s-.047.028-.053.053l-.061.261a1.195 1.195 0 00-.335-.263 1.038 1.038 0 00-.463-.094c-.174 0-.329.03-.468.09-.136.06-.255.14-.359.241-.103.1-.192.213-.26.338-.072.126-.13.253-.176.381a2.55 2.55 0 00-.096.38 2.15 2.15 0 00-.029.323c0 .1.01.2.031.3s.062.19.12.271c.06.079.14.145.243.193s.234.075.394.075c.115 0 .232-.02.346-.06a1.467 1.467 0 00.551-.338.631.631 0 00.139-.193l-.109.493c-.005.012-.005.024 0 .032s.012.017.024.023a.217.217 0 00.045.01c.02.004.042.004.072.004a.474.474 0 00.131-.014.078.078 0 00.047-.055l.534-2.397a.06.06 0 00-.003-.03c-.002-.007-.008-.015-.019-.023zm-2.761-.003h-.737l.13-.587a.048.048 0 000-.029c-.004-.009-.011-.016-.025-.022a.132.132 0 00-.049-.013c-.021-.005-.049-.005-.082-.005a.534.534 0 00-.144.018c-.017.006-.026.013-.034.022s-.012.017-.014.029l-.134.587h-.398a.098.098 0 00-.056.017.155.155 0 00-.039.045.329.329 0 00-.028.133c0 .028.007.048.018.057.01.012.025.017.045.017h.399l-.323 1.443c-.006.024-.01.05-.016.08a2.05 2.05 0 00-.024.162c-.004.025-.004.05-.004.07 0 .09.013.167.038.233a.405.405 0 00.304.258 1.118 1.118 0 00.615-.027.212.212 0 00.065-.035.152.152 0 00.031-.039.278.278 0 00.037-.106c.003-.02.007-.039.007-.056 0-.024-.006-.037-.015-.048-.009-.008-.02-.012-.038-.012a.204.204 0 00-.055.012c-.024.012-.05.02-.083.03s-.069.021-.111.03a.789.789 0 01-.145.013c-.105 0-.179-.025-.223-.072-.046-.047-.069-.119-.069-.22 0-.033.006-.075.011-.129l.024-.138.324-1.448h.739c.014 0 .025-.005.036-.008a.099.099 0 00.032-.021l.026-.034c.008-.011.014-.025.02-.038.003-.013.007-.027.009-.041a.189.189 0 00.003-.041.136.136 0 00-.012-.057c-.01-.019-.029-.03-.057-.03zm-2.793-1.117a.257.257 0 00-.065-.032 2.237 2.237 0 00-.106-.028c-.04-.008-.082-.012-.128-.018a1.118 1.118 0 00-.46.043.76.76 0 00-.274.152c-.081.068-.149.154-.207.258s-.103.23-.132.373l-.084.37h-.399a.084.084 0 00-.039.01.149.149 0 00-.032.024c-.009.011-.017.02-.024.037l-.013.04-.01.046c0 .016-.003.03-.003.045 0 .025.006.044.017.052.007.012.024.017.043.017h.402l-.506 2.262a2.003 2.003 0 01-.087.301.687.687 0 01-.118.208.404.404 0 01-.173.122.629.629 0 01-.239.04.878.878 0 01-.139-.013l-.043-.008a.25.25 0 00-.04-.003.061.061 0 00-.031.009c-.007.008-.014.016-.02.029s-.013.027-.018.041a.102.102 0 00-.01.04c-.005.014-.007.027-.01.037s-.004.02-.004.025c0 .013.001.026.007.035.002.01.007.02.014.028a.321.321 0 00.09.031 1.17 1.17 0 00.537-.031.813.813 0 00.273-.152.93.93 0 00.204-.268c.056-.106.102-.236.135-.384l.525-2.352h.658c.01 0 .019-.004.031-.008s.021-.011.029-.019c.01-.008.017-.017.026-.028a.249.249 0 00.038-.14c0-.027-.007-.046-.018-.058a.067.067 0 00-.046-.017h-.656l.052-.258a2.26 2.26 0 01.088-.301c.032-.084.072-.154.121-.21s.106-.097.174-.123a.717.717 0 01.246-.039c.052 0 .096.004.138.012l.107.024c.03.009.055.018.076.026.023.008.04.011.055.011.01 0 .017-.003.026-.011a.082.082 0 00.025-.03.157.157 0 00.014-.038l.008-.042c.002-.013.005-.024.005-.034v-.022c0-.014 0-.03-.007-.045a.082.082 0 00-.025-.038zm-2.99 2.309a1.82 1.82 0 01-.09.325 1.383 1.383 0 01-.371.537.952.952 0 01-.285.161.975.975 0 01-.353.061.93.93 0 01-.316-.045.543.543 0 01-.21-.123.504.504 0 01-.118-.197.911.911 0 01-.033-.263 1.767 1.767 0 01.12-.659c.04-.105.09-.204.152-.294a1.11 1.11 0 01.217-.24.987.987 0 01.638-.22c.123 0 .229.014.316.044s.157.069.212.125a.457.457 0 01.115.197.871.871 0 01.036.261c0 .112-.01.221-.029.331zm.359.056a2 2 0 00.042-.403c0-.137-.019-.262-.057-.37s-.1-.203-.182-.278a.806.806 0 00-.319-.177 1.552 1.552 0 00-.468-.06 1.404 1.404 0 00-1.146.553c-.086.11-.156.229-.211.354a1.976 1.976 0 00-.168.795c0 .136.018.261.056.373a.702.702 0 00.184.279c.082.076.188.135.317.176s.285.061.468.061a1.429 1.429 0 001.147-.556c.084-.112.156-.229.213-.354.054-.128.096-.259.124-.393zm-4.74-.505a.471.471 0 01-.198.154c-.094.045-.217.08-.373.104a3.774 3.774 0 01-.586.038h-.327c.037-.107.085-.209.146-.307a1.02 1.02 0 01.51-.437c.112-.045.238-.067.378-.067.163 0 .287.031.377.093.087.06.131.142.131.243a.316.316 0 01-.057.18zm.237-.594a.927.927 0 00-.263-.137 1.299 1.299 0 00-.399-.053 1.415 1.415 0 00-.897.293 1.368 1.368 0 00-.295.313 1.655 1.655 0 00-.204.367 2.006 2.006 0 00-.151.749c0 .145.02.272.062.381.041.108.102.2.187.271.085.074.189.126.314.162s.274.055.441.055a2.614 2.614 0 00.738-.11.393.393 0 00.123-.063.117.117 0 00.035-.046.359.359 0 00.037-.108l.004-.041a.085.085 0 00-.01-.043.037.037 0 00-.033-.018.38.38 0 00-.092.026c-.043.016-.101.032-.172.054a2.763 2.763 0 01-.256.053 1.96 1.96 0 01-.333.027c-.236 0-.41-.054-.515-.16-.107-.105-.157-.256-.157-.45 0-.056.003-.114.008-.178s.015-.129.029-.196h.338c.295 0 .545-.018.753-.054.209-.036.382-.087.512-.155a.716.716 0 00.295-.242.563.563 0 00.093-.32.511.511 0 00-.192-.379zm-2.754-.084a.827.827 0 00-.151-.054 1.35 1.35 0 00-.388-.051c-.144 0-.28.017-.403.056a.99.99 0 00-.316.16.716.716 0 00-.281.559c0 .11.028.202.079.274a.786.786 0 00.201.183c.08.049.168.093.262.131.093.036.181.076.262.116s.146.087.199.138c.053.051.08.118.08.198a.437.437 0 01-.17.351.615.615 0 01-.219.109 1.032 1.032 0 01-.317.042 1.077 1.077 0 01-.642-.199.154.154 0 00-.086-.037c-.011 0-.02.002-.028.009s-.017.015-.025.025a.769.769 0 00-.021.04c-.005.015-.011.028-.015.046-.006.014-.011.03-.013.046s-.002.032-.002.045c0 .02.002.037.011.05.007.014.017.03.033.043a.749.749 0 00.279.137 1.561 1.561 0 00.471.07c.166 0 .319-.02.454-.061.137-.042.255-.1.353-.176a.735.735 0 00.302-.595c0-.109-.027-.2-.081-.272s-.122-.134-.2-.184a1.567 1.567 0 00-.262-.132 3.832 3.832 0 01-.261-.115c-.082-.041-.148-.087-.202-.139s-.078-.116-.078-.193c0-.06.011-.116.038-.173.026-.055.064-.105.114-.147s.114-.079.188-.104c.074-.024.161-.037.256-.037s.174.008.238.024a1.073 1.073 0 01.283.12.155.155 0 00.081.027.052.052 0 00.04-.02.24.24 0 00.055-.116.21.21 0 00.008-.057c0-.033-.01-.06-.032-.077a.49.49 0 00-.097-.059zm-1.963.147a.35.35 0 00.013-.056c.003-.017.007-.034.007-.047a.232.232 0 00.003-.029c0-.024-.006-.039-.017-.047a.193.193 0 00-.052-.03.568.568 0 00-.084-.022.76.76 0 00-.209-.022.66.66 0 00-.244.046 1.248 1.248 0 00-.598.517l.102-.467a.06.06 0 00-.002-.03c-.002-.007-.008-.015-.02-.023-.01-.004-.027-.009-.046-.012s-.046-.004-.074-.004a.81.81 0 00-.075.004c-.024.002-.04.008-.055.012a.18.18 0 00-.034.023c-.007.009-.013.018-.013.03l-.532 2.397a.044.044 0 000 .028c.003.011.011.018.024.023a.38.38 0 00.135.018.434.434 0 00.143-.018.06.06 0 00.032-.023.066.066 0 00.016-.028l.233-1.061a1.833 1.833 0 01.43-.818c.094-.102.187-.179.281-.235s.175-.086.245-.086a.512.512 0 01.191.035l.067.024a.13.13 0 00.048.012c.012 0 .024-.006.035-.017a.193.193 0 00.026-.041.207.207 0 00.024-.052zm-2.737.531a.488.488 0 01-.197.154c-.095.045-.218.08-.375.104a3.78 3.78 0 01-.587.038h-.328c.037-.107.086-.209.146-.307s.133-.185.216-.26a1.004 1.004 0 01.674-.244c.161 0 .287.031.374.093.09.06.134.142.134.243 0 .062-.02.122-.058.18zm.235-.594a.864.864 0 00-.263-.137 1.274 1.274 0 00-.396-.053 1.5 1.5 0 00-.506.08 1.444 1.444 0 00-.394.213 1.413 1.413 0 00-.295.313 1.88 1.88 0 00-.317.753 1.903 1.903 0 00-.037.363c0 .145.021.272.062.381.042.108.103.2.185.271.085.074.19.126.316.162s.272.055.441.055a2.587 2.587 0 00.738-.11.367.367 0 00.121-.063.128.128 0 00.035-.046c.011-.019.02-.037.025-.055s.01-.036.013-.053a.233.233 0 00.004-.041.085.085 0 00-.01-.043c-.007-.011-.018-.018-.035-.018-.015 0-.046.009-.089.026s-.103.032-.174.054a2.669 2.669 0 01-.255.053c-.099.017-.21.027-.335.027-.238 0-.409-.054-.513-.16-.105-.105-.159-.256-.159-.45 0-.056.002-.114.01-.178.004-.064.014-.129.027-.196h.341c.294 0 .543-.018.753-.054.207-.036.379-.087.513-.155a.733.733 0 00.294-.242.58.58 0 00.093-.32.488.488 0 00-.195-.379zm-2.447-.149a.866.866 0 00-.287.004.084.084 0 00-.036.021c-.006.009-.014.019-.016.031-.088.228-.171.434-.253.617a6.135 6.135 0 01-.548.999 9.74 9.74 0 01-.346.478l-.011.014v-.014l-.371-2.093a.096.096 0 00-.012-.031c-.003-.009-.013-.017-.025-.021s-.032-.009-.053-.012a1.02 1.02 0 00-.168 0 .147.147 0 00-.051.008.052.052 0 00-.029.02.05.05 0 00-.015.037l.001.03.007.034.439 2.333c.001.012.006.024.013.032s.015.017.031.023a.558.558 0 00.141.014c.027 0 .053 0 .072-.003.021-.003.039-.004.055-.011a.154.154 0 00.08-.055c.166-.18.317-.366.452-.558a7.17 7.17 0 00.376-.587 8.337 8.337 0 00.563-1.189c.006-.012.01-.027.014-.04a.1.1 0 00.008-.045c0-.008 0-.013-.008-.02-.004-.007-.012-.012-.024-.016zm-2.853.003a.257.257 0 00-.051-.012.825.825 0 00-.17 0c-.024.002-.042.008-.058.012a.115.115 0 00-.032.023.076.076 0 00-.014.03l-.53 2.397c-.005.011-.005.02 0 .028.003.011.01.018.022.023a.416.416 0 00.136.018.434.434 0 00.086-.006c.025-.003.042-.008.058-.012a.056.056 0 00.032-.023.055.055 0 00.015-.028l.529-2.397a.076.076 0 000-.03.066.066 0 00-.022-.023zm-1.58.149a.57.57 0 00-.209-.141.86.86 0 00-.322-.051 1.11 1.11 0 00-.356.056 1.49 1.49 0 00-.311.148 1.218 1.218 0 00-.241.192.71.71 0 00-.136.19l.107-.49a.06.06 0 00-.001-.03.057.057 0 00-.02-.023.288.288 0 00-.12-.016.776.776 0 00-.076.004c-.022.002-.041.008-.054.012a.178.178 0 00-.031.023.074.074 0 00-.013.03l-.538 2.397c-.004.011-.004.02 0 .028a.038.038 0 00.025.023.416.416 0 00.136.018.423.423 0 00.142-.018.056.056 0 00.032-.023.097.097 0 00.016-.028l.234-1.061a1.691 1.691 0 01.453-.839c.104-.105.215-.185.337-.243a.793.793 0 01.356-.086c.137 0 .236.037.294.11a.462.462 0 01.088.298 1.346 1.346 0 01-.038.318l-.335 1.503a.03.03 0 00.003.028.047.047 0 00.023.023.387.387 0 00.133.018.421.421 0 00.141-.018c.016-.005.027-.012.034-.023a.078.078 0 00.016-.028l.335-1.503c.013-.062.022-.123.032-.183.006-.059.011-.119.011-.181 0-.08-.01-.16-.034-.234a.504.504 0 00-.113-.2zm-2.795-.149c-.012-.004-.028-.009-.05-.012s-.051-.004-.085-.004c-.035 0-.063.002-.087.004-.023.002-.043.008-.057.012a.152.152 0 00-.034.023.05.05 0 00-.014.03l-.241 1.071a1.768 1.768 0 01-.451.833 1.3 1.3 0 01-.336.24.832.832 0 01-.358.086c-.071 0-.13-.009-.179-.029s-.087-.046-.117-.083a.284.284 0 01-.065-.128.62.62 0 01-.021-.16 1.901 1.901 0 01.039-.323l.335-1.509c.003-.012 0-.02-.003-.03-.004-.007-.013-.015-.022-.023-.014-.004-.03-.009-.051-.012s-.049-.004-.08-.004c-.036 0-.064.002-.089.004-.023.002-.041.008-.056.012a.22.22 0 00-.034.023.056.056 0 00-.014.03l-.334 1.509a1.568 1.568 0 00-.044.356.81.81 0 00.036.253.474.474 0 00.115.199.577.577 0 00.217.131c.089.031.199.047.332.047.114 0 .226-.02.338-.058a1.32 1.32 0 00.308-.144c.092-.057.172-.121.238-.188a.623.623 0 00.14-.191l-.103.483c-.006.011-.006.02 0 .028.003.011.011.018.022.023a.306.306 0 00.12.018.388.388 0 00.129-.018.057.057 0 00.031-.023.062.062 0 00.014-.028l.536-2.397a.076.076 0 000-.03.083.083 0 00-.023-.023zm-4.117 0a.523.523 0 00-.083-.022.987.987 0 00-.208-.022.65.65 0 00-.243.046c-.083.032-.16.073-.234.126a1.284 1.284 0 00-.363.391l.104-.467c0-.012 0-.02-.002-.03a.07.07 0 00-.023-.023.163.163 0 00-.044-.012.678.678 0 00-.15 0c-.022.002-.039.008-.055.012a.157.157 0 00-.032.023.05.05 0 00-.015.03l-.531 2.397c-.004.011-.004.02 0 .028.003.011.012.018.025.023a.401.401 0 00.133.018.439.439 0 00.143-.018c.016-.005.028-.012.034-.023.006-.009.013-.017.017-.028l.232-1.061c.038-.165.095-.319.172-.457.079-.141.163-.262.258-.361.092-.102.186-.179.28-.235s.175-.086.243-.086a.502.502 0 01.192.035c.025.008.047.017.065.024.02.007.036.012.049.012s.027-.006.036-.017.018-.024.028-.041c.008-.016.016-.032.021-.052a.219.219 0 00.014-.056.286.286 0 01.008-.047l.002-.029c0-.024-.007-.039-.018-.047a.179.179 0 00-.054-.03zm-2.357 0c-.013-.004-.029-.009-.051-.012a.932.932 0 00-.171 0c-.023.002-.043.008-.058.012a.22.22 0 00-.034.023.066.066 0 00-.015.03l-.239 1.071a1.733 1.733 0 01-.452.833 1.241 1.241 0 01-.337.24.823.823 0 01-.356.086c-.071 0-.131-.009-.179-.029s-.086-.046-.118-.083a.304.304 0 01-.064-.128c-.014-.049-.02-.102-.02-.16s.005-.112.012-.166c.006-.054.015-.106.026-.157l.334-1.509c.002-.012 0-.02-.002-.03a.081.081 0 00-.025-.023.244.244 0 00-.05-.012.86.86 0 00-.169 0c-.023.002-.042.008-.057.012a.133.133 0 00-.032.023.052.052 0 00-.016.03l-.332 1.509a1.72 1.72 0 00-.046.356c0 .092.012.177.036.253s.062.142.116.199a.562.562 0 00.217.131c.089.031.199.047.331.047.115 0 .227-.02.34-.058.112-.037.215-.084.307-.144a1.22 1.22 0 00.238-.188.623.623 0 00.14-.191l-.103.483c-.005.011-.005.02 0 .028.004.011.01.018.023.023a.297.297 0 00.119.018c.03 0 .056-.001.077-.006.021-.003.038-.008.053-.012a.052.052 0 00.029-.023c.007-.009.013-.017.014-.028l.537-2.397a.05.05 0 00-.002-.03c-.002-.007-.008-.015-.02-.023zm-3.481 1.189a1.91 1.91 0 01-.091.325c-.041.105-.091.204-.153.295s-.134.172-.218.242a.98.98 0 01-.635.222.92.92 0 01-.317-.045.53.53 0 01-.212-.123.49.49 0 01-.117-.197.945.945 0 01-.035-.263 1.83 1.83 0 01.121-.659 1.39 1.39 0 01.153-.294 1.14 1.14 0 01.218-.24.983.983 0 01.637-.22c.124 0 .229.014.315.044s.158.069.211.125a.451.451 0 01.117.197.906.906 0 01.035.261c0 .112-.011.221-.029.331zm.161-.996a.807.807 0 00-.316-.177 1.565 1.565 0 00-.468-.06 1.41 1.41 0 00-1.147.553 1.748 1.748 0 00-.337.746c-.028.135-.04.269-.04.403 0 .136.019.261.056.373a.696.696 0 00.181.279c.084.076.189.135.317.176s.285.061.469.061c.17 0 .328-.024.467-.073a1.394 1.394 0 00.681-.483 1.79 1.79 0 00.334-.747c.028-.136.041-.271.041-.403 0-.137-.019-.262-.057-.37a.674.674 0 00-.182-.278zm-2.553-.196a.458.458 0 00-.133-.012 1.16 1.16 0 00-.093.004c-.023.002-.044.007-.06.012s-.029.012-.037.021a.09.09 0 00-.019.031c-.068.185-.142.365-.218.544a8.32 8.32 0 01-.252.532 5.935 5.935 0 01-.667 1.031h-.006l-.383-2.106c-.001-.012-.007-.02-.013-.031a.05.05 0 00-.028-.022.201.201 0 00-.051-.012.7.7 0 00-.172 0 .19.19 0 00-.053.012.039.039 0 00-.026.022.073.073 0 00-.01.037c0 .009.001.021.005.034l.008.054.443 2.359-.749.848c-.019.022-.03.04-.032.054 0 .016.006.028.02.038a.137.137 0 00.059.018.584.584 0 00.179 0 .307.307 0 00.064-.014.126.126 0 00.045-.021.105.105 0 00.032-.027l.79-.944a7.35 7.35 0 001.152-1.835l.213-.501a.134.134 0 00.014-.04.22.22 0 00.005-.049c0-.013-.008-.025-.029-.035zm70.409-3.996c-.037.154-.092.255-.162.306-.071.051-.194.079-.364.079h-4.234V22.13h2.673c.167 0 .288.025.358.077.072.051.128.155.168.31h.165v-1.429h-.165c-.04.155-.095.256-.164.308-.072.053-.19.079-.362.079h-2.673v-2.279h4.196c.172 0 .292.027.362.079.068.051.125.155.165.31h.164v-1.429h-.164c-.04.154-.097.253-.165.306-.07.054-.189.08-.362.08h-5.463v.162c.155.041.259.096.311.162.053.071.079.189.079.356v5.386c0 .165-.024.282-.076.353-.051.071-.156.126-.314.165v.162h5.507c.17 0 .292.027.361.079.068.053.122.155.159.309h.171v-1.428h-.171zM92.2 23.218c.069.135.104.239.104.305 0 .093-.128.24-.386.439-.657.513-1.429.77-2.318.77-.789 0-1.464-.219-2.032-.657-.72-.55-1.083-1.287-1.083-2.212 0-.85.327-1.539.98-2.066.583-.468 1.307-.705 2.173-.705.884 0 1.656.209 2.313.627.162.105.243.199.243.283 0 .055-.014.138-.041.24l.139.091.765-1.295-.147-.078c-.104.136-.2.204-.287.204-.04 0-.1-.018-.178-.059a5.905 5.905 0 00-2.807-.711c-1.106 0-2.024.278-2.754.838-.878.674-1.315 1.563-1.315 2.669 0 .581.134 1.125.403 1.631.212.398.496.741.85 1.032.707.578 1.603.865 2.692.865.624 0 1.19-.086 1.692-.26.505-.172 1.007-.452 1.511-.84.063-.052.112-.079.145-.079.062 0 .163.063.306.188l.129-.109-.955-1.205-.141.092zm-9.466-4.517c.154.041.258.096.312.162.052.071.08.189.08.356v5.386c0 .165-.028.282-.08.353-.054.071-.157.126-.312.165v.162h1.658v-.162c-.155-.039-.26-.095-.312-.165-.053-.07-.081-.187-.081-.353v-5.386c0-.167.027-.285.081-.356.052-.066.157-.12.312-.162v-.162h-1.658v.162zM80.6 21.353c-.147.097-.325.161-.534.195s-.53.051-.967.051h-2.41v-2.405h2.41c.441 0 .764.018.971.053.205.035.383.1.53.196.284.189.428.506.428.95 0 .455-.144.775-.428.96zm.463-2.494a2.018 2.018 0 00-.7-.254c-.258-.043-.642-.066-1.147-.066h-3.792v.181a.684.684 0 01.303.141c.058.059.088.146.088.263v5.536a.412.412 0 01-.084.278c-.058.064-.162.115-.306.155v.193h1.638v-.193c-.137-.04-.236-.091-.29-.155a.414.414 0 01-.084-.278v-2.403h2.527c.501 0 .88-.024 1.138-.067.256-.043.493-.129.704-.261.256-.146.456-.356.596-.624.141-.27.211-.571.211-.904s-.071-.639-.213-.915a1.52 1.52 0 00-.59-.628zm-7.544 3.03a2.58 2.58 0 00-.81-.272c-.316-.055-.783-.094-1.399-.114a37.114 37.114 0 01-1.444-.072 2.753 2.753 0 01-.622-.125.902.902 0 01-.458-.33.835.835 0 01-.173-.52c0-.431.224-.766.68-1.005.452-.239 1.002-.357 1.651-.357.808 0 1.493.148 2.055.445.264.139.398.255.398.35 0 .044-.01.125-.031.242l.146.072.673-1.312-.152-.074c-.09.149-.168.223-.234.223-.018 0-.095-.025-.225-.078-.865-.377-1.724-.566-2.584-.566-.936 0-1.71.189-2.317.566-.596.37-.895.879-.895 1.525 0 .367.102.683.3.951.201.262.463.451.79.567.257.092.529.157.82.194.289.039.77.074 1.443.101.572.021.96.041 1.166.066.207.025.394.067.561.12a.896.896 0 01.433.327.853.853 0 01.166.517c0 .209-.065.408-.197.6a1.365 1.365 0 01-.524.454c-.456.234-1.031.35-1.721.35a4.663 4.663 0 01-2.182-.548c-.418-.218-.625-.383-.625-.493 0-.041.008-.093.029-.158.006-.016.012-.049.026-.096l-.147-.086-.777 1.284.14.091c.124-.142.216-.212.277-.212.031 0 .081.02.146.061.477.265.995.473 1.552.627a6.036 6.036 0 001.592.227c1.03 0 1.853-.217 2.472-.655.518-.371.778-.865.778-1.489 0-.297-.07-.572-.208-.822s-.328-.444-.569-.575zm-8.72 1.939c-.609.602-1.415.904-2.418.904s-1.809-.302-2.418-.904c-.529-.522-.795-1.161-.795-1.916s.266-1.394.795-1.916c.609-.603 1.409-.904 2.404-.904 1.009.009 1.818.311 2.432.904.528.511.794 1.16.794 1.952 0 .731-.266 1.357-.794 1.88zm.52-4.494c-.747-.627-1.729-.94-2.951-.94-.691.008-1.293.106-1.804.295-.743.273-1.318.707-1.731 1.307a3.32 3.32 0 00-.581 1.916c0 1.053.399 1.911 1.193 2.58.747.624 1.727.938 2.938.938 1.623 0 2.803-.535 3.542-1.602a3.216 3.216 0 00.587-1.867c0-1.088-.397-1.964-1.192-2.627zm-13.515-.14h2.704c.665 0 1.138.099 1.415.295.3.213.453.53.453.952 0 .438-.162.745-.484.921a1.477 1.477 0 01-.535.167 7.49 7.49 0 01-.945.045h-2.608v-2.381zm.079 5.764c-.052-.07-.079-.187-.079-.353v-2.373h2.491l1.578 2.453c.092.145.14.24.14.288 0 .069-.081.12-.238.151v.162h1.695v-.162a1.003 1.003 0 01-.313-.077.58.58 0 01-.182-.187l-1.718-2.688c.641-.061 1.125-.24 1.457-.539.329-.301.497-.708.497-1.226 0-.635-.239-1.117-.711-1.446a2.129 2.129 0 00-.762-.327c-.292-.064-.665-.095-1.128-.095h-4.071v.162c.157.041.26.096.314.162.053.071.079.189.079.356v5.386c0 .165-.025.282-.076.353s-.155.126-.317.165v.162h1.66v-.162c-.156-.039-.258-.095-.313-.165zm-2.625-6.462c-.068.053-.189.079-.36.079h-5.341c-.17 0-.292-.026-.362-.079-.069-.051-.124-.154-.164-.308h-.166v1.429h.166c.04-.155.095-.258.164-.308.07-.053.192-.077.362-.077h2.234v5.373c0 .165-.027.282-.08.353-.054.071-.157.126-.314.165v.162h1.66v-.162c-.16-.039-.266-.095-.317-.165s-.075-.187-.075-.353v-5.373h2.232c.167 0 .287.025.358.077.071.05.128.152.168.308h.165v-1.429h-.165c-.04.154-.095.256-.166.308zm-13.452 6.462c-.049-.07-.074-.187-.074-.353v-5.012l4.416 4.834c.197.214.294.366.294.451 0 .112-.105.193-.319.246v.162h1.793v-.162c-.16-.039-.266-.095-.316-.165s-.076-.187-.076-.353V19.22c0-.167.027-.285.08-.356.054-.066.158-.12.312-.162v-.162h-1.511v.162c.155.041.259.096.312.162.053.071.079.189.079.356v4.688l-4.044-4.457c-.156-.17-.232-.315-.232-.436 0-.14.106-.245.319-.313v-.162H34.61v.162c.156.041.26.096.313.162.052.071.079.189.079.356v5.386c0 .165-.026.282-.077.353s-.157.126-.315.165v.162h1.511v-.162c-.159-.039-.263-.095-.316-.165zm-2.359-.712h-.171c-.037.154-.091.255-.161.306-.073.051-.194.079-.365.079h-4.233V22.13h2.674c.166 0 .286.025.357.077s.128.155.169.31h.166v-1.429h-.166c-.041.155-.096.256-.166.308-.068.053-.189.079-.36.079h-2.674v-2.279h4.198c.171 0 .29.027.36.079.069.051.124.155.165.31h.166v-1.429h-.166c-.041.154-.096.253-.165.306-.07.054-.189.08-.36.08h-5.464v.162c.154.041.26.096.311.162.054.071.079.189.079.356v5.386c0 .165-.024.282-.077.353-.05.071-.155.126-.314.165v.162h5.506c.17 0 .291.027.362.079.069.053.121.155.158.309h.171v-1.428zm-8.526-1.385c.07.129.104.223.104.278 0 .112-.179.304-.537.574-.795.595-1.714.893-2.753.893-1.065 0-1.96-.323-2.687-.968-.751-.663-1.125-1.497-1.125-2.499 0-1.007.362-1.828 1.082-2.461.71-.623 1.637-.933 2.778-.933.849 0 1.631.174 2.35.517.522.248.783.456.783.621a.997.997 0 01-.056.282l.166.097.905-1.488-.163-.091c-.14.152-.237.23-.29.23a.424.424 0 01-.151-.061c-1.119-.623-2.276-.933-3.47-.933-1.807 0-3.163.565-4.069 1.698-.58.723-.868 1.577-.868 2.565 0 1.255.462 2.285 1.388 3.092.881.77 2.024 1.156 3.432 1.156.73 0 1.399-.103 2.006-.307.293-.097.564-.214.812-.353.247-.14.558-.347.932-.624.11-.087.188-.127.233-.127.073 0 .167.05.281.149l.152-.119-1.089-1.302-.148.113zm21.883 4.426a.476.476 0 00-.111-.011.507.507 0 00-.113.011.158.158 0 00-.079.038.19.19 0 00-.053.067.467.467 0 00-.045.205.106.106 0 00.021.064.121.121 0 00.062.037.633.633 0 00.226 0 .21.21 0 00.078-.037.162.162 0 00.052-.064.482.482 0 00.032-.103.521.521 0 00.015-.102.106.106 0 00-.024-.067.093.093 0 00-.061-.038z"/></symbol><symbol id="icon-search" viewBox="0 0 32 32"><path fill="none" stroke="var(--color5, #9c9c9c)" stroke-linejoin="round" stroke-linecap="round" stroke-width="2.667" d="M13.778 24.889c6.136 0 11.111-4.975 11.111-11.111S19.914 2.667 13.778 2.667c-6.136 0-11.111 4.975-11.111 11.111s4.975 11.111 11.111 11.111zm15.556 4.445L21.63 21.63"/></symbol><symbol id="icon-user" viewBox="0 0 30 32"><path fill="none" stroke="var(--color1, #585858)" stroke-linejoin="round" stroke-linecap="round" stroke-width="1.684" d="M28.632 30.316v-3.368a6.737 6.737 0 00-6.737-6.737H8.421a6.737 6.737 0 00-6.737 6.737v3.368m13.474-15.158a6.737 6.737 0 100-13.474 6.737 6.737 0 100 13.474z"/></symbol><symbol id="icon-Vector-1" viewBox="0 0 80 32"><path fill="var(--color6, #c4c4c4)" d="M80 0H0l40 32L80 0z"/></symbol><symbol id="icon-menu" viewBox="0 0 47 32"><path d="M0 0h46.933v2.133H0V0zm0 14.933h46.933v2.133H0v-2.133zm0 14.934h46.933V32H0v-2.133z"/></symbol><symbol id="icon-box" viewBox="0 0 32 32"><path fill="var(--color1, #3e6e00)" stroke="var(--color2, #4a7710)" stroke-miterlimit="10" stroke-width=".327" d="M31.475 6.789a.587.587 0 00-.709-.109l-6.308 3.642-8.742-4.948-.012-.006-2.449-4.73a.572.572 0 00-.787-.239L.626 6.936a.581.581 0 00-.225.792L3.2 12.665c.005.01.01.02.017.03v11.053h-.111l.041.234c.022.126.092.43.268.536l11.727 7.152c.083.05.18.103.297.103a.572.572 0 00.295-.071l11.965-7.186c.12-.071.192-.234.233-.369h.18V12.729l3.484-5.222c.158-.236.053-.531-.12-.718zM14.583 5.703L3.989 11.786 1.687 7.668l10.818-5.973 2.078 4.008zm12.377 7.921v10.143l-10.911 6.432V20.057l10.911-6.434zm-8.096-.069a.546.546 0 00-.198.196l-1.852 2.99-.766-.511V6.867l7.266 4.123-4.451 2.565zm-1.399 4.296l2.088-3.364 9.608-5.546-2.229 3.281-9.467 5.629zm-1.28-.126l-.741 1.193-1.35-.803 1.357-.872.733.482zm-1.286 2.329v10.133L4.365 23.772V13.637l10.534 6.417zM4.883 12.62l10.016-5.747v9.374l-1.896 1.207-8.12-4.834z"/></symbol><symbol id="icon-car" viewBox="0 0 59 32"><path fill="var(--color1, #3e6e00)" d="M58.666 14.845c0-3.068-.866-5.64-2.503-7.435-1.526-1.668-3.699-2.587-6.121-2.587h-6.567V1.032c0-.568-.459-1.031-1.022-1.031H13.264c-.563 0-1.021.463-1.021 1.031v5.587H6.115c-.563 0-1.022.462-1.022 1.031s.459 1.031 1.021 1.031h7.114c.599 0 1.069-.453 1.069-1.031V2.063h27.147V26.09H27.238c-.033 0-.078 0-.092.003l-.36.075-.139-.344c-.692-1.722-2.319-2.835-4.147-2.835-1.84 0-3.467 1.12-4.148 2.854l-.138.353-.367-.082a1 1 0 00-.221-.027h-3.33v-5.599c0-.568-.458-1.031-1.02-1.031H6.114c-.563 0-1.021.463-1.021 1.031s.459 1.031 1.021 1.031h6.128v5.587c0 .568.459 1.031 1.021 1.031h4.801l.076.349C18.587 30.521 20.42 32 22.499 32c2.099 0 3.891-1.446 4.358-3.516l.078-.346h18.219l.079.346C45.695 30.521 47.527 32 49.591 32c2.099 0 3.891-1.446 4.358-3.516l.078-.346h3.617c.563 0 1.022-.463 1.022-1.031V14.845h-.001zM22.501 29.951c-1.339 0-2.428-1.1-2.428-2.45s1.089-2.45 2.428-2.45c1.337 0 2.425 1.099 2.425 2.45s-1.088 2.45-2.425 2.45zm27.091 0c-1.337 0-2.425-1.1-2.425-2.45s1.088-2.45 2.425-2.45c1.338 0 2.426 1.099 2.426 2.45-.014 1.352-1.103 2.45-2.426 2.45zm7.032-3.862H53.84l-.112-.277c-.683-1.688-2.345-2.822-4.136-2.822-1.824 0-3.448 1.108-4.135 2.821l-.112.278h-1.857V6.884h6.568c4.113 0 6.568 2.98 6.568 7.973v11.232z"/><path fill="var(--color1, #3e6e00)" d="M25.696 18.902c.279 0 .542-.105.738-.294l3.805-3.844.174-.317a.419.419 0 01.031-.086l.046-.264c-.003-.032-.003-.077-.008-.124l-.054-.107.026-.043-.113-.348-.091-.128a.25.25 0 01-.025-.034c-.03-.02-.053-.053-.078-.088l-3.538-3.561c-.185-.185-.448-.291-.724-.291s-.54.106-.723.291a1.034 1.034 0 000 1.461l1.836 1.855H1.021c-.563 0-1.022.463-1.022 1.031s.459 1.031 1.022 1.031h25.916l-1.951 2.102a1.05 1.05 0 00-.009 1.472c.182.182.444.288.718.288z"/></symbol><symbol id="icon-medal" viewBox="0 0 31 32"><path fill="none" stroke="var(--color1, #3e6e00)" stroke-miterlimit="10" stroke-width="1.293" d="M6.303 25.975c0 .361-.005.665.001.969.023 1.295.048 2.591.073 3.886.003.167.011.335.025.501.003.037.034.09.065.102.033.013.095.001.12-.025.271-.268.542-.537.803-.814.383-.408.754-.826 1.136-1.234.436-.466.879-.926 1.319-1.389.728-.765 1.458-1.528 2.181-2.297.381-.405.748-.821 1.124-1.231.256-.279.509-.562.774-.831.131-.133.115-.217-.005-.355a19.805 19.805 0 01-.894-1.11c-.172-.229-.247-.255-.525-.177-.622.173-1.229.412-1.898.364-1-.07-1.847-.43-2.487-1.229-.391-.488-.688-1.018-.774-1.653-.016-.121-.094-.233-.143-.349-.098.067-.21.118-.29.202-.587.612-1.168 1.23-1.75 1.847-.413.438-.827.876-1.237 1.317-.671.719-1.338 1.442-2.009 2.161-.31.332-.632.654-.939.989-.056.061-.068.162-.1.244.079.022.158.061.238.063 1.24.02 2.481.036 3.721.05.475.005.95.001 1.472.001zM22.038 4.576c0 .356-.01.713.002 1.069.018.507.246.911.705 1.115.496.22 1.021.373 1.531.561.273.1.546.203.81.323.342.155.37.656.229.891-.189.314-.411.609-.624.909-.243.341-.512.664-.733 1.018-.374.595-.257 1.209.211 1.823.364.478.698.982 1.017 1.493.253.406.004.923-.457 1.065-.599.184-1.185.413-1.787.587-.479.139-.812.414-.977.881a1.667 1.667 0 00-.083.507c-.014.604-.004 1.208-.024 1.811-.006.19-.04.398-.125.564-.163.319-.531.423-.892.307-.422-.135-.847-.262-1.27-.395-.238-.075-.481-.138-.711-.234-.421-.174-.774-.013-1.102.219-.421.297-.661.755-.961 1.159-.234.315-.456.644-.726.926-.309.323-.783.22-1.036-.138-.361-.512-.717-1.029-1.102-1.523-.325-.418-.743-.73-1.303-.666-.305.035-.598.174-.896.265-.524.159-1.047.326-1.575.474-.392.11-.773-.295-.77-.724.006-.684.001-1.368-.015-2.052-.015-.604-.473-1.177-1.057-1.321-.356-.088-.691-.259-1.041-.375-.277-.092-.562-.161-.845-.237-.32-.086-.583-.339-.579-.668.003-.193.115-.405.229-.573.425-.632.904-1.229 1.296-1.88.215-.357.205-.796-.053-1.17-.461-.668-.935-1.328-1.399-1.994-.306-.439-.153-.964.362-1.132.65-.212 1.299-.426 1.951-.634.412-.132.725-.393.916-.772.089-.176.115-.398.118-.601.011-.735-.008-1.47.002-2.205.005-.382.21-.634.538-.714a.62.62 0 01.317-.002c.46.146.912.313 1.371.463.379.123.755.279 1.145.334.376.053.733-.119.988-.405.312-.35.591-.731.875-1.105.221-.292.411-.611.646-.89.289-.343.606-.363.932-.093.349.29.541.692.81 1.038.362.468.61 1.041 1.156 1.337.251.136.528.235.84.126.551-.193 1.11-.363 1.666-.538.171-.054.346-.1.521-.14.601-.138.918.161.942.771.015.381.003.764.003 1.146h.012zm2.627 21.399c0 .361.005.665-.001.969-.023 1.295-.048 2.591-.073 3.886a7.602 7.602 0 01-.025.501c-.003.037-.034.09-.065.102a.136.136 0 01-.121-.025 32.43 32.43 0 01-.803-.814c-.383-.408-.754-.826-1.136-1.234-.436-.466-.879-.926-1.319-1.389-.728-.765-1.458-1.528-2.181-2.297-.381-.405-.748-.821-1.124-1.231-.256-.279-.509-.562-.774-.831-.131-.133-.115-.217.005-.355.312-.358.609-.731.894-1.11.172-.229.247-.255.525-.177.622.173 1.229.412 1.898.364 1-.07 1.847-.43 2.487-1.229.391-.488.688-1.018.774-1.653.016-.121.094-.233.143-.349.098.067.21.118.29.202.587.612 1.168 1.23 1.75 1.847.413.438.827.876 1.237 1.317.671.719 1.338 1.442 2.009 2.161.311.332.632.654.939.989.056.061.068.162.1.244-.079.022-.158.061-.238.063-1.24.02-2.481.036-3.721.05-.475.005-.95.001-1.472.001z"/></symbol><symbol id="icon-s" viewBox="0 0 64 32"><path stroke-linejoin="round" stroke-linecap="round" stroke-width="2.909" d="M2.909 15.707h58.182M45.818 2.909l15.273 12.8-15.273 12.8"/></symbol><symbol id="icon-sa" viewBox="0 0 64 32"><path stroke-linejoin="round" stroke-linecap="round" stroke-width="2.909" d="M2.909 15.707h58.182M45.818 2.909l15.273 12.8-15.273 12.8"/></symbol></defs></svg>