<svg width="60" height="60" viewBox="0 0 60 60" fill="none" xmlns="http://www.w3.org/2000/svg"><path d="M45.616 39.691c-1.96-1.935-4.407-1.935-6.355 0a371.48 371.48 0 00-4.432 4.445c-.4.412-.737.5-1.224.224-.961-.524-1.985-.948-2.909-1.523-4.307-2.709-7.916-6.193-11.112-10.113-1.585-1.948-2.996-4.033-3.983-6.38-.2-.474-.162-.787.225-1.174 1.486-1.435 2.934-2.909 4.395-4.382 2.035-2.048 2.035-4.445-.013-6.505-1.16-1.173-2.322-2.322-3.483-3.496-1.199-1.198-2.385-2.41-3.596-3.596-1.96-1.91-4.407-1.91-6.355.013-1.498 1.473-2.934 2.984-4.457 4.432C.906 12.972.194 14.608.044 16.518c-.237 3.109.525 6.043 1.599 8.902 2.197 5.918 5.543 11.175 9.6 15.994 5.482 6.517 12.024 11.674 19.678 15.395 3.446 1.673 7.017 2.959 10.9 3.17 2.672.15 4.994-.524 6.854-2.609 1.274-1.423 2.71-2.721 4.058-4.082 1.998-2.023 2.01-4.47.025-6.468-2.372-2.385-4.757-4.757-7.142-7.129zm-2.385-9.951l4.607-.787c-.724-4.232-2.722-8.065-5.756-11.111a20.468 20.468 0 00-11.736-5.856l-.65 4.632a15.89 15.89 0 019.09 4.532 15.888 15.888 0 014.445 8.59zm7.205-20.026C45.116 4.394 38.387 1.036 30.958 0l-.649 4.632c6.418.899 12.236 3.808 16.83 8.39 4.358 4.358 7.217 9.864 8.253 15.92L60 28.154c-1.21-7.017-4.52-13.385-9.563-18.441z" fill="#fff"/></svg>