<svg width="19" height="21" viewBox="0 0 19 21" fill="none" xmlns="http://www.w3.org/2000/svg"><path d="M11.609 0H7.387C3.314 0 0 3.298 0 7.35v3.15a7.356 7.356 0 004.221 6.645v3.506c0 .304.384.464.602.247l3.063-3.048h3.727c4.073 0 7.387-3.298 7.387-7.35V7.35C19 3.298 15.686 0 11.609 0zm-1.406 5.25c-.103 0-.21.004-.313.016a.351.351 0 01-.388-.307.35.35 0 01.31-.386c.127-.012.259-.02.39-.02 1.943 0 3.517 1.57 3.517 3.498a4.1 4.1 0 01-.02.39.35.35 0 01-.697-.078 2.812 2.812 0 00-2.8-3.113zm2.11 2.801c0 .193-.16.349-.35.349-.19 0-.35-.16-.35-.349 0-.77-.631-1.398-1.406-1.398a.35.35 0 110-.698 2.1 2.1 0 012.106 2.096zm2.495 5.136c-.104.45-.33.86-.66 1.189-.45.447-1.06.677-1.79.677-.193 0-.399-.017-.61-.05-1.681-.262-4.023-1.082-5.548-2.596l-.02-.02c-1.522-1.518-2.346-3.848-2.61-5.521-.157-.997.062-1.825.63-2.391.33-.328.743-.554 1.196-.656a.324.324 0 01.14-.005l1.715.316c.14.025.252.136.28.275l.5 2.473a.344.344 0 01-.095.316l-1.006 1c.832 1.769 1.776 2.712 3.479 3.47l1.01-1.004a.348.348 0 01.317-.094l2.49.496c.14.029.252.14.276.279l.318 1.706c0 .045 0 .094-.012.14zm.19-4.004a.361.361 0 01-.438.259.35.35 0 01-.247-.419c.074-.315.111-.64.111-.968 0-2.317-1.892-4.2-4.221-4.2a4.44 4.44 0 00-.326.013.354.354 0 01-.38-.324.353.353 0 01.327-.378c.123-.008.251-.012.379-.012 2.716 0 4.926 2.199 4.926 4.901 0 .378-.045.76-.132 1.128z" fill="#333"/></svg>