<svg width="21" height="21" viewBox="0 0 21 21" fill="none" xmlns="http://www.w3.org/2000/svg"><path d="M10.504 0H10.5C4.709 0 0 4.709 0 10.5c0 2.297.738 4.426 1.997 6.152l-1.308 3.9 4.036-1.291A10.392 10.392 0 0010.505 21C16.29 21 21 16.291 21 10.5S16.291 0 10.504 0zm6.107 14.827c-.254.714-1.259 1.309-2.059 1.48-.55.116-1.263.21-3.679-.79-3.084-1.28-5.073-4.414-5.23-4.62-.147-.204-1.246-1.66-1.246-3.166 0-1.505.767-2.239 1.074-2.555.255-.258.673-.377 1.075-.377.131 0 .246.008.353.012.307.012.463.033.668.517.255.611.87 2.116.944 2.272.074.156.147.365.045.57-.099.21-.185.304-.34.48-.156.177-.304.316-.456.509-.143.168-.303.344-.123.652.18.303.796 1.308 1.702 2.116 1.173 1.042 2.12 1.379 2.461 1.518.255.107.554.082.739-.115.233-.254.524-.673.82-1.087.209-.295.476-.332.755-.23.282.099 1.784.841 2.091.993.308.156.513.23.587.357.074.14.074.746-.18 1.464z" fill="#333"/></svg>