<svg width="25" height="19" viewBox="0 0 25 19" fill="none" xmlns="http://www.w3.org/2000/svg"><path d="M24.741 4.104s-.259-1.859-.991-2.676c-.947-1.08-2.026-1.08-2.5-1.125C17.759.044 12.5 0 12.5 0s-1.313.01-3.066.054-3.94.117-5.684.25c-.474.043-1.553.087-2.5 1.12-.776.821-.991 2.68-.991 2.68S0 6.306 0 8.507v2.03c0 2.201.259 4.364.259 4.364s.259 1.858.991 2.675c.947 1.082 2.197 1.037 2.759 1.165C5.99 18.956 12.5 19 12.5 19s5.259 0 8.75-.303c.474-.044 1.553-.088 2.5-1.125.732-.822.991-2.676.991-2.676S25 12.694 25 10.532v-2.03c0-2.196-.259-4.398-.259-4.398zM9.482 14.51V5.141l8.189 4.794-8.189 4.574z" fill="#333"/></svg>